%FSAX24Y24*%
%MOIN*%
G70*
G01*
G75*
G04 Layer_Color=65535*
%ADD10R,0.0500X0.0600*%
G04:AMPARAMS|DCode=11|XSize=39.4mil|YSize=43.3mil|CornerRadius=0mil|HoleSize=0mil|Usage=FLASHONLY|Rotation=225.000|XOffset=0mil|YOffset=0mil|HoleType=Round|Shape=Rectangle|*
%AMROTATEDRECTD11*
4,1,4,-0.0014,0.0292,0.0292,-0.0014,0.0014,-0.0292,-0.0292,0.0014,-0.0014,0.0292,0.0*
%
%ADD11ROTATEDRECTD11*%

%ADD12R,0.0394X0.0433*%
%ADD13R,0.0433X0.0394*%
%ADD14R,0.0310X0.0370*%
%ADD15R,0.0571X0.0177*%
%ADD16C,0.0197*%
%ADD17C,0.0118*%
%ADD18C,0.0900*%
%ADD19C,0.0591*%
%ADD20R,0.0591X0.0591*%
%ADD21C,0.0394*%
%ADD22C,0.7000*%
%ADD23C,0.0394*%
%ADD24C,0.0059*%
%ADD25C,0.0050*%
%ADD26C,0.0079*%
%ADD27C,0.0100*%
G36*
X002826Y001167D02*
X002872D01*
Y001106D01*
X002826D01*
Y001029D01*
Y001029D01*
Y001027D01*
Y001024D01*
X002827Y001022D01*
X002828Y001016D01*
X002828Y001013D01*
X002829Y001011D01*
X002830Y001010D01*
X002832Y001007D01*
X002836Y001005D01*
X002840Y001005D01*
X002843Y001004D01*
X002845D01*
X002847Y001005D01*
X002849D01*
X002853Y001005D01*
X002858Y001006D01*
X002863Y001007D01*
X002869Y001009D01*
X002875Y000952D01*
X002873D01*
X002872Y000951D01*
X002870Y000951D01*
X002864Y000949D01*
X002856Y000948D01*
X002847Y000947D01*
X002837Y000946D01*
X002828Y000946D01*
X002817Y000945D01*
X002812D01*
X002807Y000946D01*
X002800Y000946D01*
X002792Y000947D01*
X002785Y000948D01*
X002777Y000950D01*
X002771Y000953D01*
X002771Y000953D01*
X002769Y000954D01*
X002766Y000956D01*
X002763Y000959D01*
X002759Y000962D01*
X002756Y000966D01*
X002752Y000971D01*
X002750Y000977D01*
Y000977D01*
X002748Y000980D01*
X002747Y000984D01*
X002746Y000989D01*
X002745Y000997D01*
X002744Y001006D01*
X002743Y001017D01*
X002743Y001030D01*
Y001106D01*
X002712D01*
Y001167D01*
X002743D01*
Y001206D01*
X002826Y001249D01*
Y001167D01*
D02*
G37*
G36*
X007571Y002042D02*
X007488D01*
Y002099D01*
X007571D01*
Y002042D01*
D02*
G37*
G36*
X003012Y001167D02*
X003058D01*
Y001106D01*
X003012D01*
Y001029D01*
Y001029D01*
Y001027D01*
Y001024D01*
X003013Y001022D01*
X003013Y001016D01*
X003014Y001013D01*
X003014Y001011D01*
X003015Y001010D01*
X003018Y001007D01*
X003022Y001005D01*
X003025Y001005D01*
X003029Y001004D01*
X003030D01*
X003032Y001005D01*
X003035D01*
X003039Y001005D01*
X003043Y001006D01*
X003048Y001007D01*
X003054Y001009D01*
X003061Y000952D01*
X003059D01*
X003057Y000951D01*
X003055Y000951D01*
X003049Y000949D01*
X003042Y000948D01*
X003033Y000947D01*
X003023Y000946D01*
X003013Y000946D01*
X003003Y000945D01*
X002998D01*
X002992Y000946D01*
X002985Y000946D01*
X002978Y000947D01*
X002971Y000948D01*
X002963Y000950D01*
X002957Y000953D01*
X002956Y000953D01*
X002955Y000954D01*
X002952Y000956D01*
X002949Y000959D01*
X002945Y000962D01*
X002942Y000966D01*
X002938Y000971D01*
X002935Y000977D01*
Y000977D01*
X002934Y000980D01*
X002933Y000984D01*
X002932Y000989D01*
X002931Y000997D01*
X002930Y001006D01*
X002929Y001017D01*
X002929Y001030D01*
Y001106D01*
X002898D01*
Y001167D01*
X002929D01*
Y001206D01*
X003012Y001249D01*
Y001167D01*
D02*
G37*
G36*
X005498D02*
X005543D01*
Y001106D01*
X005498D01*
Y001029D01*
Y001029D01*
Y001027D01*
Y001024D01*
X005498Y001022D01*
X005499Y001016D01*
X005499Y001013D01*
X005500Y001011D01*
X005501Y001010D01*
X005503Y001007D01*
X005507Y001005D01*
X005511Y001005D01*
X005514Y001004D01*
X005516D01*
X005518Y001005D01*
X005520D01*
X005524Y001005D01*
X005529Y001006D01*
X005534Y001007D01*
X005540Y001009D01*
X005546Y000952D01*
X005544D01*
X005543Y000951D01*
X005541Y000951D01*
X005535Y000949D01*
X005527Y000948D01*
X005518Y000947D01*
X005508Y000946D01*
X005499Y000946D01*
X005488Y000945D01*
X005483D01*
X005478Y000946D01*
X005471Y000946D01*
X005463Y000947D01*
X005456Y000948D01*
X005448Y000950D01*
X005442Y000953D01*
X005442Y000953D01*
X005440Y000954D01*
X005437Y000956D01*
X005434Y000959D01*
X005430Y000962D01*
X005427Y000966D01*
X005423Y000971D01*
X005421Y000977D01*
Y000977D01*
X005419Y000980D01*
X005418Y000984D01*
X005417Y000989D01*
X005416Y000997D01*
X005415Y001006D01*
X005415Y001017D01*
X005414Y001030D01*
Y001106D01*
X005383D01*
Y001167D01*
X005414D01*
Y001206D01*
X005498Y001249D01*
Y001167D01*
D02*
G37*
G36*
X005312D02*
X005358D01*
Y001106D01*
X005312D01*
Y001029D01*
Y001029D01*
Y001027D01*
Y001024D01*
X005312Y001022D01*
X005313Y001016D01*
X005314Y001013D01*
X005314Y001011D01*
X005315Y001010D01*
X005317Y001007D01*
X005322Y001005D01*
X005325Y001005D01*
X005328Y001004D01*
X005330D01*
X005332Y001005D01*
X005335D01*
X005339Y001005D01*
X005343Y001006D01*
X005348Y001007D01*
X005354Y001009D01*
X005360Y000952D01*
X005359D01*
X005357Y000951D01*
X005355Y000951D01*
X005349Y000949D01*
X005341Y000948D01*
X005333Y000947D01*
X005323Y000946D01*
X005313Y000946D01*
X005303Y000945D01*
X005298D01*
X005292Y000946D01*
X005285Y000946D01*
X005277Y000947D01*
X005270Y000948D01*
X005263Y000950D01*
X005257Y000953D01*
X005256Y000953D01*
X005255Y000954D01*
X005252Y000956D01*
X005249Y000959D01*
X005245Y000962D01*
X005241Y000966D01*
X005238Y000971D01*
X005235Y000977D01*
Y000977D01*
X005234Y000980D01*
X005233Y000984D01*
X005232Y000989D01*
X005231Y000997D01*
X005229Y001006D01*
X005229Y001017D01*
X005228Y001030D01*
Y001106D01*
X005198D01*
Y001167D01*
X005228D01*
Y001206D01*
X005312Y001249D01*
Y001167D01*
D02*
G37*
G36*
X006624Y002021D02*
X006630Y002021D01*
X006638Y002019D01*
X006647Y002017D01*
X006656Y002013D01*
X006664Y002008D01*
X006672Y002001D01*
X006674Y002000D01*
X006676Y001997D01*
X006678Y001992D01*
X006682Y001985D01*
X006686Y001976D01*
X006689Y001965D01*
X006691Y001951D01*
X006692Y001944D01*
Y001936D01*
Y001800D01*
X006609D01*
Y001923D01*
Y001924D01*
Y001926D01*
X006608Y001928D01*
Y001932D01*
X006606Y001939D01*
X006605Y001943D01*
X006603Y001945D01*
X006602Y001946D01*
X006601Y001947D01*
X006599Y001949D01*
X006597Y001951D01*
X006594Y001953D01*
X006591Y001955D01*
X006586Y001956D01*
X006582Y001957D01*
X006580D01*
X006577Y001956D01*
X006574Y001956D01*
X006570Y001954D01*
X006566Y001952D01*
X006562Y001950D01*
X006558Y001946D01*
X006558Y001945D01*
X006557Y001944D01*
X006556Y001941D01*
X006554Y001938D01*
X006552Y001933D01*
X006551Y001927D01*
X006550Y001920D01*
X006550Y001912D01*
Y001800D01*
X006466D01*
Y001919D01*
Y001920D01*
Y001921D01*
Y001924D01*
Y001927D01*
X006466Y001933D01*
X006465Y001936D01*
X006464Y001938D01*
Y001939D01*
X006464Y001940D01*
X006462Y001943D01*
X006460Y001947D01*
X006455Y001951D01*
X006455D01*
X006454Y001952D01*
X006451Y001954D01*
X006446Y001956D01*
X006440Y001957D01*
X006438D01*
X006435Y001956D01*
X006431Y001956D01*
X006427Y001954D01*
X006423Y001952D01*
X006420Y001950D01*
X006416Y001946D01*
X006415Y001945D01*
X006415Y001944D01*
X006413Y001941D01*
X006411Y001937D01*
X006410Y001932D01*
X006409Y001926D01*
X006408Y001919D01*
X006407Y001910D01*
Y001800D01*
X006324D01*
Y002017D01*
X006401D01*
Y001985D01*
X006402Y001986D01*
X006404Y001988D01*
X006407Y001992D01*
X006411Y001995D01*
X006417Y002000D01*
X006422Y002005D01*
X006428Y002009D01*
X006435Y002013D01*
X006435Y002013D01*
X006438Y002015D01*
X006442Y002016D01*
X006446Y002017D01*
X006452Y002019D01*
X006460Y002021D01*
X006468Y002021D01*
X006476Y002022D01*
X006481D01*
X006485Y002021D01*
X006491Y002021D01*
X006498Y002019D01*
X006505Y002018D01*
X006511Y002016D01*
X006517Y002012D01*
X006518Y002012D01*
X006520Y002011D01*
X006523Y002009D01*
X006526Y002005D01*
X006530Y002001D01*
X006534Y001997D01*
X006538Y001991D01*
X006542Y001985D01*
X006543Y001986D01*
X006545Y001988D01*
X006549Y001992D01*
X006554Y001996D01*
X006559Y002001D01*
X006565Y002006D01*
X006571Y002010D01*
X006577Y002013D01*
X006578Y002014D01*
X006580Y002015D01*
X006584Y002016D01*
X006589Y002018D01*
X006594Y002019D01*
X006601Y002021D01*
X006609Y002021D01*
X006618Y002022D01*
X006621D01*
X006624Y002021D01*
D02*
G37*
G36*
X005902D02*
X005910D01*
X005920Y002020D01*
X005929Y002019D01*
X005938Y002018D01*
X005945Y002016D01*
X005946D01*
X005948Y002015D01*
X005952Y002013D01*
X005956Y002011D01*
X005961Y002009D01*
X005966Y002005D01*
X005971Y002001D01*
X005976Y001997D01*
X005977Y001997D01*
X005979Y001995D01*
X005981Y001992D01*
X005983Y001988D01*
X005987Y001983D01*
X005991Y001978D01*
X005994Y001971D01*
X005997Y001964D01*
X005918Y001956D01*
Y001957D01*
X005918Y001958D01*
X005917Y001960D01*
X005916Y001962D01*
X005912Y001967D01*
X005908Y001971D01*
X005908Y001972D01*
X005906Y001973D01*
X005904Y001974D01*
X005902Y001975D01*
X005898Y001976D01*
X005894Y001977D01*
X005889Y001978D01*
X005879D01*
X005876Y001977D01*
X005869Y001976D01*
X005866Y001974D01*
X005863Y001973D01*
X005862Y001971D01*
X005861Y001969D01*
X005858Y001965D01*
X005858Y001963D01*
X005857Y001961D01*
Y001960D01*
Y001959D01*
X005858Y001956D01*
X005861Y001952D01*
X005862Y001950D01*
X005865Y001949D01*
X005865D01*
X005867Y001948D01*
X005869Y001947D01*
X005873Y001946D01*
X005877Y001945D01*
X005883Y001944D01*
X005891Y001942D01*
X005900Y001941D01*
X005902D01*
X005904Y001940D01*
X005907D01*
X005911Y001940D01*
X005915Y001939D01*
X005924Y001938D01*
X005934Y001936D01*
X005944Y001934D01*
X005954Y001931D01*
X005962Y001928D01*
X005963Y001927D01*
X005965Y001926D01*
X005969Y001924D01*
X005974Y001922D01*
X005979Y001918D01*
X005984Y001914D01*
X005989Y001909D01*
X005993Y001904D01*
X005994Y001903D01*
X005995Y001901D01*
X005997Y001898D01*
X005999Y001894D01*
X006001Y001889D01*
X006003Y001883D01*
X006004Y001876D01*
X006004Y001870D01*
Y001869D01*
Y001867D01*
X006004Y001863D01*
X006003Y001858D01*
X006001Y001853D01*
X005999Y001846D01*
X005997Y001840D01*
X005993Y001833D01*
X005992Y001833D01*
X005991Y001831D01*
X005988Y001827D01*
X005984Y001823D01*
X005979Y001819D01*
X005972Y001814D01*
X005965Y001810D01*
X005957Y001805D01*
X005956Y001805D01*
X005952Y001804D01*
X005947Y001802D01*
X005939Y001801D01*
X005930Y001798D01*
X005918Y001797D01*
X005905Y001796D01*
X005891Y001795D01*
X005885D01*
X005881Y001796D01*
X005876D01*
X005870Y001796D01*
X005864Y001797D01*
X005858Y001797D01*
X005844Y001799D01*
X005830Y001802D01*
X005817Y001807D01*
X005811Y001809D01*
X005806Y001812D01*
X005805Y001813D01*
X005802Y001815D01*
X005798Y001819D01*
X005792Y001825D01*
X005787Y001831D01*
X005782Y001840D01*
X005777Y001850D01*
X005774Y001861D01*
X005856Y001868D01*
Y001868D01*
X005857Y001866D01*
X005858Y001863D01*
X005860Y001860D01*
X005864Y001852D01*
X005867Y001849D01*
X005870Y001846D01*
X005870D01*
X005871Y001845D01*
X005874Y001845D01*
X005876Y001844D01*
X005880Y001843D01*
X005884Y001841D01*
X005889Y001841D01*
X005894Y001840D01*
X005897D01*
X005900Y001841D01*
X005904Y001841D01*
X005912Y001844D01*
X005916Y001845D01*
X005920Y001848D01*
X005921D01*
X005921Y001849D01*
X005924Y001851D01*
X005927Y001855D01*
X005927Y001858D01*
X005928Y001861D01*
Y001861D01*
Y001862D01*
X005927Y001866D01*
X005926Y001868D01*
X005924Y001870D01*
X005922Y001872D01*
X005918Y001874D01*
X005918D01*
X005917Y001875D01*
X005915Y001876D01*
X005911Y001877D01*
X005907Y001878D01*
X005901Y001880D01*
X005893Y001881D01*
X005883Y001883D01*
X005882D01*
X005881Y001884D01*
X005879D01*
X005876Y001884D01*
X005873Y001885D01*
X005868Y001886D01*
X005859Y001888D01*
X005849Y001890D01*
X005839Y001892D01*
X005830Y001894D01*
X005826Y001896D01*
X005822Y001897D01*
X005822Y001898D01*
X005820Y001898D01*
X005816Y001900D01*
X005813Y001903D01*
X005808Y001905D01*
X005804Y001909D01*
X005799Y001914D01*
X005795Y001919D01*
X005794Y001920D01*
X005793Y001922D01*
X005791Y001925D01*
X005789Y001929D01*
X005787Y001934D01*
X005785Y001940D01*
X005784Y001946D01*
X005783Y001953D01*
Y001955D01*
Y001957D01*
X005784Y001961D01*
X005785Y001967D01*
X005786Y001972D01*
X005788Y001979D01*
X005791Y001985D01*
X005795Y001991D01*
X005796Y001991D01*
X005797Y001993D01*
X005800Y001996D01*
X005804Y001999D01*
X005809Y002003D01*
X005815Y002007D01*
X005822Y002010D01*
X005829Y002013D01*
X005831Y002014D01*
X005833Y002015D01*
X005838Y002016D01*
X005845Y002018D01*
X005853Y002019D01*
X005863Y002021D01*
X005875Y002021D01*
X005888Y002022D01*
X005898D01*
X005902Y002021D01*
D02*
G37*
G36*
X009283D02*
X009288D01*
X009293Y002021D01*
X009299Y002020D01*
X009305Y002019D01*
X009318Y002017D01*
X009331Y002013D01*
X009344Y002009D01*
X009350Y002006D01*
X009356Y002003D01*
X009356D01*
X009357Y002001D01*
X009360Y001999D01*
X009365Y001994D01*
X009371Y001988D01*
X009377Y001981D01*
X009384Y001971D01*
X009390Y001960D01*
X009395Y001947D01*
X009317Y001937D01*
Y001937D01*
X009316Y001939D01*
X009315Y001941D01*
X009313Y001944D01*
X009310Y001951D01*
X009306Y001955D01*
X009303Y001957D01*
X009303Y001958D01*
X009301Y001958D01*
X009299Y001959D01*
X009296Y001961D01*
X009292Y001963D01*
X009288Y001964D01*
X009283Y001964D01*
X009277Y001965D01*
X009274D01*
X009270Y001964D01*
X009265Y001963D01*
X009259Y001961D01*
X009254Y001959D01*
X009248Y001955D01*
X009244Y001950D01*
X009243Y001950D01*
X009241Y001947D01*
X009240Y001944D01*
X009238Y001939D01*
X009235Y001933D01*
X009233Y001925D01*
X009232Y001916D01*
X009231Y001905D01*
Y001905D01*
Y001904D01*
Y001901D01*
X009232Y001896D01*
X009233Y001890D01*
X009234Y001884D01*
X009236Y001877D01*
X009239Y001870D01*
X009244Y001865D01*
X009244Y001864D01*
X009246Y001863D01*
X009248Y001861D01*
X009252Y001858D01*
X009257Y001856D01*
X009263Y001854D01*
X009269Y001852D01*
X009276Y001851D01*
X009279D01*
X009282Y001852D01*
X009286Y001852D01*
X009289Y001854D01*
X009294Y001855D01*
X009299Y001857D01*
X009303Y001860D01*
X009304Y001860D01*
X009305Y001861D01*
X009307Y001863D01*
X009309Y001866D01*
X009312Y001869D01*
X009315Y001874D01*
X009318Y001879D01*
X009320Y001885D01*
X009399Y001876D01*
X009399Y001875D01*
X009398Y001872D01*
X009396Y001868D01*
X009394Y001862D01*
X009391Y001855D01*
X009387Y001848D01*
X009383Y001840D01*
X009377Y001833D01*
X009377Y001832D01*
X009375Y001830D01*
X009371Y001827D01*
X009367Y001822D01*
X009362Y001818D01*
X009355Y001814D01*
X009347Y001809D01*
X009339Y001805D01*
X009338Y001804D01*
X009335Y001803D01*
X009330Y001802D01*
X009323Y001800D01*
X009315Y001798D01*
X009305Y001797D01*
X009293Y001796D01*
X009281Y001795D01*
X009275D01*
X009269Y001796D01*
X009261D01*
X009251Y001797D01*
X009242Y001798D01*
X009232Y001799D01*
X009223Y001801D01*
X009222Y001802D01*
X009219Y001802D01*
X009215Y001804D01*
X009209Y001806D01*
X009203Y001809D01*
X009197Y001813D01*
X009190Y001817D01*
X009184Y001822D01*
X009183Y001822D01*
X009181Y001825D01*
X009178Y001827D01*
X009174Y001832D01*
X009170Y001837D01*
X009166Y001843D01*
X009162Y001849D01*
X009158Y001856D01*
X009157Y001857D01*
X009156Y001860D01*
X009155Y001863D01*
X009153Y001869D01*
X009151Y001877D01*
X009150Y001886D01*
X009149Y001896D01*
X009149Y001907D01*
Y001908D01*
Y001909D01*
Y001910D01*
Y001912D01*
X009149Y001919D01*
X009150Y001927D01*
X009151Y001935D01*
X009153Y001945D01*
X009156Y001954D01*
X009159Y001963D01*
X009160Y001963D01*
X009161Y001965D01*
X009163Y001969D01*
X009165Y001973D01*
X009169Y001977D01*
X009173Y001982D01*
X009178Y001987D01*
X009182Y001992D01*
X009183Y001993D01*
X009185Y001994D01*
X009188Y001997D01*
X009192Y001999D01*
X009196Y002003D01*
X009202Y002006D01*
X009207Y002009D01*
X009212Y002011D01*
X009213D01*
X009214Y002012D01*
X009217Y002013D01*
X009222Y002015D01*
X009229Y002017D01*
X009238Y002018D01*
X009249Y002020D01*
X009261Y002021D01*
X009275Y002022D01*
X009280D01*
X009283Y002021D01*
D02*
G37*
G36*
X008772Y001913D02*
X008852Y001800D01*
X008754D01*
X008715Y001869D01*
X008668Y001800D01*
X008577D01*
X008656Y001913D01*
X008581Y002017D01*
X008680D01*
X008715Y001956D01*
X008754Y002017D01*
X008846D01*
X008772Y001913D01*
D02*
G37*
G36*
X004549Y002021D02*
X004553Y002021D01*
X004557Y002020D01*
X004567Y002017D01*
X004577Y002013D01*
X004583Y002011D01*
X004589Y002007D01*
X004594Y002004D01*
X004599Y001999D01*
X004605Y001994D01*
X004609Y001988D01*
X004610Y001988D01*
X004610Y001987D01*
X004611Y001985D01*
X004613Y001982D01*
X004615Y001979D01*
X004617Y001975D01*
X004619Y001971D01*
X004621Y001965D01*
X004623Y001960D01*
X004626Y001953D01*
X004629Y001940D01*
X004632Y001923D01*
X004633Y001915D01*
Y001906D01*
Y001905D01*
Y001904D01*
Y001901D01*
X004633Y001897D01*
Y001892D01*
X004632Y001887D01*
X004631Y001881D01*
X004630Y001875D01*
X004627Y001862D01*
X004622Y001849D01*
X004616Y001835D01*
X004611Y001829D01*
X004607Y001823D01*
X004606Y001823D01*
X004606Y001822D01*
X004604Y001821D01*
X004603Y001819D01*
X004597Y001815D01*
X004589Y001809D01*
X004580Y001804D01*
X004569Y001799D01*
X004556Y001796D01*
X004549Y001796D01*
X004541Y001795D01*
X004538D01*
X004534Y001796D01*
X004530Y001796D01*
X004525Y001797D01*
X004518Y001798D01*
X004512Y001799D01*
X004506Y001802D01*
X004506Y001802D01*
X004504Y001803D01*
X004501Y001804D01*
X004497Y001807D01*
X004493Y001809D01*
X004488Y001813D01*
X004484Y001816D01*
X004479Y001821D01*
Y001718D01*
X004395D01*
Y002017D01*
X004472D01*
Y001985D01*
X004473Y001986D01*
X004475Y001988D01*
X004478Y001991D01*
X004482Y001995D01*
X004486Y002000D01*
X004491Y002005D01*
X004497Y002009D01*
X004502Y002012D01*
X004503Y002012D01*
X004505Y002013D01*
X004509Y002015D01*
X004514Y002017D01*
X004520Y002018D01*
X004527Y002020D01*
X004534Y002021D01*
X004542Y002022D01*
X004546D01*
X004549Y002021D01*
D02*
G37*
G36*
X007785D02*
X007792Y002021D01*
X007799Y002019D01*
X007808Y002017D01*
X007817Y002013D01*
X007826Y002008D01*
X007834Y002001D01*
X007835Y002000D01*
X007837Y001997D01*
X007840Y001992D01*
X007844Y001985D01*
X007847Y001976D01*
X007850Y001965D01*
X007852Y001952D01*
X007853Y001938D01*
Y001800D01*
X007770D01*
Y001919D01*
Y001920D01*
Y001922D01*
X007769Y001926D01*
X007769Y001930D01*
X007767Y001940D01*
X007765Y001944D01*
X007762Y001948D01*
X007762Y001949D01*
X007761Y001950D01*
X007759Y001951D01*
X007757Y001952D01*
X007754Y001954D01*
X007750Y001956D01*
X007746Y001956D01*
X007741Y001957D01*
X007738D01*
X007736Y001956D01*
X007732Y001955D01*
X007728Y001954D01*
X007724Y001952D01*
X007720Y001949D01*
X007716Y001945D01*
X007716Y001945D01*
X007715Y001943D01*
X007714Y001940D01*
X007712Y001936D01*
X007710Y001930D01*
X007709Y001923D01*
X007708Y001914D01*
X007707Y001904D01*
Y001800D01*
X007624D01*
Y002017D01*
X007701D01*
Y001981D01*
X007702Y001982D01*
X007704Y001985D01*
X007708Y001989D01*
X007712Y001993D01*
X007718Y001999D01*
X007724Y002004D01*
X007730Y002009D01*
X007736Y002012D01*
X007737Y002013D01*
X007739Y002014D01*
X007743Y002015D01*
X007748Y002017D01*
X007755Y002019D01*
X007762Y002020D01*
X007770Y002021D01*
X007780Y002022D01*
X007783D01*
X007785Y002021D01*
D02*
G37*
G36*
X009587Y001171D02*
X009591D01*
X009602Y001170D01*
X009613Y001168D01*
X009625Y001166D01*
X009637Y001162D01*
X009648Y001157D01*
X009649D01*
X009649Y001157D01*
X009653Y001155D01*
X009657Y001151D01*
X009664Y001147D01*
X009671Y001141D01*
X009677Y001134D01*
X009684Y001126D01*
X009690Y001117D01*
Y001116D01*
X009690Y001115D01*
X009691Y001114D01*
X009692Y001112D01*
X009693Y001109D01*
X009694Y001106D01*
X009697Y001098D01*
X009700Y001088D01*
X009702Y001076D01*
X009703Y001062D01*
X009704Y001047D01*
Y001038D01*
X009537D01*
Y001037D01*
X009538Y001035D01*
X009538Y001031D01*
X009540Y001026D01*
X009543Y001017D01*
X009545Y001012D01*
X009548Y001008D01*
X009548Y001007D01*
X009550Y001006D01*
X009553Y001004D01*
X009556Y001001D01*
X009561Y000998D01*
X009566Y000996D01*
X009572Y000994D01*
X009579Y000994D01*
X009582D01*
X009584Y000994D01*
X009587D01*
X009594Y000996D01*
X009598Y000997D01*
X009602Y001000D01*
X009603D01*
X009603Y001000D01*
X009607Y001003D01*
X009609Y001005D01*
X009611Y001007D01*
X009614Y001010D01*
X009617Y001014D01*
X009699Y001006D01*
Y001006D01*
X009698Y001005D01*
X009697Y001003D01*
X009696Y001001D01*
X009691Y000995D01*
X009686Y000988D01*
X009679Y000981D01*
X009672Y000972D01*
X009663Y000965D01*
X009653Y000959D01*
X009653D01*
X009652Y000959D01*
X009650Y000958D01*
X009648Y000957D01*
X009645Y000956D01*
X009642Y000955D01*
X009638Y000953D01*
X009634Y000952D01*
X009629Y000951D01*
X009623Y000949D01*
X009617Y000948D01*
X009610Y000947D01*
X009603Y000946D01*
X009595Y000946D01*
X009587Y000945D01*
X009570D01*
X009566Y000946D01*
X009563D01*
X009553Y000947D01*
X009542Y000948D01*
X009530Y000950D01*
X009519Y000953D01*
X009510Y000957D01*
X009508Y000958D01*
X009506Y000959D01*
X009501Y000963D01*
X009495Y000966D01*
X009489Y000972D01*
X009482Y000978D01*
X009475Y000986D01*
X009469Y000995D01*
Y000996D01*
X009468Y000996D01*
X009467Y000998D01*
X009466Y001000D01*
X009464Y001006D01*
X009461Y001013D01*
X009458Y001022D01*
X009455Y001033D01*
X009453Y001044D01*
X009453Y001058D01*
Y001058D01*
Y001060D01*
Y001062D01*
X009453Y001066D01*
X009454Y001070D01*
X009454Y001076D01*
X009455Y001081D01*
X009457Y001087D01*
X009460Y001100D01*
X009463Y001107D01*
X009466Y001114D01*
X009470Y001121D01*
X009475Y001127D01*
X009480Y001134D01*
X009485Y001140D01*
X009486Y001141D01*
X009487Y001142D01*
X009488Y001143D01*
X009491Y001145D01*
X009494Y001147D01*
X009499Y001150D01*
X009503Y001153D01*
X009508Y001156D01*
X009514Y001159D01*
X009522Y001162D01*
X009529Y001165D01*
X009537Y001167D01*
X009546Y001169D01*
X009555Y001171D01*
X009565Y001171D01*
X009575Y001172D01*
X009583D01*
X009587Y001171D01*
D02*
G37*
G36*
X009053D02*
X009058Y001171D01*
X009065Y001169D01*
X009072Y001168D01*
X009079Y001167D01*
X009086Y001165D01*
X009095Y001162D01*
X009103Y001159D01*
X009111Y001156D01*
X009119Y001151D01*
X009127Y001146D01*
X009134Y001140D01*
X009140Y001133D01*
X009141Y001133D01*
X009142Y001132D01*
X009143Y001130D01*
X009145Y001128D01*
X009147Y001125D01*
X009149Y001121D01*
X009151Y001118D01*
X009154Y001113D01*
X009159Y001102D01*
X009163Y001089D01*
X009167Y001074D01*
X009167Y001067D01*
X009168Y001059D01*
Y001058D01*
Y001056D01*
Y001054D01*
X009167Y001050D01*
X009167Y001046D01*
X009166Y001041D01*
X009165Y001036D01*
X009163Y001030D01*
X009160Y001017D01*
X009157Y001010D01*
X009154Y001003D01*
X009150Y000996D01*
X009145Y000989D01*
X009140Y000983D01*
X009134Y000977D01*
X009134Y000976D01*
X009133Y000976D01*
X009131Y000974D01*
X009128Y000972D01*
X009125Y000970D01*
X009121Y000967D01*
X009116Y000964D01*
X009110Y000961D01*
X009104Y000958D01*
X009097Y000955D01*
X009090Y000952D01*
X009081Y000950D01*
X009073Y000948D01*
X009063Y000947D01*
X009053Y000946D01*
X009042Y000945D01*
X009037D01*
X009033Y000946D01*
X009029D01*
X009024Y000947D01*
X009018Y000947D01*
X009012Y000948D01*
X008998Y000952D01*
X008984Y000956D01*
X008971Y000963D01*
X008964Y000967D01*
X008958Y000971D01*
X008957Y000972D01*
X008956Y000973D01*
X008954Y000975D01*
X008952Y000977D01*
X008948Y000981D01*
X008945Y000984D01*
X008942Y000989D01*
X008938Y000994D01*
X008934Y001000D01*
X008931Y001007D01*
X008928Y001014D01*
X008924Y001022D01*
X008922Y001030D01*
X008920Y001038D01*
X008919Y001048D01*
X008918Y001058D01*
Y001058D01*
Y001060D01*
Y001062D01*
X008919Y001066D01*
X008919Y001070D01*
X008920Y001075D01*
X008921Y001080D01*
X008923Y001086D01*
X008926Y001100D01*
X008929Y001106D01*
X008932Y001113D01*
X008936Y001120D01*
X008941Y001127D01*
X008946Y001133D01*
X008952Y001139D01*
X008952Y001140D01*
X008953Y001141D01*
X008955Y001142D01*
X008958Y001144D01*
X008961Y001147D01*
X008965Y001150D01*
X008970Y001153D01*
X008976Y001156D01*
X008982Y001159D01*
X008988Y001161D01*
X008996Y001164D01*
X009004Y001167D01*
X009013Y001169D01*
X009022Y001170D01*
X009032Y001171D01*
X009042Y001172D01*
X009048D01*
X009053Y001171D01*
D02*
G37*
G36*
X002312Y001249D02*
X002316D01*
X002321Y001248D01*
X002332Y001246D01*
X002344Y001243D01*
X002356Y001239D01*
X002368Y001233D01*
X002374Y001230D01*
X002379Y001225D01*
X002379D01*
X002380Y001224D01*
X002381Y001222D01*
X002383Y001221D01*
X002387Y001215D01*
X002391Y001208D01*
X002396Y001198D01*
X002400Y001186D01*
X002403Y001173D01*
X002404Y001166D01*
Y001157D01*
Y001157D01*
Y001155D01*
Y001153D01*
X002403Y001150D01*
Y001146D01*
X002402Y001142D01*
X002401Y001132D01*
X002397Y001120D01*
X002392Y001108D01*
X002389Y001102D01*
X002386Y001097D01*
X002382Y001091D01*
X002377Y001086D01*
X002376D01*
X002376Y001085D01*
X002374Y001084D01*
X002372Y001083D01*
X002368Y001080D01*
X002365Y001078D01*
X002361Y001076D01*
X002356Y001074D01*
X002350Y001072D01*
X002344Y001070D01*
X002337Y001067D01*
X002330Y001065D01*
X002321Y001064D01*
X002313Y001062D01*
X002303Y001062D01*
X002293Y001061D01*
X002243D01*
Y000950D01*
X002150D01*
Y001249D01*
X002308D01*
X002312Y001249D01*
D02*
G37*
G36*
X003677Y000950D02*
X003580D01*
X003565Y000999D01*
X003460D01*
X003446Y000950D01*
X003351D01*
X003463Y001249D01*
X003565D01*
X003677Y000950D01*
D02*
G37*
G36*
X003186D02*
X003097D01*
Y001034D01*
X003186D01*
Y000950D01*
D02*
G37*
G36*
X008734Y001145D02*
X008735Y001146D01*
X008736Y001148D01*
X008739Y001150D01*
X008742Y001153D01*
X008746Y001156D01*
X008751Y001159D01*
X008757Y001162D01*
X008762Y001165D01*
X008763Y001166D01*
X008765Y001166D01*
X008768Y001167D01*
X008772Y001168D01*
X008777Y001169D01*
X008783Y001171D01*
X008790Y001172D01*
X008801D01*
X008804Y001171D01*
X008807Y001171D01*
X008811Y001170D01*
X008820Y001168D01*
X008830Y001165D01*
X008841Y001160D01*
X008847Y001156D01*
X008852Y001153D01*
X008858Y001148D01*
X008863Y001143D01*
X008863Y001142D01*
X008864Y001142D01*
X008865Y001140D01*
X008867Y001137D01*
X008869Y001135D01*
X008871Y001131D01*
X008873Y001127D01*
X008876Y001122D01*
X008878Y001117D01*
X008881Y001111D01*
X008883Y001104D01*
X008885Y001096D01*
X008887Y001089D01*
X008888Y001080D01*
X008888Y001071D01*
X008889Y001061D01*
Y001061D01*
Y001060D01*
Y001058D01*
Y001055D01*
X008888Y001052D01*
Y001049D01*
X008887Y001040D01*
X008886Y001030D01*
X008884Y001020D01*
X008881Y001009D01*
X008877Y000999D01*
Y000998D01*
X008876Y000997D01*
X008875Y000994D01*
X008872Y000989D01*
X008868Y000983D01*
X008864Y000977D01*
X008858Y000970D01*
X008852Y000964D01*
X008844Y000958D01*
X008843Y000958D01*
X008840Y000956D01*
X008836Y000954D01*
X008830Y000952D01*
X008824Y000949D01*
X008816Y000947D01*
X008807Y000946D01*
X008798Y000945D01*
X008794D01*
X008790Y000946D01*
X008784Y000946D01*
X008778Y000947D01*
X008771Y000949D01*
X008765Y000951D01*
X008758Y000954D01*
X008757Y000955D01*
X008756Y000956D01*
X008753Y000958D01*
X008749Y000960D01*
X008745Y000964D01*
X008739Y000969D01*
X008734Y000975D01*
X008728Y000982D01*
Y000950D01*
X008650D01*
Y001249D01*
X008734D01*
Y001145D01*
D02*
G37*
G36*
X006659Y001167D02*
X006705D01*
Y001106D01*
X006659D01*
Y001029D01*
Y001029D01*
Y001027D01*
Y001024D01*
X006660Y001022D01*
X006661Y001016D01*
X006661Y001013D01*
X006662Y001011D01*
X006663Y001010D01*
X006665Y001007D01*
X006669Y001005D01*
X006673Y001005D01*
X006676Y001004D01*
X006677D01*
X006680Y001005D01*
X006682D01*
X006686Y001005D01*
X006691Y001006D01*
X006695Y001007D01*
X006701Y001009D01*
X006708Y000952D01*
X006706D01*
X006705Y000951D01*
X006703Y000951D01*
X006697Y000949D01*
X006689Y000948D01*
X006680Y000947D01*
X006670Y000946D01*
X006661Y000946D01*
X006650Y000945D01*
X006645D01*
X006640Y000946D01*
X006633Y000946D01*
X006625Y000947D01*
X006618Y000948D01*
X006610Y000950D01*
X006604Y000953D01*
X006604Y000953D01*
X006602Y000954D01*
X006599Y000956D01*
X006596Y000959D01*
X006592Y000962D01*
X006589Y000966D01*
X006585Y000971D01*
X006582Y000977D01*
Y000977D01*
X006581Y000980D01*
X006580Y000984D01*
X006579Y000989D01*
X006578Y000997D01*
X006577Y001006D01*
X006576Y001017D01*
X006576Y001030D01*
Y001106D01*
X006545D01*
Y001167D01*
X006576D01*
Y001206D01*
X006659Y001249D01*
Y001167D01*
D02*
G37*
G36*
X005706Y001171D02*
X005711D01*
X005721Y001170D01*
X005733Y001168D01*
X005745Y001166D01*
X005757Y001162D01*
X005768Y001157D01*
X005768D01*
X005769Y001157D01*
X005772Y001155D01*
X005777Y001151D01*
X005783Y001147D01*
X005790Y001141D01*
X005797Y001134D01*
X005803Y001126D01*
X005809Y001117D01*
Y001116D01*
X005810Y001115D01*
X005810Y001114D01*
X005811Y001112D01*
X005813Y001109D01*
X005814Y001106D01*
X005816Y001098D01*
X005819Y001088D01*
X005821Y001076D01*
X005823Y001062D01*
X005823Y001047D01*
Y001038D01*
X005657D01*
Y001037D01*
X005658Y001035D01*
X005658Y001031D01*
X005659Y001026D01*
X005662Y001017D01*
X005665Y001012D01*
X005667Y001008D01*
X005668Y001007D01*
X005670Y001006D01*
X005672Y001004D01*
X005676Y001001D01*
X005680Y000998D01*
X005686Y000996D01*
X005692Y000994D01*
X005699Y000994D01*
X005701D01*
X005703Y000994D01*
X005707D01*
X005714Y000996D01*
X005718Y000997D01*
X005722Y001000D01*
X005722D01*
X005723Y001000D01*
X005726Y001003D01*
X005728Y001005D01*
X005731Y001007D01*
X005734Y001010D01*
X005737Y001014D01*
X005819Y001006D01*
Y001006D01*
X005817Y001005D01*
X005816Y001003D01*
X005815Y001001D01*
X005811Y000995D01*
X005805Y000988D01*
X005799Y000981D01*
X005791Y000972D01*
X005783Y000965D01*
X005773Y000959D01*
X005772D01*
X005772Y000959D01*
X005770Y000958D01*
X005768Y000957D01*
X005765Y000956D01*
X005762Y000955D01*
X005758Y000953D01*
X005754Y000952D01*
X005748Y000951D01*
X005743Y000949D01*
X005737Y000948D01*
X005730Y000947D01*
X005722Y000946D01*
X005714Y000946D01*
X005706Y000945D01*
X005690D01*
X005686Y000946D01*
X005682D01*
X005672Y000947D01*
X005661Y000948D01*
X005650Y000950D01*
X005639Y000953D01*
X005629Y000957D01*
X005628Y000958D01*
X005625Y000959D01*
X005620Y000963D01*
X005615Y000966D01*
X005608Y000972D01*
X005601Y000978D01*
X005595Y000986D01*
X005588Y000995D01*
Y000996D01*
X005588Y000996D01*
X005587Y000998D01*
X005586Y001000D01*
X005583Y001006D01*
X005581Y001013D01*
X005577Y001022D01*
X005575Y001033D01*
X005573Y001044D01*
X005572Y001058D01*
Y001058D01*
Y001060D01*
Y001062D01*
X005573Y001066D01*
X005573Y001070D01*
X005574Y001076D01*
X005575Y001081D01*
X005576Y001087D01*
X005580Y001100D01*
X005583Y001107D01*
X005586Y001114D01*
X005590Y001121D01*
X005594Y001127D01*
X005599Y001134D01*
X005605Y001140D01*
X005605Y001141D01*
X005606Y001142D01*
X005608Y001143D01*
X005611Y001145D01*
X005614Y001147D01*
X005618Y001150D01*
X005623Y001153D01*
X005628Y001156D01*
X005634Y001159D01*
X005641Y001162D01*
X005648Y001165D01*
X005656Y001167D01*
X005665Y001169D01*
X005674Y001171D01*
X005684Y001171D01*
X005695Y001172D01*
X005702D01*
X005706Y001171D01*
D02*
G37*
G36*
X007263Y001167D02*
X007309D01*
Y001106D01*
X007263D01*
Y001029D01*
Y001029D01*
Y001027D01*
Y001024D01*
X007264Y001022D01*
X007264Y001016D01*
X007265Y001013D01*
X007265Y001011D01*
X007267Y001010D01*
X007269Y001007D01*
X007273Y001005D01*
X007276Y001005D01*
X007280Y001004D01*
X007281D01*
X007283Y001005D01*
X007286D01*
X007290Y001005D01*
X007294Y001006D01*
X007299Y001007D01*
X007305Y001009D01*
X007312Y000952D01*
X007310D01*
X007309Y000951D01*
X007306Y000951D01*
X007300Y000949D01*
X007293Y000948D01*
X007284Y000947D01*
X007274Y000946D01*
X007264Y000946D01*
X007254Y000945D01*
X007249D01*
X007244Y000946D01*
X007237Y000946D01*
X007229Y000947D01*
X007222Y000948D01*
X007214Y000950D01*
X007208Y000953D01*
X007208Y000953D01*
X007206Y000954D01*
X007203Y000956D01*
X007200Y000959D01*
X007196Y000962D01*
X007193Y000966D01*
X007189Y000971D01*
X007186Y000977D01*
Y000977D01*
X007185Y000980D01*
X007184Y000984D01*
X007183Y000989D01*
X007182Y000997D01*
X007181Y001006D01*
X007180Y001017D01*
X007180Y001030D01*
Y001106D01*
X007149D01*
Y001167D01*
X007180D01*
Y001206D01*
X007263Y001249D01*
Y001167D01*
D02*
G37*
G36*
X008076Y001171D02*
X008081D01*
X008091Y001170D01*
X008102Y001168D01*
X008115Y001166D01*
X008127Y001162D01*
X008137Y001157D01*
X008138D01*
X008139Y001157D01*
X008142Y001155D01*
X008147Y001151D01*
X008153Y001147D01*
X008160Y001141D01*
X008166Y001134D01*
X008173Y001126D01*
X008179Y001117D01*
Y001116D01*
X008179Y001115D01*
X008180Y001114D01*
X008181Y001112D01*
X008182Y001109D01*
X008183Y001106D01*
X008186Y001098D01*
X008189Y001088D01*
X008191Y001076D01*
X008193Y001062D01*
X008193Y001047D01*
Y001038D01*
X008027D01*
Y001037D01*
X008027Y001035D01*
X008028Y001031D01*
X008029Y001026D01*
X008032Y001017D01*
X008034Y001012D01*
X008037Y001008D01*
X008038Y001007D01*
X008039Y001006D01*
X008042Y001004D01*
X008046Y001001D01*
X008050Y000998D01*
X008056Y000996D01*
X008062Y000994D01*
X008069Y000994D01*
X008071D01*
X008073Y000994D01*
X008076D01*
X008083Y000996D01*
X008087Y000997D01*
X008092Y001000D01*
X008092D01*
X008093Y001000D01*
X008096Y001003D01*
X008098Y001005D01*
X008100Y001007D01*
X008104Y001010D01*
X008106Y001014D01*
X008188Y001006D01*
Y001006D01*
X008187Y001005D01*
X008186Y001003D01*
X008185Y001001D01*
X008181Y000995D01*
X008175Y000988D01*
X008169Y000981D01*
X008161Y000972D01*
X008152Y000965D01*
X008142Y000959D01*
X008142D01*
X008141Y000959D01*
X008140Y000958D01*
X008137Y000957D01*
X008135Y000956D01*
X008131Y000955D01*
X008128Y000953D01*
X008123Y000952D01*
X008118Y000951D01*
X008112Y000949D01*
X008106Y000948D01*
X008099Y000947D01*
X008092Y000946D01*
X008084Y000946D01*
X008076Y000945D01*
X008059D01*
X008056Y000946D01*
X008052D01*
X008042Y000947D01*
X008031Y000948D01*
X008019Y000950D01*
X008009Y000953D01*
X007999Y000957D01*
X007998Y000958D01*
X007995Y000959D01*
X007990Y000963D01*
X007985Y000966D01*
X007978Y000972D01*
X007971Y000978D01*
X007964Y000986D01*
X007958Y000995D01*
Y000996D01*
X007957Y000996D01*
X007956Y000998D01*
X007956Y001000D01*
X007953Y001006D01*
X007950Y001013D01*
X007947Y001022D01*
X007945Y001033D01*
X007943Y001044D01*
X007942Y001058D01*
Y001058D01*
Y001060D01*
Y001062D01*
X007943Y001066D01*
X007943Y001070D01*
X007944Y001076D01*
X007945Y001081D01*
X007946Y001087D01*
X007950Y001100D01*
X007952Y001107D01*
X007956Y001114D01*
X007959Y001121D01*
X007964Y001127D01*
X007969Y001134D01*
X007974Y001140D01*
X007975Y001141D01*
X007976Y001142D01*
X007977Y001143D01*
X007980Y001145D01*
X007983Y001147D01*
X007988Y001150D01*
X007992Y001153D01*
X007998Y001156D01*
X008004Y001159D01*
X008011Y001162D01*
X008018Y001165D01*
X008026Y001167D01*
X008035Y001169D01*
X008044Y001171D01*
X008054Y001171D01*
X008064Y001172D01*
X008072D01*
X008076Y001171D01*
D02*
G37*
G36*
X007588Y001167D02*
X007634D01*
Y001106D01*
X007588D01*
Y001029D01*
Y001029D01*
Y001027D01*
Y001024D01*
X007589Y001022D01*
X007589Y001016D01*
X007590Y001013D01*
X007590Y001011D01*
X007591Y001010D01*
X007594Y001007D01*
X007598Y001005D01*
X007601Y001005D01*
X007605Y001004D01*
X007606D01*
X007608Y001005D01*
X007611D01*
X007615Y001005D01*
X007619Y001006D01*
X007624Y001007D01*
X007630Y001009D01*
X007637Y000952D01*
X007635D01*
X007633Y000951D01*
X007631Y000951D01*
X007625Y000949D01*
X007618Y000948D01*
X007609Y000947D01*
X007599Y000946D01*
X007589Y000946D01*
X007579Y000945D01*
X007574D01*
X007569Y000946D01*
X007561Y000946D01*
X007554Y000947D01*
X007547Y000948D01*
X007539Y000950D01*
X007533Y000953D01*
X007532Y000953D01*
X007531Y000954D01*
X007528Y000956D01*
X007525Y000959D01*
X007521Y000962D01*
X007518Y000966D01*
X007514Y000971D01*
X007511Y000977D01*
Y000977D01*
X007510Y000980D01*
X007509Y000984D01*
X007508Y000989D01*
X007507Y000997D01*
X007506Y001006D01*
X007505Y001017D01*
X007505Y001030D01*
Y001106D01*
X007474D01*
Y001167D01*
X007505D01*
Y001206D01*
X007588Y001249D01*
Y001167D01*
D02*
G37*
G36*
X007121Y002017D02*
X007167D01*
Y001956D01*
X007121D01*
Y001879D01*
Y001879D01*
Y001877D01*
Y001874D01*
X007121Y001872D01*
X007122Y001866D01*
X007122Y001863D01*
X007123Y001861D01*
X007124Y001860D01*
X007126Y001857D01*
X007131Y001855D01*
X007134Y001855D01*
X007137Y001854D01*
X007139D01*
X007141Y001855D01*
X007144D01*
X007147Y001855D01*
X007152Y001856D01*
X007157Y001857D01*
X007163Y001859D01*
X007169Y001802D01*
X007168D01*
X007166Y001801D01*
X007164Y001801D01*
X007158Y001799D01*
X007150Y001798D01*
X007141Y001797D01*
X007132Y001796D01*
X007122Y001796D01*
X007111Y001795D01*
X007107D01*
X007101Y001796D01*
X007094Y001796D01*
X007086Y001797D01*
X007079Y001798D01*
X007072Y001800D01*
X007066Y001803D01*
X007065Y001803D01*
X007063Y001804D01*
X007061Y001806D01*
X007057Y001809D01*
X007054Y001812D01*
X007050Y001816D01*
X007046Y001821D01*
X007044Y001827D01*
Y001827D01*
X007043Y001830D01*
X007042Y001834D01*
X007040Y001839D01*
X007039Y001847D01*
X007038Y001856D01*
X007038Y001867D01*
X007037Y001880D01*
Y001956D01*
X007007D01*
Y002017D01*
X007037D01*
Y002056D01*
X007121Y002099D01*
Y002017D01*
D02*
G37*
G36*
X006865Y002021D02*
X006870D01*
X006880Y002020D01*
X006891Y002018D01*
X006903Y002016D01*
X006915Y002012D01*
X006926Y002007D01*
X006927D01*
X006927Y002007D01*
X006931Y002005D01*
X006936Y002001D01*
X006942Y001997D01*
X006949Y001991D01*
X006955Y001984D01*
X006962Y001976D01*
X006968Y001967D01*
Y001966D01*
X006968Y001965D01*
X006969Y001964D01*
X006970Y001962D01*
X006971Y001959D01*
X006972Y001956D01*
X006975Y001948D01*
X006978Y001938D01*
X006980Y001926D01*
X006981Y001912D01*
X006982Y001897D01*
Y001888D01*
X006816D01*
Y001887D01*
X006816Y001885D01*
X006817Y001881D01*
X006818Y001876D01*
X006821Y001867D01*
X006823Y001862D01*
X006826Y001858D01*
X006826Y001857D01*
X006828Y001856D01*
X006831Y001854D01*
X006835Y001851D01*
X006839Y001848D01*
X006844Y001846D01*
X006850Y001844D01*
X006858Y001844D01*
X006860D01*
X006862Y001844D01*
X006865D01*
X006872Y001846D01*
X006876Y001848D01*
X006880Y001850D01*
X006881D01*
X006882Y001850D01*
X006885Y001853D01*
X006887Y001855D01*
X006889Y001857D01*
X006892Y001860D01*
X006895Y001864D01*
X006977Y001856D01*
Y001856D01*
X006976Y001855D01*
X006975Y001853D01*
X006974Y001851D01*
X006969Y001845D01*
X006964Y001838D01*
X006957Y001831D01*
X006950Y001822D01*
X006941Y001815D01*
X006931Y001809D01*
X006931D01*
X006930Y001809D01*
X006929Y001808D01*
X006926Y001807D01*
X006924Y001806D01*
X006920Y001805D01*
X006917Y001803D01*
X006912Y001802D01*
X006907Y001801D01*
X006901Y001799D01*
X006895Y001798D01*
X006888Y001797D01*
X006881Y001796D01*
X006873Y001796D01*
X006865Y001795D01*
X006848D01*
X006844Y001796D01*
X006841D01*
X006831Y001797D01*
X006820Y001798D01*
X006808Y001800D01*
X006798Y001803D01*
X006788Y001807D01*
X006787Y001808D01*
X006784Y001809D01*
X006779Y001813D01*
X006773Y001816D01*
X006767Y001822D01*
X006760Y001828D01*
X006753Y001836D01*
X006747Y001845D01*
Y001846D01*
X006746Y001846D01*
X006745Y001848D01*
X006745Y001850D01*
X006742Y001856D01*
X006739Y001863D01*
X006736Y001872D01*
X006734Y001883D01*
X006731Y001894D01*
X006731Y001908D01*
Y001908D01*
Y001910D01*
Y001912D01*
X006731Y001916D01*
X006732Y001920D01*
X006733Y001926D01*
X006734Y001931D01*
X006735Y001937D01*
X006739Y001950D01*
X006741Y001957D01*
X006745Y001964D01*
X006748Y001971D01*
X006753Y001977D01*
X006758Y001984D01*
X006763Y001990D01*
X006764Y001991D01*
X006765Y001992D01*
X006766Y001993D01*
X006769Y001995D01*
X006772Y001997D01*
X006777Y002000D01*
X006781Y002003D01*
X006787Y002006D01*
X006793Y002009D01*
X006800Y002012D01*
X006807Y002015D01*
X006815Y002017D01*
X006824Y002019D01*
X006833Y002021D01*
X006843Y002021D01*
X006853Y002022D01*
X006861D01*
X006865Y002021D01*
D02*
G37*
G36*
X008445D02*
X008450D01*
X008460Y002020D01*
X008472Y002018D01*
X008484Y002016D01*
X008496Y002012D01*
X008506Y002007D01*
X008507D01*
X008508Y002007D01*
X008511Y002005D01*
X008516Y002001D01*
X008522Y001997D01*
X008529Y001991D01*
X008535Y001984D01*
X008542Y001976D01*
X008548Y001967D01*
Y001966D01*
X008549Y001965D01*
X008549Y001964D01*
X008550Y001962D01*
X008551Y001959D01*
X008552Y001956D01*
X008555Y001948D01*
X008558Y001938D01*
X008560Y001926D01*
X008562Y001912D01*
X008562Y001897D01*
Y001888D01*
X008396D01*
Y001887D01*
X008396Y001885D01*
X008397Y001881D01*
X008398Y001876D01*
X008401Y001867D01*
X008403Y001862D01*
X008406Y001858D01*
X008407Y001857D01*
X008408Y001856D01*
X008411Y001854D01*
X008415Y001851D01*
X008419Y001848D01*
X008425Y001846D01*
X008431Y001844D01*
X008438Y001844D01*
X008440D01*
X008442Y001844D01*
X008445D01*
X008452Y001846D01*
X008456Y001848D01*
X008461Y001850D01*
X008461D01*
X008462Y001850D01*
X008465Y001853D01*
X008467Y001855D01*
X008469Y001857D01*
X008473Y001860D01*
X008475Y001864D01*
X008557Y001856D01*
Y001856D01*
X008556Y001855D01*
X008555Y001853D01*
X008554Y001851D01*
X008550Y001845D01*
X008544Y001838D01*
X008538Y001831D01*
X008530Y001822D01*
X008521Y001815D01*
X008511Y001809D01*
X008511D01*
X008510Y001809D01*
X008509Y001808D01*
X008506Y001807D01*
X008504Y001806D01*
X008500Y001805D01*
X008497Y001803D01*
X008492Y001802D01*
X008487Y001801D01*
X008481Y001799D01*
X008475Y001798D01*
X008468Y001797D01*
X008461Y001796D01*
X008453Y001796D01*
X008445Y001795D01*
X008428D01*
X008425Y001796D01*
X008421D01*
X008411Y001797D01*
X008400Y001798D01*
X008389Y001800D01*
X008378Y001803D01*
X008368Y001807D01*
X008367Y001808D01*
X008364Y001809D01*
X008359Y001813D01*
X008354Y001816D01*
X008347Y001822D01*
X008340Y001828D01*
X008333Y001836D01*
X008327Y001845D01*
Y001846D01*
X008326Y001846D01*
X008325Y001848D01*
X008325Y001850D01*
X008322Y001856D01*
X008319Y001863D01*
X008316Y001872D01*
X008314Y001883D01*
X008312Y001894D01*
X008311Y001908D01*
Y001908D01*
Y001910D01*
Y001912D01*
X008312Y001916D01*
X008312Y001920D01*
X008313Y001926D01*
X008314Y001931D01*
X008315Y001937D01*
X008319Y001950D01*
X008321Y001957D01*
X008325Y001964D01*
X008328Y001971D01*
X008333Y001977D01*
X008338Y001984D01*
X008343Y001990D01*
X008344Y001991D01*
X008345Y001992D01*
X008346Y001993D01*
X008349Y001995D01*
X008353Y001997D01*
X008357Y002000D01*
X008361Y002003D01*
X008367Y002006D01*
X008373Y002009D01*
X008380Y002012D01*
X008387Y002015D01*
X008395Y002017D01*
X008404Y002019D01*
X008413Y002021D01*
X008423Y002021D01*
X008433Y002022D01*
X008441D01*
X008445Y002021D01*
D02*
G37*
G36*
X002912Y002099D02*
X002916D01*
X002921Y002098D01*
X002932Y002096D01*
X002944Y002093D01*
X002956Y002089D01*
X002968Y002083D01*
X002974Y002080D01*
X002979Y002075D01*
X002979D01*
X002980Y002074D01*
X002981Y002072D01*
X002983Y002071D01*
X002987Y002065D01*
X002991Y002058D01*
X002996Y002048D01*
X003000Y002036D01*
X003003Y002023D01*
X003004Y002016D01*
Y002007D01*
Y002007D01*
Y002005D01*
Y002003D01*
X003003Y002000D01*
Y001996D01*
X003002Y001992D01*
X003001Y001982D01*
X002997Y001970D01*
X002992Y001958D01*
X002989Y001952D01*
X002986Y001947D01*
X002982Y001941D01*
X002977Y001937D01*
X002976D01*
X002975Y001935D01*
X002974Y001934D01*
X002972Y001933D01*
X002968Y001930D01*
X002965Y001928D01*
X002961Y001926D01*
X002956Y001924D01*
X002950Y001922D01*
X002944Y001920D01*
X002937Y001917D01*
X002930Y001915D01*
X002921Y001914D01*
X002913Y001912D01*
X002903Y001912D01*
X002893Y001911D01*
X002843D01*
Y001800D01*
X002750D01*
Y002099D01*
X002908D01*
X002912Y002099D01*
D02*
G37*
G36*
X009538Y002017D02*
X009584D01*
Y001956D01*
X009538D01*
Y001879D01*
Y001879D01*
Y001877D01*
Y001874D01*
X009538Y001872D01*
X009539Y001866D01*
X009540Y001863D01*
X009540Y001861D01*
X009541Y001860D01*
X009543Y001857D01*
X009548Y001855D01*
X009551Y001855D01*
X009554Y001854D01*
X009556D01*
X009558Y001855D01*
X009561D01*
X009565Y001855D01*
X009569Y001856D01*
X009574Y001857D01*
X009580Y001859D01*
X009586Y001802D01*
X009585D01*
X009583Y001801D01*
X009581Y001801D01*
X009575Y001799D01*
X009567Y001798D01*
X009559Y001797D01*
X009549Y001796D01*
X009539Y001796D01*
X009529Y001795D01*
X009524D01*
X009518Y001796D01*
X009511Y001796D01*
X009503Y001797D01*
X009496Y001798D01*
X009489Y001800D01*
X009483Y001803D01*
X009482Y001803D01*
X009481Y001804D01*
X009478Y001806D01*
X009475Y001809D01*
X009471Y001812D01*
X009467Y001816D01*
X009464Y001821D01*
X009461Y001827D01*
Y001827D01*
X009460Y001830D01*
X009459Y001834D01*
X009458Y001839D01*
X009457Y001847D01*
X009455Y001856D01*
X009455Y001867D01*
X009454Y001880D01*
Y001956D01*
X009424D01*
Y002017D01*
X009454D01*
Y002056D01*
X009538Y002099D01*
Y002017D01*
D02*
G37*
G36*
X006169Y002021D02*
X006173Y002021D01*
X006180Y002019D01*
X006187Y002018D01*
X006194Y002017D01*
X006202Y002015D01*
X006210Y002012D01*
X006218Y002009D01*
X006226Y002006D01*
X006235Y002001D01*
X006242Y001996D01*
X006249Y001990D01*
X006256Y001983D01*
X006256Y001983D01*
X006257Y001982D01*
X006259Y001980D01*
X006260Y001978D01*
X006262Y001975D01*
X006265Y001971D01*
X006267Y001968D01*
X006270Y001963D01*
X006274Y001952D01*
X006279Y001939D01*
X006282Y001924D01*
X006283Y001917D01*
X006283Y001909D01*
Y001908D01*
Y001906D01*
Y001904D01*
X006283Y001900D01*
X006282Y001896D01*
X006282Y001891D01*
X006280Y001886D01*
X006279Y001880D01*
X006275Y001867D01*
X006272Y001860D01*
X006269Y001853D01*
X006265Y001846D01*
X006261Y001839D01*
X006256Y001833D01*
X006250Y001827D01*
X006249Y001826D01*
X006248Y001826D01*
X006247Y001824D01*
X006244Y001822D01*
X006241Y001820D01*
X006236Y001817D01*
X006231Y001814D01*
X006226Y001811D01*
X006220Y001808D01*
X006213Y001805D01*
X006205Y001802D01*
X006197Y001800D01*
X006188Y001798D01*
X006178Y001797D01*
X006169Y001796D01*
X006158Y001795D01*
X006153D01*
X006149Y001796D01*
X006144D01*
X006140Y001797D01*
X006134Y001797D01*
X006128Y001798D01*
X006114Y001802D01*
X006100Y001806D01*
X006086Y001813D01*
X006079Y001817D01*
X006073Y001821D01*
X006072Y001822D01*
X006071Y001823D01*
X006069Y001825D01*
X006067Y001827D01*
X006064Y001831D01*
X006060Y001834D01*
X006057Y001839D01*
X006053Y001844D01*
X006049Y001850D01*
X006046Y001857D01*
X006043Y001864D01*
X006040Y001872D01*
X006037Y001880D01*
X006035Y001888D01*
X006034Y001898D01*
X006034Y001908D01*
Y001908D01*
Y001910D01*
Y001912D01*
X006034Y001916D01*
X006035Y001920D01*
X006035Y001925D01*
X006036Y001930D01*
X006038Y001937D01*
X006042Y001950D01*
X006045Y001956D01*
X006048Y001963D01*
X006052Y001970D01*
X006056Y001977D01*
X006061Y001983D01*
X006067Y001989D01*
X006068Y001990D01*
X006069Y001991D01*
X006070Y001992D01*
X006073Y001994D01*
X006076Y001997D01*
X006081Y002000D01*
X006086Y002003D01*
X006091Y002006D01*
X006097Y002009D01*
X006104Y002011D01*
X006111Y002014D01*
X006119Y002017D01*
X006128Y002019D01*
X006137Y002020D01*
X006147Y002021D01*
X006158Y002022D01*
X006164D01*
X006169Y002021D01*
D02*
G37*
G36*
X003426Y002017D02*
X003472D01*
Y001956D01*
X003426D01*
Y001879D01*
Y001879D01*
Y001877D01*
Y001874D01*
X003427Y001872D01*
X003428Y001866D01*
X003428Y001863D01*
X003429Y001861D01*
X003430Y001860D01*
X003432Y001857D01*
X003436Y001855D01*
X003440Y001855D01*
X003443Y001854D01*
X003445D01*
X003447Y001855D01*
X003449D01*
X003453Y001855D01*
X003458Y001856D01*
X003463Y001857D01*
X003469Y001859D01*
X003475Y001802D01*
X003473D01*
X003472Y001801D01*
X003470Y001801D01*
X003464Y001799D01*
X003456Y001798D01*
X003447Y001797D01*
X003437Y001796D01*
X003428Y001796D01*
X003417Y001795D01*
X003412D01*
X003407Y001796D01*
X003400Y001796D01*
X003392Y001797D01*
X003385Y001798D01*
X003377Y001800D01*
X003371Y001803D01*
X003371Y001803D01*
X003369Y001804D01*
X003366Y001806D01*
X003363Y001809D01*
X003359Y001812D01*
X003356Y001816D01*
X003352Y001821D01*
X003350Y001827D01*
Y001827D01*
X003348Y001830D01*
X003347Y001834D01*
X003346Y001839D01*
X003345Y001847D01*
X003344Y001856D01*
X003343Y001867D01*
X003343Y001880D01*
Y001956D01*
X003312D01*
Y002017D01*
X003343D01*
Y002056D01*
X003426Y002099D01*
Y002017D01*
D02*
G37*
G36*
X007990Y002021D02*
X007996Y002021D01*
X008003Y002019D01*
X008010Y002018D01*
X008017Y002016D01*
X008023Y002013D01*
X008024Y002012D01*
X008026Y002011D01*
X008029Y002009D01*
X008033Y002006D01*
X008038Y002002D01*
X008043Y001997D01*
X008048Y001992D01*
X008054Y001985D01*
Y002017D01*
X008132D01*
Y001812D01*
Y001802D01*
Y001801D01*
Y001799D01*
X008131Y001795D01*
X008131Y001790D01*
X008130Y001784D01*
X008128Y001778D01*
X008126Y001771D01*
X008123Y001764D01*
X008123Y001763D01*
X008122Y001761D01*
X008120Y001757D01*
X008117Y001753D01*
X008114Y001749D01*
X008110Y001743D01*
X008105Y001738D01*
X008100Y001734D01*
X008099Y001733D01*
X008097Y001732D01*
X008094Y001730D01*
X008090Y001727D01*
X008084Y001725D01*
X008078Y001722D01*
X008071Y001720D01*
X008063Y001718D01*
X008062D01*
X008059Y001716D01*
X008055Y001716D01*
X008049Y001715D01*
X008041Y001714D01*
X008033Y001713D01*
X008023Y001712D01*
X008007D01*
X008003Y001713D01*
X007997D01*
X007991Y001713D01*
X007984Y001714D01*
X007977Y001715D01*
X007962Y001717D01*
X007947Y001720D01*
X007940Y001722D01*
X007934Y001725D01*
X007928Y001728D01*
X007923Y001732D01*
X007922Y001733D01*
X007919Y001736D01*
X007915Y001740D01*
X007911Y001746D01*
X007906Y001753D01*
X007903Y001762D01*
X007900Y001773D01*
X007899Y001778D01*
X007899Y001784D01*
Y001785D01*
Y001787D01*
Y001791D01*
Y001795D01*
X007980Y001786D01*
Y001785D01*
X007980Y001784D01*
X007981Y001782D01*
X007982Y001780D01*
X007984Y001775D01*
X007987Y001773D01*
X007989Y001771D01*
X007989D01*
X007991Y001769D01*
X007993Y001768D01*
X007995Y001767D01*
X007999Y001766D01*
X008003Y001765D01*
X008007Y001765D01*
X008012Y001764D01*
X008015D01*
X008018Y001765D01*
X008022Y001765D01*
X008027Y001766D01*
X008031Y001768D01*
X008035Y001771D01*
X008039Y001774D01*
X008040Y001774D01*
X008041Y001776D01*
X008042Y001778D01*
X008044Y001781D01*
X008046Y001786D01*
X008047Y001792D01*
X008048Y001798D01*
X008048Y001807D01*
Y001839D01*
X008048Y001839D01*
X008046Y001837D01*
X008044Y001834D01*
X008041Y001832D01*
X008037Y001828D01*
X008033Y001825D01*
X008028Y001821D01*
X008024Y001819D01*
X008023Y001818D01*
X008021Y001817D01*
X008016Y001815D01*
X008011Y001814D01*
X008005Y001812D01*
X007998Y001810D01*
X007990Y001809D01*
X007982Y001809D01*
X007977D01*
X007975Y001809D01*
X007971Y001810D01*
X007966Y001811D01*
X007957Y001814D01*
X007951Y001815D01*
X007946Y001818D01*
X007940Y001821D01*
X007934Y001825D01*
X007928Y001829D01*
X007922Y001834D01*
X007917Y001840D01*
X007911Y001846D01*
Y001847D01*
X007911Y001848D01*
X007910Y001849D01*
X007909Y001851D01*
X007907Y001854D01*
X007905Y001857D01*
X007904Y001861D01*
X007902Y001866D01*
X007899Y001876D01*
X007896Y001888D01*
X007893Y001902D01*
X007893Y001918D01*
Y001918D01*
Y001920D01*
Y001923D01*
X007893Y001926D01*
Y001930D01*
X007894Y001935D01*
X007896Y001946D01*
X007899Y001959D01*
X007903Y001971D01*
X007909Y001984D01*
X007912Y001989D01*
X007917Y001995D01*
X007917Y001995D01*
X007918Y001996D01*
X007920Y001998D01*
X007921Y001999D01*
X007927Y002004D01*
X007934Y002009D01*
X007944Y002013D01*
X007954Y002017D01*
X007967Y002021D01*
X007974Y002021D01*
X007981Y002022D01*
X007986D01*
X007990Y002021D01*
D02*
G37*
G36*
X003891Y002017D02*
X003936D01*
Y001956D01*
X003891D01*
Y001879D01*
Y001879D01*
Y001877D01*
Y001874D01*
X003891Y001872D01*
X003892Y001866D01*
X003892Y001863D01*
X003893Y001861D01*
X003894Y001860D01*
X003896Y001857D01*
X003900Y001855D01*
X003904Y001855D01*
X003907Y001854D01*
X003909D01*
X003911Y001855D01*
X003914D01*
X003917Y001855D01*
X003922Y001856D01*
X003927Y001857D01*
X003933Y001859D01*
X003939Y001802D01*
X003938D01*
X003936Y001801D01*
X003934Y001801D01*
X003928Y001799D01*
X003920Y001798D01*
X003911Y001797D01*
X003902Y001796D01*
X003892Y001796D01*
X003881Y001795D01*
X003876D01*
X003871Y001796D01*
X003864Y001796D01*
X003856Y001797D01*
X003849Y001798D01*
X003841Y001800D01*
X003835Y001803D01*
X003835Y001803D01*
X003833Y001804D01*
X003831Y001806D01*
X003827Y001809D01*
X003823Y001812D01*
X003820Y001816D01*
X003816Y001821D01*
X003814Y001827D01*
Y001827D01*
X003813Y001830D01*
X003811Y001834D01*
X003810Y001839D01*
X003809Y001847D01*
X003808Y001856D01*
X003808Y001867D01*
X003807Y001880D01*
Y001956D01*
X003776D01*
Y002017D01*
X003807D01*
Y002056D01*
X003891Y002099D01*
Y002017D01*
D02*
G37*
G36*
X005494Y002021D02*
X005499D01*
X005509Y002020D01*
X005520Y002018D01*
X005532Y002016D01*
X005544Y002012D01*
X005555Y002007D01*
X005556D01*
X005556Y002007D01*
X005560Y002005D01*
X005565Y002001D01*
X005571Y001997D01*
X005578Y001991D01*
X005584Y001984D01*
X005591Y001976D01*
X005597Y001967D01*
Y001966D01*
X005597Y001965D01*
X005598Y001964D01*
X005599Y001962D01*
X005600Y001959D01*
X005601Y001956D01*
X005604Y001948D01*
X005607Y001938D01*
X005609Y001926D01*
X005610Y001912D01*
X005611Y001897D01*
Y001888D01*
X005445D01*
Y001887D01*
X005445Y001885D01*
X005446Y001881D01*
X005447Y001876D01*
X005450Y001867D01*
X005452Y001862D01*
X005455Y001858D01*
X005455Y001857D01*
X005457Y001856D01*
X005460Y001854D01*
X005464Y001851D01*
X005468Y001848D01*
X005473Y001846D01*
X005479Y001844D01*
X005487Y001844D01*
X005489D01*
X005491Y001844D01*
X005494D01*
X005501Y001846D01*
X005505Y001848D01*
X005509Y001850D01*
X005510D01*
X005511Y001850D01*
X005514Y001853D01*
X005516Y001855D01*
X005518Y001857D01*
X005522Y001860D01*
X005524Y001864D01*
X005606Y001856D01*
Y001856D01*
X005605Y001855D01*
X005604Y001853D01*
X005603Y001851D01*
X005598Y001845D01*
X005593Y001838D01*
X005586Y001831D01*
X005579Y001822D01*
X005570Y001815D01*
X005560Y001809D01*
X005560D01*
X005559Y001809D01*
X005558Y001808D01*
X005555Y001807D01*
X005553Y001806D01*
X005549Y001805D01*
X005546Y001803D01*
X005541Y001802D01*
X005536Y001801D01*
X005530Y001799D01*
X005524Y001798D01*
X005517Y001797D01*
X005510Y001796D01*
X005502Y001796D01*
X005494Y001795D01*
X005477D01*
X005473Y001796D01*
X005470D01*
X005460Y001797D01*
X005449Y001798D01*
X005437Y001800D01*
X005426Y001803D01*
X005417Y001807D01*
X005416Y001808D01*
X005413Y001809D01*
X005408Y001813D01*
X005402Y001816D01*
X005396Y001822D01*
X005389Y001828D01*
X005382Y001836D01*
X005376Y001845D01*
Y001846D01*
X005375Y001846D01*
X005374Y001848D01*
X005374Y001850D01*
X005371Y001856D01*
X005368Y001863D01*
X005365Y001872D01*
X005363Y001883D01*
X005360Y001894D01*
X005360Y001908D01*
Y001908D01*
Y001910D01*
Y001912D01*
X005360Y001916D01*
X005361Y001920D01*
X005362Y001926D01*
X005363Y001931D01*
X005364Y001937D01*
X005368Y001950D01*
X005370Y001957D01*
X005374Y001964D01*
X005377Y001971D01*
X005382Y001977D01*
X005387Y001984D01*
X005392Y001990D01*
X005393Y001991D01*
X005394Y001992D01*
X005395Y001993D01*
X005398Y001995D01*
X005401Y001997D01*
X005406Y002000D01*
X005410Y002003D01*
X005416Y002006D01*
X005422Y002009D01*
X005429Y002012D01*
X005436Y002015D01*
X005444Y002017D01*
X005453Y002019D01*
X005462Y002021D01*
X005472Y002021D01*
X005482Y002022D01*
X005490D01*
X005494Y002021D01*
D02*
G37*
G36*
X004100D02*
X004105Y002021D01*
X004112Y002019D01*
X004119Y002018D01*
X004126Y002017D01*
X004134Y002015D01*
X004142Y002012D01*
X004150Y002009D01*
X004158Y002006D01*
X004166Y002001D01*
X004174Y001996D01*
X004181Y001990D01*
X004188Y001983D01*
X004188Y001983D01*
X004189Y001982D01*
X004190Y001980D01*
X004192Y001978D01*
X004194Y001975D01*
X004196Y001971D01*
X004199Y001968D01*
X004201Y001963D01*
X004206Y001952D01*
X004211Y001939D01*
X004214Y001924D01*
X004214Y001917D01*
X004215Y001909D01*
Y001908D01*
Y001906D01*
Y001904D01*
X004214Y001900D01*
X004214Y001896D01*
X004213Y001891D01*
X004212Y001886D01*
X004211Y001880D01*
X004207Y001867D01*
X004204Y001860D01*
X004201Y001853D01*
X004197Y001846D01*
X004193Y001839D01*
X004188Y001833D01*
X004182Y001827D01*
X004181Y001826D01*
X004180Y001826D01*
X004178Y001824D01*
X004176Y001822D01*
X004172Y001820D01*
X004168Y001817D01*
X004163Y001814D01*
X004158Y001811D01*
X004152Y001808D01*
X004144Y001805D01*
X004137Y001802D01*
X004129Y001800D01*
X004120Y001798D01*
X004110Y001797D01*
X004100Y001796D01*
X004089Y001795D01*
X004084D01*
X004081Y001796D01*
X004076D01*
X004071Y001797D01*
X004065Y001797D01*
X004059Y001798D01*
X004046Y001802D01*
X004031Y001806D01*
X004018Y001813D01*
X004011Y001817D01*
X004005Y001821D01*
X004004Y001822D01*
X004003Y001823D01*
X004001Y001825D01*
X003999Y001827D01*
X003995Y001831D01*
X003992Y001834D01*
X003989Y001839D01*
X003985Y001844D01*
X003981Y001850D01*
X003978Y001857D01*
X003975Y001864D01*
X003971Y001872D01*
X003969Y001880D01*
X003967Y001888D01*
X003966Y001898D01*
X003965Y001908D01*
Y001908D01*
Y001910D01*
Y001912D01*
X003966Y001916D01*
X003966Y001920D01*
X003967Y001925D01*
X003968Y001930D01*
X003970Y001937D01*
X003974Y001950D01*
X003976Y001956D01*
X003980Y001963D01*
X003983Y001970D01*
X003988Y001977D01*
X003993Y001983D01*
X003999Y001989D01*
X003999Y001990D01*
X004000Y001991D01*
X004002Y001992D01*
X004005Y001994D01*
X004008Y001997D01*
X004012Y002000D01*
X004017Y002003D01*
X004023Y002006D01*
X004029Y002009D01*
X004035Y002011D01*
X004043Y002014D01*
X004051Y002017D01*
X004060Y002019D01*
X004069Y002020D01*
X004079Y002021D01*
X004089Y002022D01*
X004095D01*
X004100Y002021D01*
D02*
G37*
G36*
X003276Y001800D02*
X003198D01*
Y001835D01*
X003198Y001834D01*
X003196Y001832D01*
X003192Y001827D01*
X003187Y001823D01*
X003182Y001818D01*
X003176Y001813D01*
X003169Y001808D01*
X003163Y001804D01*
X003162Y001803D01*
X003160Y001803D01*
X003156Y001801D01*
X003151Y001799D01*
X003145Y001798D01*
X003137Y001797D01*
X003129Y001796D01*
X003120Y001795D01*
X003116D01*
X003114Y001796D01*
X003108Y001796D01*
X003100Y001798D01*
X003091Y001800D01*
X003083Y001804D01*
X003074Y001809D01*
X003066Y001815D01*
X003065Y001816D01*
X003063Y001819D01*
X003060Y001824D01*
X003056Y001831D01*
X003052Y001840D01*
X003050Y001851D01*
X003048Y001864D01*
X003046Y001879D01*
Y002017D01*
X003130D01*
Y001897D01*
Y001896D01*
Y001894D01*
X003131Y001890D01*
X003131Y001886D01*
X003133Y001876D01*
X003135Y001872D01*
X003137Y001868D01*
X003138Y001868D01*
X003139Y001867D01*
X003140Y001866D01*
X003143Y001864D01*
X003146Y001863D01*
X003149Y001861D01*
X003153Y001861D01*
X003158Y001860D01*
X003161D01*
X003164Y001861D01*
X003167Y001862D01*
X003171Y001863D01*
X003175Y001864D01*
X003179Y001867D01*
X003183Y001871D01*
X003184Y001872D01*
X003185Y001873D01*
X003186Y001876D01*
X003188Y001880D01*
X003190Y001886D01*
X003191Y001893D01*
X003192Y001902D01*
X003193Y001912D01*
Y002017D01*
X003276D01*
Y001800D01*
D02*
G37*
G36*
X009709D02*
X009626D01*
Y002099D01*
X009709D01*
Y001800D01*
D02*
G37*
G36*
X009908Y001785D02*
Y001785D01*
X009907Y001784D01*
X009906Y001781D01*
X009905Y001779D01*
X009902Y001772D01*
X009898Y001764D01*
X009894Y001755D01*
X009888Y001746D01*
X009883Y001738D01*
X009880Y001734D01*
X009877Y001732D01*
X009876Y001731D01*
X009874Y001728D01*
X009868Y001726D01*
X009861Y001722D01*
X009852Y001718D01*
X009841Y001715D01*
X009827Y001713D01*
X009820Y001712D01*
X009808D01*
X009804Y001713D01*
X009798D01*
X009790Y001713D01*
X009781Y001714D01*
X009769Y001715D01*
X009756Y001717D01*
X009750Y001775D01*
X009751D01*
X009753Y001774D01*
X009757Y001774D01*
X009762Y001773D01*
X009767Y001772D01*
X009774Y001771D01*
X009781Y001770D01*
X009790Y001769D01*
X009792D01*
X009794Y001770D01*
X009798Y001771D01*
X009806Y001773D01*
X009810Y001774D01*
X009814Y001777D01*
X009814Y001777D01*
X009815Y001778D01*
X009817Y001779D01*
X009819Y001782D01*
X009821Y001785D01*
X009824Y001789D01*
X009827Y001794D01*
X009829Y001800D01*
X009738Y002017D01*
X009826D01*
X009870Y001872D01*
X009912Y002017D01*
X009994D01*
X009908Y001785D01*
D02*
G37*
G36*
X005216Y002021D02*
X005221D01*
X005226Y002021D01*
X005232Y002020D01*
X005238Y002019D01*
X005251Y002017D01*
X005264Y002013D01*
X005277Y002009D01*
X005283Y002006D01*
X005288Y002003D01*
X005289D01*
X005289Y002001D01*
X005293Y001999D01*
X005298Y001994D01*
X005304Y001988D01*
X005310Y001981D01*
X005317Y001971D01*
X005323Y001960D01*
X005328Y001947D01*
X005250Y001937D01*
Y001937D01*
X005249Y001939D01*
X005248Y001941D01*
X005246Y001944D01*
X005242Y001951D01*
X005239Y001955D01*
X005236Y001957D01*
X005235Y001958D01*
X005234Y001958D01*
X005232Y001959D01*
X005229Y001961D01*
X005225Y001963D01*
X005221Y001964D01*
X005216Y001964D01*
X005210Y001965D01*
X005206D01*
X005203Y001964D01*
X005198Y001963D01*
X005192Y001961D01*
X005187Y001959D01*
X005181Y001955D01*
X005176Y001950D01*
X005176Y001950D01*
X005174Y001947D01*
X005173Y001944D01*
X005170Y001939D01*
X005168Y001933D01*
X005166Y001925D01*
X005164Y001916D01*
X005164Y001905D01*
Y001905D01*
Y001904D01*
Y001901D01*
X005164Y001896D01*
X005166Y001890D01*
X005167Y001884D01*
X005169Y001877D01*
X005172Y001870D01*
X005176Y001865D01*
X005177Y001864D01*
X005179Y001863D01*
X005181Y001861D01*
X005185Y001858D01*
X005190Y001856D01*
X005196Y001854D01*
X005202Y001852D01*
X005209Y001851D01*
X005211D01*
X005215Y001852D01*
X005218Y001852D01*
X005222Y001854D01*
X005227Y001855D01*
X005232Y001857D01*
X005236Y001860D01*
X005236Y001860D01*
X005238Y001861D01*
X005240Y001863D01*
X005242Y001866D01*
X005245Y001869D01*
X005248Y001874D01*
X005251Y001879D01*
X005253Y001885D01*
X005332Y001876D01*
X005331Y001875D01*
X005331Y001872D01*
X005329Y001868D01*
X005327Y001862D01*
X005324Y001855D01*
X005320Y001848D01*
X005316Y001840D01*
X005310Y001833D01*
X005310Y001832D01*
X005307Y001830D01*
X005304Y001827D01*
X005300Y001822D01*
X005294Y001818D01*
X005288Y001814D01*
X005280Y001809D01*
X005272Y001805D01*
X005271Y001804D01*
X005268Y001803D01*
X005263Y001802D01*
X005256Y001800D01*
X005247Y001798D01*
X005238Y001797D01*
X005226Y001796D01*
X005214Y001795D01*
X005208D01*
X005202Y001796D01*
X005193D01*
X005184Y001797D01*
X005175Y001798D01*
X005165Y001799D01*
X005156Y001801D01*
X005155Y001802D01*
X005152Y001802D01*
X005147Y001804D01*
X005142Y001806D01*
X005136Y001809D01*
X005129Y001813D01*
X005123Y001817D01*
X005116Y001822D01*
X005116Y001822D01*
X005114Y001825D01*
X005111Y001827D01*
X005107Y001832D01*
X005103Y001837D01*
X005099Y001843D01*
X005095Y001849D01*
X005091Y001856D01*
X005090Y001857D01*
X005089Y001860D01*
X005088Y001863D01*
X005086Y001869D01*
X005084Y001877D01*
X005083Y001886D01*
X005082Y001896D01*
X005081Y001907D01*
Y001908D01*
Y001909D01*
Y001910D01*
Y001912D01*
X005082Y001919D01*
X005083Y001927D01*
X005084Y001935D01*
X005086Y001945D01*
X005089Y001954D01*
X005092Y001963D01*
X005093Y001963D01*
X005094Y001965D01*
X005096Y001969D01*
X005098Y001973D01*
X005102Y001977D01*
X005106Y001982D01*
X005110Y001987D01*
X005115Y001992D01*
X005116Y001993D01*
X005118Y001994D01*
X005121Y001997D01*
X005125Y001999D01*
X005129Y002003D01*
X005134Y002006D01*
X005140Y002009D01*
X005145Y002011D01*
X005146D01*
X005146Y002012D01*
X005150Y002013D01*
X005155Y002015D01*
X005162Y002017D01*
X005171Y002018D01*
X005182Y002020D01*
X005194Y002021D01*
X005208Y002022D01*
X005212D01*
X005216Y002021D01*
D02*
G37*
G36*
X003601Y001933D02*
X003512D01*
Y002017D01*
X003601D01*
Y001933D01*
D02*
G37*
G36*
X009009Y002021D02*
X009019Y002021D01*
X009029Y002020D01*
X009039Y002019D01*
X009048Y002017D01*
X009049D01*
X009051Y002016D01*
X009056Y002015D01*
X009061Y002013D01*
X009067Y002011D01*
X009073Y002008D01*
X009080Y002004D01*
X009086Y002000D01*
X009086Y001999D01*
X009087Y001998D01*
X009090Y001996D01*
X009092Y001993D01*
X009095Y001989D01*
X009097Y001985D01*
X009100Y001980D01*
X009102Y001974D01*
X009103Y001973D01*
X009103Y001971D01*
X009104Y001968D01*
X009105Y001963D01*
X009107Y001958D01*
X009108Y001953D01*
X009109Y001947D01*
Y001941D01*
Y001846D01*
Y001845D01*
Y001843D01*
Y001840D01*
Y001837D01*
X009109Y001829D01*
X009110Y001826D01*
X009110Y001822D01*
Y001821D01*
X009111Y001820D01*
X009111Y001819D01*
X009113Y001816D01*
X009114Y001813D01*
X009115Y001809D01*
X009119Y001800D01*
X009041D01*
Y001801D01*
X009040Y001802D01*
X009038Y001805D01*
X009036Y001809D01*
X009034Y001813D01*
Y001814D01*
X009034Y001816D01*
X009033Y001820D01*
X009032Y001826D01*
X009031Y001826D01*
X009029Y001823D01*
X009026Y001821D01*
X009021Y001817D01*
X009016Y001814D01*
X009011Y001810D01*
X009006Y001807D01*
X009000Y001804D01*
X008998Y001803D01*
X008996Y001803D01*
X008991Y001801D01*
X008985Y001799D01*
X008977Y001798D01*
X008968Y001797D01*
X008959Y001796D01*
X008948Y001795D01*
X008944D01*
X008942Y001796D01*
X008938D01*
X008935Y001796D01*
X008926Y001797D01*
X008917Y001799D01*
X008907Y001803D01*
X008897Y001807D01*
X008889Y001813D01*
X008888Y001814D01*
X008885Y001816D01*
X008883Y001820D01*
X008879Y001825D01*
X008875Y001832D01*
X008872Y001839D01*
X008870Y001848D01*
X008869Y001857D01*
Y001858D01*
Y001858D01*
Y001862D01*
X008870Y001866D01*
X008871Y001872D01*
X008872Y001878D01*
X008875Y001885D01*
X008878Y001892D01*
X008883Y001898D01*
X008884Y001898D01*
X008886Y001900D01*
X008890Y001903D01*
X008895Y001906D01*
X008903Y001910D01*
X008912Y001914D01*
X008923Y001918D01*
X008930Y001920D01*
X008937Y001921D01*
X008937D01*
X008939Y001922D01*
X008941Y001922D01*
X008944Y001923D01*
X008948Y001923D01*
X008953Y001924D01*
X008962Y001926D01*
X008972Y001928D01*
X008982Y001930D01*
X008991Y001933D01*
X008995Y001934D01*
X008997Y001934D01*
X008998D01*
X009000Y001935D01*
X009003Y001936D01*
X009007Y001937D01*
X009011Y001939D01*
X009016Y001940D01*
X009027Y001945D01*
Y001945D01*
Y001947D01*
X009027Y001950D01*
Y001953D01*
X009025Y001959D01*
X009023Y001963D01*
X009021Y001965D01*
X009020Y001966D01*
X009020Y001967D01*
X009018Y001968D01*
X009015Y001969D01*
X009013Y001970D01*
X009009Y001971D01*
X009004Y001972D01*
X008995D01*
X008991Y001971D01*
X008987D01*
X008977Y001969D01*
X008972Y001968D01*
X008968Y001965D01*
X008967D01*
X008967Y001964D01*
X008965Y001963D01*
X008963Y001961D01*
X008961Y001958D01*
X008959Y001955D01*
X008957Y001951D01*
X008955Y001946D01*
X008876Y001955D01*
Y001956D01*
X008877Y001958D01*
X008877Y001962D01*
X008879Y001967D01*
X008880Y001971D01*
X008883Y001977D01*
X008885Y001982D01*
X008888Y001987D01*
X008889Y001988D01*
X008890Y001989D01*
X008892Y001992D01*
X008895Y001994D01*
X008898Y001998D01*
X008902Y002001D01*
X008907Y002005D01*
X008913Y002008D01*
X008913Y002009D01*
X008915Y002009D01*
X008918Y002010D01*
X008921Y002012D01*
X008925Y002013D01*
X008931Y002015D01*
X008937Y002017D01*
X008944Y002018D01*
X008945D01*
X008947Y002018D01*
X008951Y002019D01*
X008957Y002020D01*
X008963Y002021D01*
X008971Y002021D01*
X008979Y002022D01*
X009001D01*
X009009Y002021D01*
D02*
G37*
G36*
X004759Y001800D02*
X004676D01*
Y002099D01*
X004759D01*
Y001800D01*
D02*
G37*
G36*
X003601D02*
X003512D01*
Y001884D01*
X003601D01*
Y001800D01*
D02*
G37*
G36*
X004942Y002021D02*
X004951Y002021D01*
X004962Y002020D01*
X004972Y002019D01*
X004980Y002017D01*
X004981D01*
X004984Y002016D01*
X004989Y002015D01*
X004994Y002013D01*
X005000Y002011D01*
X005006Y002008D01*
X005013Y002004D01*
X005019Y002000D01*
X005019Y001999D01*
X005020Y001998D01*
X005022Y001996D01*
X005025Y001993D01*
X005027Y001989D01*
X005030Y001985D01*
X005033Y001980D01*
X005035Y001974D01*
X005036Y001973D01*
X005036Y001971D01*
X005037Y001968D01*
X005038Y001963D01*
X005039Y001958D01*
X005040Y001953D01*
X005042Y001947D01*
Y001941D01*
Y001846D01*
Y001845D01*
Y001843D01*
Y001840D01*
Y001837D01*
X005042Y001829D01*
X005043Y001826D01*
X005043Y001822D01*
Y001821D01*
X005044Y001820D01*
X005044Y001819D01*
X005045Y001816D01*
X005046Y001813D01*
X005048Y001809D01*
X005052Y001800D01*
X004974D01*
Y001801D01*
X004973Y001802D01*
X004971Y001805D01*
X004969Y001809D01*
X004967Y001813D01*
Y001814D01*
X004967Y001816D01*
X004966Y001820D01*
X004965Y001826D01*
X004964Y001826D01*
X004962Y001823D01*
X004959Y001821D01*
X004954Y001817D01*
X004949Y001814D01*
X004944Y001810D01*
X004938Y001807D01*
X004932Y001804D01*
X004931Y001803D01*
X004929Y001803D01*
X004924Y001801D01*
X004918Y001799D01*
X004910Y001798D01*
X004901Y001797D01*
X004891Y001796D01*
X004881Y001795D01*
X004877D01*
X004874Y001796D01*
X004871D01*
X004867Y001796D01*
X004859Y001797D01*
X004849Y001799D01*
X004840Y001803D01*
X004830Y001807D01*
X004822Y001813D01*
X004820Y001814D01*
X004818Y001816D01*
X004816Y001820D01*
X004812Y001825D01*
X004808Y001832D01*
X004805Y001839D01*
X004803Y001848D01*
X004802Y001857D01*
Y001858D01*
Y001858D01*
Y001862D01*
X004802Y001866D01*
X004804Y001872D01*
X004805Y001878D01*
X004808Y001885D01*
X004811Y001892D01*
X004816Y001898D01*
X004817Y001898D01*
X004819Y001900D01*
X004823Y001903D01*
X004828Y001906D01*
X004836Y001910D01*
X004845Y001914D01*
X004856Y001918D01*
X004862Y001920D01*
X004870Y001921D01*
X004870D01*
X004872Y001922D01*
X004874Y001922D01*
X004877Y001923D01*
X004881Y001923D01*
X004885Y001924D01*
X004895Y001926D01*
X004905Y001928D01*
X004915Y001930D01*
X004924Y001933D01*
X004927Y001934D01*
X004930Y001934D01*
X004931D01*
X004933Y001935D01*
X004936Y001936D01*
X004939Y001937D01*
X004944Y001939D01*
X004949Y001940D01*
X004960Y001945D01*
Y001945D01*
Y001947D01*
X004960Y001950D01*
Y001953D01*
X004957Y001959D01*
X004956Y001963D01*
X004954Y001965D01*
X004953Y001966D01*
X004953Y001967D01*
X004951Y001968D01*
X004948Y001969D01*
X004945Y001970D01*
X004942Y001971D01*
X004937Y001972D01*
X004928D01*
X004924Y001971D01*
X004920D01*
X004910Y001969D01*
X004905Y001968D01*
X004901Y001965D01*
X004900D01*
X004900Y001964D01*
X004898Y001963D01*
X004896Y001961D01*
X004894Y001958D01*
X004892Y001955D01*
X004890Y001951D01*
X004888Y001946D01*
X004808Y001955D01*
Y001956D01*
X004810Y001958D01*
X004810Y001962D01*
X004812Y001967D01*
X004813Y001971D01*
X004816Y001977D01*
X004818Y001982D01*
X004821Y001987D01*
X004822Y001988D01*
X004823Y001989D01*
X004825Y001992D01*
X004828Y001994D01*
X004831Y001998D01*
X004835Y002001D01*
X004840Y002005D01*
X004846Y002008D01*
X004846Y002009D01*
X004848Y002009D01*
X004850Y002010D01*
X004854Y002012D01*
X004858Y002013D01*
X004864Y002015D01*
X004870Y002017D01*
X004877Y002018D01*
X004878D01*
X004880Y002018D01*
X004884Y002019D01*
X004890Y002020D01*
X004896Y002021D01*
X004903Y002021D01*
X004912Y002022D01*
X004933D01*
X004942Y002021D01*
D02*
G37*
G36*
X007571Y001800D02*
X007488D01*
Y002017D01*
X007571D01*
Y001800D01*
D02*
G37*
G36*
X007289Y001989D02*
X007289Y001989D01*
X007292Y001992D01*
X007295Y001995D01*
X007299Y001999D01*
X007305Y002003D01*
X007310Y002007D01*
X007316Y002011D01*
X007322Y002014D01*
X007323Y002015D01*
X007325Y002015D01*
X007329Y002016D01*
X007334Y002018D01*
X007339Y002019D01*
X007346Y002021D01*
X007354Y002021D01*
X007362Y002022D01*
X007365D01*
X007368Y002021D01*
X007374Y002021D01*
X007382Y002019D01*
X007390Y002017D01*
X007399Y002013D01*
X007407Y002008D01*
X007416Y002001D01*
X007417Y002000D01*
X007419Y001997D01*
X007422Y001992D01*
X007425Y001985D01*
X007429Y001976D01*
X007432Y001965D01*
X007434Y001952D01*
X007435Y001938D01*
Y001800D01*
X007352D01*
Y001919D01*
Y001920D01*
Y001922D01*
X007351Y001926D01*
X007351Y001930D01*
X007348Y001940D01*
X007347Y001944D01*
X007344Y001948D01*
X007344Y001949D01*
X007342Y001950D01*
X007341Y001951D01*
X007339Y001952D01*
X007335Y001954D01*
X007332Y001956D01*
X007328Y001956D01*
X007323Y001957D01*
X007320D01*
X007317Y001956D01*
X007314Y001955D01*
X007310Y001954D01*
X007306Y001952D01*
X007302Y001949D01*
X007298Y001945D01*
X007298Y001945D01*
X007297Y001943D01*
X007295Y001940D01*
X007294Y001936D01*
X007292Y001930D01*
X007291Y001923D01*
X007289Y001914D01*
X007289Y001904D01*
Y001800D01*
X007206D01*
Y002099D01*
X007289D01*
Y001989D01*
D02*
G37*
G36*
X004226Y001171D02*
X004235Y001171D01*
X004246Y001170D01*
X004255Y001169D01*
X004264Y001167D01*
X004265D01*
X004268Y001166D01*
X004272Y001165D01*
X004278Y001163D01*
X004284Y001161D01*
X004290Y001158D01*
X004296Y001154D01*
X004302Y001150D01*
X004303Y001149D01*
X004304Y001148D01*
X004306Y001146D01*
X004308Y001143D01*
X004311Y001139D01*
X004314Y001135D01*
X004317Y001130D01*
X004319Y001124D01*
X004319Y001123D01*
X004320Y001121D01*
X004321Y001118D01*
X004322Y001113D01*
X004323Y001108D01*
X004324Y001103D01*
X004325Y001097D01*
Y001091D01*
Y000996D01*
Y000995D01*
Y000993D01*
Y000990D01*
Y000987D01*
X004326Y000979D01*
X004326Y000976D01*
X004327Y000972D01*
Y000971D01*
X004327Y000970D01*
X004328Y000969D01*
X004329Y000966D01*
X004330Y000963D01*
X004331Y000959D01*
X004336Y000950D01*
X004258D01*
Y000951D01*
X004257Y000952D01*
X004255Y000955D01*
X004253Y000959D01*
X004251Y000963D01*
Y000964D01*
X004250Y000966D01*
X004249Y000970D01*
X004248Y000976D01*
X004248Y000976D01*
X004246Y000973D01*
X004242Y000971D01*
X004238Y000967D01*
X004233Y000964D01*
X004228Y000960D01*
X004222Y000957D01*
X004216Y000954D01*
X004215Y000953D01*
X004212Y000953D01*
X004207Y000951D01*
X004201Y000949D01*
X004194Y000948D01*
X004185Y000947D01*
X004175Y000946D01*
X004165Y000945D01*
X004161D01*
X004158Y000946D01*
X004155D01*
X004151Y000946D01*
X004142Y000947D01*
X004133Y000949D01*
X004123Y000953D01*
X004113Y000957D01*
X004105Y000963D01*
X004104Y000964D01*
X004102Y000966D01*
X004099Y000970D01*
X004095Y000975D01*
X004092Y000982D01*
X004089Y000989D01*
X004087Y000997D01*
X004086Y001007D01*
Y001008D01*
Y001008D01*
Y001012D01*
X004086Y001016D01*
X004087Y001022D01*
X004089Y001028D01*
X004092Y001035D01*
X004095Y001042D01*
X004100Y001048D01*
X004100Y001048D01*
X004103Y001050D01*
X004106Y001053D01*
X004112Y001056D01*
X004119Y001060D01*
X004129Y001064D01*
X004140Y001068D01*
X004146Y001070D01*
X004153Y001071D01*
X004154D01*
X004155Y001072D01*
X004158Y001072D01*
X004161Y001073D01*
X004165Y001073D01*
X004169Y001074D01*
X004178Y001076D01*
X004189Y001078D01*
X004199Y001080D01*
X004207Y001083D01*
X004211Y001084D01*
X004214Y001084D01*
X004214D01*
X004217Y001085D01*
X004219Y001086D01*
X004223Y001087D01*
X004228Y001089D01*
X004232Y001090D01*
X004244Y001095D01*
Y001095D01*
Y001097D01*
X004243Y001100D01*
Y001103D01*
X004241Y001109D01*
X004240Y001113D01*
X004237Y001115D01*
X004237Y001116D01*
X004236Y001117D01*
X004235Y001118D01*
X004232Y001119D01*
X004229Y001120D01*
X004225Y001121D01*
X004220Y001122D01*
X004212D01*
X004208Y001121D01*
X004204D01*
X004194Y001119D01*
X004189Y001118D01*
X004184Y001115D01*
X004184D01*
X004183Y001114D01*
X004182Y001113D01*
X004180Y001111D01*
X004178Y001108D01*
X004176Y001105D01*
X004173Y001101D01*
X004172Y001096D01*
X004092Y001105D01*
Y001106D01*
X004093Y001108D01*
X004094Y001112D01*
X004095Y001117D01*
X004097Y001121D01*
X004099Y001127D01*
X004102Y001132D01*
X004105Y001137D01*
X004105Y001138D01*
X004106Y001139D01*
X004108Y001142D01*
X004111Y001144D01*
X004115Y001148D01*
X004119Y001151D01*
X004124Y001155D01*
X004129Y001158D01*
X004130Y001159D01*
X004131Y001159D01*
X004134Y001160D01*
X004137Y001162D01*
X004142Y001163D01*
X004147Y001165D01*
X004153Y001167D01*
X004160Y001168D01*
X004161D01*
X004164Y001168D01*
X004168Y001169D01*
X004173Y001170D01*
X004180Y001171D01*
X004187Y001171D01*
X004195Y001172D01*
X004217D01*
X004226Y001171D01*
D02*
G37*
G36*
X007659Y001571D02*
X007668Y001571D01*
X007678Y001570D01*
X007688Y001569D01*
X007697Y001567D01*
X007698D01*
X007701Y001566D01*
X007705Y001565D01*
X007711Y001563D01*
X007717Y001561D01*
X007723Y001558D01*
X007729Y001554D01*
X007735Y001550D01*
X007736Y001549D01*
X007737Y001548D01*
X007739Y001546D01*
X007741Y001543D01*
X007744Y001539D01*
X007747Y001535D01*
X007749Y001530D01*
X007752Y001524D01*
X007752Y001523D01*
X007753Y001521D01*
X007754Y001518D01*
X007755Y001513D01*
X007756Y001508D01*
X007757Y001503D01*
X007758Y001497D01*
Y001491D01*
Y001396D01*
Y001395D01*
Y001393D01*
Y001390D01*
Y001387D01*
X007759Y001379D01*
X007759Y001376D01*
X007760Y001372D01*
Y001371D01*
X007760Y001370D01*
X007761Y001369D01*
X007762Y001366D01*
X007763Y001363D01*
X007764Y001359D01*
X007768Y001350D01*
X007690D01*
Y001351D01*
X007690Y001352D01*
X007688Y001355D01*
X007685Y001359D01*
X007684Y001363D01*
Y001364D01*
X007683Y001366D01*
X007682Y001370D01*
X007681Y001376D01*
X007681Y001376D01*
X007678Y001373D01*
X007675Y001371D01*
X007671Y001367D01*
X007666Y001364D01*
X007660Y001360D01*
X007655Y001357D01*
X007649Y001354D01*
X007648Y001353D01*
X007645Y001353D01*
X007640Y001351D01*
X007634Y001349D01*
X007626Y001348D01*
X007618Y001347D01*
X007608Y001346D01*
X007598Y001345D01*
X007594D01*
X007591Y001346D01*
X007588D01*
X007584Y001346D01*
X007575Y001347D01*
X007566Y001349D01*
X007556Y001353D01*
X007546Y001357D01*
X007538Y001363D01*
X007537Y001364D01*
X007535Y001366D01*
X007532Y001370D01*
X007528Y001375D01*
X007524Y001382D01*
X007522Y001389D01*
X007519Y001398D01*
X007518Y001407D01*
Y001408D01*
Y001408D01*
Y001412D01*
X007519Y001416D01*
X007520Y001422D01*
X007522Y001428D01*
X007524Y001435D01*
X007528Y001442D01*
X007533Y001448D01*
X007533Y001448D01*
X007535Y001450D01*
X007539Y001453D01*
X007545Y001456D01*
X007552Y001460D01*
X007562Y001464D01*
X007572Y001468D01*
X007579Y001470D01*
X007586Y001471D01*
X007587D01*
X007588Y001472D01*
X007590Y001472D01*
X007594Y001473D01*
X007598Y001473D01*
X007602Y001474D01*
X007611Y001476D01*
X007622Y001478D01*
X007631Y001480D01*
X007640Y001483D01*
X007644Y001484D01*
X007647Y001484D01*
X007647D01*
X007649Y001485D01*
X007652Y001486D01*
X007656Y001487D01*
X007660Y001489D01*
X007665Y001490D01*
X007677Y001495D01*
Y001495D01*
Y001497D01*
X007676Y001500D01*
Y001503D01*
X007674Y001509D01*
X007672Y001513D01*
X007670Y001515D01*
X007670Y001516D01*
X007669Y001517D01*
X007667Y001518D01*
X007665Y001519D01*
X007662Y001520D01*
X007658Y001521D01*
X007653Y001522D01*
X007645D01*
X007641Y001521D01*
X007636D01*
X007626Y001519D01*
X007622Y001518D01*
X007617Y001515D01*
X007617D01*
X007616Y001514D01*
X007614Y001513D01*
X007613Y001511D01*
X007611Y001508D01*
X007608Y001505D01*
X007606Y001501D01*
X007605Y001496D01*
X007525Y001505D01*
Y001506D01*
X007526Y001508D01*
X007527Y001512D01*
X007528Y001517D01*
X007530Y001521D01*
X007532Y001527D01*
X007535Y001532D01*
X007537Y001537D01*
X007538Y001538D01*
X007539Y001539D01*
X007541Y001542D01*
X007544Y001544D01*
X007547Y001548D01*
X007552Y001551D01*
X007557Y001555D01*
X007562Y001558D01*
X007563Y001559D01*
X007564Y001559D01*
X007567Y001560D01*
X007570Y001562D01*
X007575Y001563D01*
X007580Y001565D01*
X007586Y001567D01*
X007593Y001568D01*
X007594D01*
X007596Y001568D01*
X007601Y001569D01*
X007606Y001570D01*
X007613Y001571D01*
X007620Y001571D01*
X007628Y001572D01*
X007650D01*
X007659Y001571D01*
D02*
G37*
G36*
X004675Y001171D02*
X004682Y001171D01*
X004689Y001169D01*
X004698Y001167D01*
X004707Y001163D01*
X004716Y001158D01*
X004724Y001151D01*
X004725Y001150D01*
X004727Y001147D01*
X004730Y001142D01*
X004734Y001135D01*
X004737Y001126D01*
X004740Y001115D01*
X004742Y001102D01*
X004744Y001088D01*
Y000950D01*
X004660D01*
Y001069D01*
Y001070D01*
Y001072D01*
X004659Y001076D01*
X004659Y001080D01*
X004657Y001090D01*
X004655Y001094D01*
X004652Y001098D01*
X004652Y001099D01*
X004651Y001100D01*
X004649Y001101D01*
X004647Y001102D01*
X004644Y001104D01*
X004640Y001106D01*
X004636Y001106D01*
X004631Y001107D01*
X004628D01*
X004626Y001106D01*
X004622Y001105D01*
X004618Y001104D01*
X004614Y001102D01*
X004610Y001099D01*
X004606Y001095D01*
X004606Y001095D01*
X004605Y001093D01*
X004604Y001090D01*
X004602Y001086D01*
X004600Y001080D01*
X004599Y001073D01*
X004598Y001064D01*
X004597Y001054D01*
Y000950D01*
X004514D01*
Y001167D01*
X004591D01*
Y001131D01*
X004592Y001132D01*
X004594Y001135D01*
X004598Y001139D01*
X004602Y001143D01*
X004608Y001149D01*
X004614Y001154D01*
X004620Y001159D01*
X004626Y001162D01*
X004627Y001163D01*
X004629Y001164D01*
X004633Y001165D01*
X004638Y001167D01*
X004645Y001169D01*
X004652Y001170D01*
X004661Y001171D01*
X004670Y001172D01*
X004673D01*
X004675Y001171D01*
D02*
G37*
G36*
X006163D02*
X006169Y001171D01*
X006177Y001169D01*
X006185Y001167D01*
X006194Y001163D01*
X006203Y001158D01*
X006211Y001151D01*
X006212Y001150D01*
X006214Y001147D01*
X006217Y001142D01*
X006221Y001135D01*
X006225Y001126D01*
X006228Y001115D01*
X006230Y001101D01*
X006231Y001094D01*
Y001086D01*
Y000950D01*
X006147D01*
Y001073D01*
Y001074D01*
Y001076D01*
X006147Y001078D01*
Y001082D01*
X006145Y001089D01*
X006143Y001093D01*
X006141Y001095D01*
X006141Y001096D01*
X006140Y001097D01*
X006138Y001099D01*
X006136Y001101D01*
X006133Y001103D01*
X006129Y001105D01*
X006125Y001106D01*
X006121Y001107D01*
X006118D01*
X006116Y001106D01*
X006112Y001106D01*
X006108Y001104D01*
X006105Y001102D01*
X006100Y001100D01*
X006097Y001096D01*
X006096Y001095D01*
X006096Y001094D01*
X006094Y001091D01*
X006093Y001088D01*
X006091Y001083D01*
X006090Y001077D01*
X006089Y001070D01*
X006088Y001062D01*
Y000950D01*
X006005D01*
Y001069D01*
Y001070D01*
Y001071D01*
Y001074D01*
Y001077D01*
X006004Y001083D01*
X006004Y001086D01*
X006003Y001088D01*
Y001089D01*
X006003Y001090D01*
X006001Y001093D01*
X005998Y001097D01*
X005994Y001101D01*
X005993D01*
X005993Y001102D01*
X005989Y001104D01*
X005985Y001106D01*
X005979Y001107D01*
X005976D01*
X005974Y001106D01*
X005970Y001106D01*
X005966Y001104D01*
X005962Y001102D01*
X005958Y001100D01*
X005955Y001096D01*
X005954Y001095D01*
X005953Y001094D01*
X005952Y001091D01*
X005950Y001087D01*
X005949Y001082D01*
X005947Y001076D01*
X005946Y001069D01*
X005946Y001060D01*
Y000950D01*
X005862D01*
Y001167D01*
X005940D01*
Y001135D01*
X005940Y001136D01*
X005943Y001138D01*
X005946Y001142D01*
X005950Y001145D01*
X005956Y001150D01*
X005961Y001155D01*
X005967Y001159D01*
X005974Y001163D01*
X005974Y001163D01*
X005977Y001165D01*
X005980Y001166D01*
X005985Y001167D01*
X005991Y001169D01*
X005998Y001171D01*
X006006Y001171D01*
X006015Y001172D01*
X006019D01*
X006024Y001171D01*
X006030Y001171D01*
X006036Y001169D01*
X006044Y001168D01*
X006050Y001166D01*
X006056Y001162D01*
X006057Y001162D01*
X006059Y001161D01*
X006062Y001159D01*
X006065Y001155D01*
X006069Y001151D01*
X006073Y001147D01*
X006077Y001141D01*
X006081Y001135D01*
X006082Y001136D01*
X006084Y001138D01*
X006088Y001142D01*
X006093Y001146D01*
X006098Y001151D01*
X006104Y001156D01*
X006110Y001160D01*
X006116Y001163D01*
X006117Y001164D01*
X006119Y001165D01*
X006123Y001166D01*
X006128Y001168D01*
X006133Y001169D01*
X006140Y001171D01*
X006148Y001171D01*
X006157Y001172D01*
X006160D01*
X006163Y001171D01*
D02*
G37*
G36*
X003186Y001083D02*
X003097D01*
Y001167D01*
X003186D01*
Y001083D01*
D02*
G37*
G36*
X006326Y001335D02*
Y001335D01*
X006326Y001334D01*
X006325Y001331D01*
X006324Y001329D01*
X006321Y001322D01*
X006317Y001314D01*
X006313Y001305D01*
X006307Y001296D01*
X006302Y001288D01*
X006299Y001284D01*
X006296Y001282D01*
X006295Y001281D01*
X006293Y001278D01*
X006287Y001276D01*
X006280Y001272D01*
X006271Y001268D01*
X006260Y001265D01*
X006246Y001263D01*
X006239Y001262D01*
X006227D01*
X006223Y001263D01*
X006217D01*
X006209Y001263D01*
X006200Y001264D01*
X006188Y001265D01*
X006175Y001267D01*
X006169Y001325D01*
X006170D01*
X006172Y001324D01*
X006176Y001324D01*
X006181Y001323D01*
X006186Y001322D01*
X006193Y001321D01*
X006200Y001320D01*
X006209Y001319D01*
X006211D01*
X006213Y001320D01*
X006217Y001321D01*
X006225Y001323D01*
X006229Y001324D01*
X006233Y001327D01*
X006233Y001327D01*
X006234Y001328D01*
X006236Y001329D01*
X006238Y001332D01*
X006240Y001335D01*
X006243Y001339D01*
X006246Y001344D01*
X006248Y001350D01*
X006157Y001567D01*
X006245D01*
X006289Y001422D01*
X006331Y001567D01*
X006413D01*
X006326Y001335D01*
D02*
G37*
G36*
X006945Y001350D02*
X006867D01*
Y001385D01*
X006866Y001384D01*
X006864Y001382D01*
X006860Y001377D01*
X006856Y001373D01*
X006851Y001368D01*
X006845Y001363D01*
X006838Y001358D01*
X006831Y001354D01*
X006831Y001353D01*
X006828Y001353D01*
X006824Y001351D01*
X006819Y001349D01*
X006813Y001348D01*
X006806Y001347D01*
X006798Y001346D01*
X006788Y001345D01*
X006785D01*
X006783Y001346D01*
X006776Y001346D01*
X006769Y001348D01*
X006760Y001350D01*
X006751Y001354D01*
X006743Y001359D01*
X006734Y001365D01*
X006734Y001366D01*
X006732Y001369D01*
X006728Y001374D01*
X006725Y001381D01*
X006721Y001390D01*
X006718Y001401D01*
X006716Y001414D01*
X006715Y001429D01*
Y001567D01*
X006799D01*
Y001447D01*
Y001446D01*
Y001444D01*
X006799Y001440D01*
X006800Y001436D01*
X006802Y001426D01*
X006804Y001422D01*
X006806Y001418D01*
X006806Y001418D01*
X006807Y001417D01*
X006809Y001416D01*
X006811Y001414D01*
X006815Y001413D01*
X006818Y001411D01*
X006822Y001411D01*
X006827Y001410D01*
X006830D01*
X006833Y001411D01*
X006836Y001412D01*
X006840Y001413D01*
X006844Y001414D01*
X006848Y001417D01*
X006852Y001421D01*
X006852Y001422D01*
X006853Y001423D01*
X006855Y001426D01*
X006857Y001430D01*
X006858Y001436D01*
X006860Y001443D01*
X006861Y001452D01*
X006862Y001462D01*
Y001567D01*
X006945D01*
Y001350D01*
D02*
G37*
G36*
X008498D02*
X008415D01*
Y001567D01*
X008498D01*
Y001350D01*
D02*
G37*
G36*
X006435Y001171D02*
X006439Y001171D01*
X006443Y001170D01*
X006452Y001167D01*
X006463Y001163D01*
X006469Y001161D01*
X006475Y001157D01*
X006480Y001154D01*
X006485Y001149D01*
X006491Y001144D01*
X006495Y001138D01*
X006496Y001138D01*
X006496Y001137D01*
X006497Y001135D01*
X006499Y001132D01*
X006501Y001129D01*
X006503Y001125D01*
X006505Y001121D01*
X006507Y001115D01*
X006509Y001110D01*
X006511Y001103D01*
X006515Y001090D01*
X006518Y001073D01*
X006519Y001065D01*
Y001056D01*
Y001055D01*
Y001054D01*
Y001051D01*
X006519Y001047D01*
Y001042D01*
X006518Y001037D01*
X006517Y001031D01*
X006516Y001025D01*
X006513Y001012D01*
X006508Y000999D01*
X006502Y000985D01*
X006497Y000979D01*
X006493Y000973D01*
X006492Y000973D01*
X006492Y000972D01*
X006490Y000971D01*
X006489Y000969D01*
X006483Y000965D01*
X006475Y000959D01*
X006466Y000954D01*
X006455Y000949D01*
X006442Y000946D01*
X006434Y000946D01*
X006427Y000945D01*
X006424D01*
X006420Y000946D01*
X006416Y000946D01*
X006410Y000947D01*
X006404Y000948D01*
X006398Y000949D01*
X006392Y000952D01*
X006392Y000952D01*
X006390Y000953D01*
X006387Y000954D01*
X006383Y000957D01*
X006379Y000959D01*
X006374Y000963D01*
X006369Y000966D01*
X006365Y000971D01*
Y000868D01*
X006280D01*
Y001167D01*
X006358D01*
Y001135D01*
X006359Y001136D01*
X006361Y001138D01*
X006364Y001141D01*
X006368Y001145D01*
X006372Y001150D01*
X006377Y001155D01*
X006383Y001159D01*
X006388Y001162D01*
X006389Y001162D01*
X006391Y001163D01*
X006395Y001165D01*
X006400Y001167D01*
X006406Y001168D01*
X006413Y001170D01*
X006420Y001171D01*
X006428Y001172D01*
X006432D01*
X006435Y001171D01*
D02*
G37*
G36*
X006561Y001571D02*
X006566Y001571D01*
X006573Y001569D01*
X006580Y001568D01*
X006587Y001567D01*
X006595Y001565D01*
X006603Y001562D01*
X006611Y001559D01*
X006619Y001556D01*
X006627Y001551D01*
X006635Y001546D01*
X006642Y001540D01*
X006649Y001533D01*
X006649Y001533D01*
X006650Y001532D01*
X006651Y001530D01*
X006653Y001528D01*
X006655Y001525D01*
X006657Y001521D01*
X006660Y001518D01*
X006662Y001513D01*
X006667Y001502D01*
X006672Y001489D01*
X006675Y001474D01*
X006675Y001467D01*
X006676Y001459D01*
Y001458D01*
Y001456D01*
Y001454D01*
X006675Y001450D01*
X006675Y001446D01*
X006674Y001441D01*
X006673Y001436D01*
X006672Y001430D01*
X006668Y001417D01*
X006665Y001410D01*
X006662Y001403D01*
X006658Y001396D01*
X006654Y001389D01*
X006649Y001383D01*
X006643Y001377D01*
X006642Y001376D01*
X006641Y001376D01*
X006639Y001374D01*
X006637Y001372D01*
X006633Y001370D01*
X006629Y001367D01*
X006624Y001364D01*
X006619Y001361D01*
X006613Y001358D01*
X006605Y001355D01*
X006598Y001352D01*
X006590Y001350D01*
X006581Y001348D01*
X006571Y001347D01*
X006561Y001346D01*
X006550Y001345D01*
X006545D01*
X006542Y001346D01*
X006537D01*
X006532Y001347D01*
X006526Y001347D01*
X006520Y001348D01*
X006507Y001352D01*
X006492Y001356D01*
X006479Y001363D01*
X006472Y001367D01*
X006466Y001371D01*
X006465Y001372D01*
X006464Y001373D01*
X006462Y001375D01*
X006460Y001377D01*
X006456Y001381D01*
X006453Y001384D01*
X006450Y001389D01*
X006446Y001394D01*
X006442Y001400D01*
X006439Y001407D01*
X006436Y001414D01*
X006432Y001422D01*
X006430Y001430D01*
X006428Y001438D01*
X006427Y001448D01*
X006426Y001458D01*
Y001458D01*
Y001460D01*
Y001462D01*
X006427Y001466D01*
X006427Y001470D01*
X006428Y001475D01*
X006429Y001480D01*
X006431Y001487D01*
X006435Y001500D01*
X006437Y001506D01*
X006441Y001513D01*
X006444Y001520D01*
X006449Y001527D01*
X006454Y001533D01*
X006460Y001539D01*
X006460Y001540D01*
X006461Y001541D01*
X006463Y001542D01*
X006466Y001544D01*
X006469Y001547D01*
X006473Y001550D01*
X006478Y001553D01*
X006484Y001556D01*
X006490Y001559D01*
X006496Y001561D01*
X006504Y001564D01*
X006512Y001567D01*
X006521Y001569D01*
X006530Y001570D01*
X006540Y001571D01*
X006550Y001572D01*
X006556D01*
X006561Y001571D01*
D02*
G37*
G36*
X005422D02*
X005427D01*
X005437Y001570D01*
X005448Y001568D01*
X005461Y001566D01*
X005473Y001562D01*
X005483Y001557D01*
X005484D01*
X005485Y001557D01*
X005488Y001555D01*
X005493Y001551D01*
X005499Y001547D01*
X005506Y001541D01*
X005512Y001534D01*
X005519Y001526D01*
X005525Y001517D01*
Y001516D01*
X005525Y001515D01*
X005526Y001514D01*
X005527Y001512D01*
X005528Y001509D01*
X005529Y001506D01*
X005532Y001498D01*
X005535Y001488D01*
X005537Y001476D01*
X005539Y001462D01*
X005539Y001447D01*
Y001438D01*
X005373D01*
Y001437D01*
X005373Y001435D01*
X005374Y001431D01*
X005375Y001426D01*
X005378Y001417D01*
X005380Y001412D01*
X005383Y001408D01*
X005384Y001407D01*
X005385Y001406D01*
X005388Y001404D01*
X005392Y001401D01*
X005396Y001398D01*
X005402Y001396D01*
X005408Y001394D01*
X005415Y001394D01*
X005417D01*
X005419Y001394D01*
X005422D01*
X005429Y001396D01*
X005433Y001398D01*
X005438Y001400D01*
X005438D01*
X005439Y001400D01*
X005442Y001403D01*
X005444Y001405D01*
X005446Y001407D01*
X005450Y001410D01*
X005452Y001414D01*
X005534Y001406D01*
Y001406D01*
X005533Y001405D01*
X005532Y001403D01*
X005531Y001401D01*
X005527Y001395D01*
X005521Y001388D01*
X005515Y001381D01*
X005507Y001372D01*
X005498Y001365D01*
X005488Y001359D01*
X005488D01*
X005487Y001359D01*
X005486Y001358D01*
X005483Y001357D01*
X005481Y001356D01*
X005477Y001355D01*
X005474Y001353D01*
X005469Y001352D01*
X005464Y001351D01*
X005458Y001349D01*
X005452Y001348D01*
X005445Y001347D01*
X005438Y001346D01*
X005430Y001346D01*
X005422Y001345D01*
X005405D01*
X005402Y001346D01*
X005398D01*
X005388Y001347D01*
X005377Y001348D01*
X005365Y001350D01*
X005355Y001353D01*
X005345Y001357D01*
X005344Y001358D01*
X005341Y001359D01*
X005336Y001363D01*
X005331Y001366D01*
X005324Y001372D01*
X005317Y001378D01*
X005310Y001386D01*
X005304Y001395D01*
Y001396D01*
X005303Y001396D01*
X005302Y001398D01*
X005302Y001400D01*
X005299Y001406D01*
X005296Y001413D01*
X005293Y001422D01*
X005291Y001433D01*
X005289Y001444D01*
X005288Y001458D01*
Y001458D01*
Y001460D01*
Y001462D01*
X005289Y001466D01*
X005289Y001470D01*
X005290Y001476D01*
X005291Y001481D01*
X005292Y001487D01*
X005296Y001500D01*
X005298Y001507D01*
X005302Y001514D01*
X005305Y001521D01*
X005310Y001527D01*
X005315Y001534D01*
X005320Y001540D01*
X005321Y001541D01*
X005322Y001542D01*
X005323Y001543D01*
X005326Y001545D01*
X005329Y001547D01*
X005334Y001550D01*
X005338Y001553D01*
X005344Y001556D01*
X005350Y001559D01*
X005357Y001562D01*
X005364Y001565D01*
X005372Y001567D01*
X005381Y001569D01*
X005390Y001571D01*
X005400Y001571D01*
X005410Y001572D01*
X005418D01*
X005422Y001571D01*
D02*
G37*
G36*
X005886D02*
X005891D01*
X005902Y001570D01*
X005913Y001568D01*
X005925Y001566D01*
X005937Y001562D01*
X005948Y001557D01*
X005949D01*
X005949Y001557D01*
X005952Y001555D01*
X005957Y001551D01*
X005963Y001547D01*
X005970Y001541D01*
X005977Y001534D01*
X005984Y001526D01*
X005990Y001517D01*
Y001516D01*
X005990Y001515D01*
X005991Y001514D01*
X005992Y001512D01*
X005993Y001509D01*
X005994Y001506D01*
X005997Y001498D01*
X005999Y001488D01*
X006002Y001476D01*
X006003Y001462D01*
X006004Y001447D01*
Y001438D01*
X005837D01*
Y001437D01*
X005838Y001435D01*
X005838Y001431D01*
X005839Y001426D01*
X005843Y001417D01*
X005845Y001412D01*
X005848Y001408D01*
X005848Y001407D01*
X005850Y001406D01*
X005853Y001404D01*
X005856Y001401D01*
X005861Y001398D01*
X005866Y001396D01*
X005872Y001394D01*
X005879Y001394D01*
X005881D01*
X005884Y001394D01*
X005887D01*
X005894Y001396D01*
X005898Y001398D01*
X005902Y001400D01*
X005903D01*
X005903Y001400D01*
X005907Y001403D01*
X005909Y001405D01*
X005911Y001407D01*
X005914Y001410D01*
X005917Y001414D01*
X005999Y001406D01*
Y001406D01*
X005998Y001405D01*
X005997Y001403D01*
X005996Y001401D01*
X005991Y001395D01*
X005986Y001388D01*
X005979Y001381D01*
X005972Y001372D01*
X005963Y001365D01*
X005953Y001359D01*
X005952D01*
X005952Y001359D01*
X005950Y001358D01*
X005948Y001357D01*
X005945Y001356D01*
X005942Y001355D01*
X005938Y001353D01*
X005934Y001352D01*
X005928Y001351D01*
X005923Y001349D01*
X005917Y001348D01*
X005910Y001347D01*
X005903Y001346D01*
X005895Y001346D01*
X005886Y001345D01*
X005870D01*
X005866Y001346D01*
X005862D01*
X005853Y001347D01*
X005842Y001348D01*
X005830Y001350D01*
X005819Y001353D01*
X005809Y001357D01*
X005808Y001358D01*
X005806Y001359D01*
X005801Y001363D01*
X005795Y001366D01*
X005789Y001372D01*
X005782Y001378D01*
X005775Y001386D01*
X005768Y001395D01*
Y001396D01*
X005768Y001396D01*
X005767Y001398D01*
X005766Y001400D01*
X005764Y001406D01*
X005761Y001413D01*
X005758Y001422D01*
X005755Y001433D01*
X005753Y001444D01*
X005753Y001458D01*
Y001458D01*
Y001460D01*
Y001462D01*
X005753Y001466D01*
X005754Y001470D01*
X005754Y001476D01*
X005755Y001481D01*
X005756Y001487D01*
X005760Y001500D01*
X005763Y001507D01*
X005766Y001514D01*
X005770Y001521D01*
X005774Y001527D01*
X005779Y001534D01*
X005785Y001540D01*
X005785Y001541D01*
X005786Y001542D01*
X005788Y001543D01*
X005791Y001545D01*
X005794Y001547D01*
X005798Y001550D01*
X005803Y001553D01*
X005808Y001556D01*
X005814Y001559D01*
X005821Y001562D01*
X005828Y001565D01*
X005837Y001567D01*
X005845Y001569D01*
X005855Y001571D01*
X005865Y001571D01*
X005875Y001572D01*
X005883D01*
X005886Y001571D01*
D02*
G37*
G36*
X004461Y001192D02*
X004378D01*
Y001249D01*
X004461D01*
Y001192D01*
D02*
G37*
G36*
X005102Y001539D02*
X005103Y001539D01*
X005105Y001542D01*
X005108Y001545D01*
X005113Y001549D01*
X005118Y001553D01*
X005124Y001557D01*
X005130Y001561D01*
X005136Y001564D01*
X005136Y001565D01*
X005139Y001565D01*
X005142Y001566D01*
X005147Y001568D01*
X005153Y001569D01*
X005160Y001571D01*
X005167Y001571D01*
X005175Y001572D01*
X005179D01*
X005181Y001571D01*
X005188Y001571D01*
X005195Y001569D01*
X005203Y001567D01*
X005213Y001563D01*
X005221Y001558D01*
X005229Y001551D01*
X005230Y001550D01*
X005232Y001547D01*
X005235Y001542D01*
X005239Y001535D01*
X005243Y001526D01*
X005245Y001515D01*
X005248Y001502D01*
X005249Y001488D01*
Y001350D01*
X005165D01*
Y001469D01*
Y001470D01*
Y001472D01*
X005165Y001476D01*
X005164Y001480D01*
X005162Y001490D01*
X005160Y001494D01*
X005157Y001498D01*
X005157Y001499D01*
X005156Y001500D01*
X005154Y001501D01*
X005152Y001502D01*
X005149Y001504D01*
X005145Y001506D01*
X005141Y001506D01*
X005136Y001507D01*
X005133D01*
X005131Y001506D01*
X005127Y001505D01*
X005124Y001504D01*
X005119Y001502D01*
X005115Y001499D01*
X005112Y001495D01*
X005111Y001495D01*
X005110Y001493D01*
X005109Y001490D01*
X005107Y001486D01*
X005105Y001480D01*
X005104Y001473D01*
X005103Y001464D01*
X005102Y001454D01*
Y001350D01*
X005019D01*
Y001649D01*
X005102D01*
Y001539D01*
D02*
G37*
G36*
X008651Y001567D02*
X008697D01*
Y001506D01*
X008651D01*
Y001429D01*
Y001429D01*
Y001427D01*
Y001424D01*
X008652Y001422D01*
X008652Y001416D01*
X008653Y001413D01*
X008654Y001411D01*
X008655Y001410D01*
X008657Y001407D01*
X008661Y001405D01*
X008664Y001405D01*
X008668Y001404D01*
X008669D01*
X008672Y001405D01*
X008674D01*
X008678Y001405D01*
X008682Y001406D01*
X008687Y001407D01*
X008693Y001409D01*
X008700Y001352D01*
X008698D01*
X008697Y001351D01*
X008694Y001351D01*
X008688Y001349D01*
X008681Y001348D01*
X008672Y001347D01*
X008662Y001346D01*
X008652Y001346D01*
X008642Y001345D01*
X008637D01*
X008632Y001346D01*
X008625Y001346D01*
X008617Y001347D01*
X008610Y001348D01*
X008602Y001350D01*
X008596Y001353D01*
X008596Y001353D01*
X008594Y001354D01*
X008591Y001356D01*
X008588Y001359D01*
X008584Y001362D01*
X008581Y001366D01*
X008577Y001371D01*
X008574Y001377D01*
Y001377D01*
X008573Y001380D01*
X008572Y001384D01*
X008571Y001389D01*
X008570Y001397D01*
X008569Y001406D01*
X008568Y001417D01*
X008568Y001430D01*
Y001506D01*
X008537D01*
Y001567D01*
X008568D01*
Y001606D01*
X008651Y001649D01*
Y001567D01*
D02*
G37*
G36*
X008187D02*
X008233D01*
Y001506D01*
X008187D01*
Y001429D01*
Y001429D01*
Y001427D01*
Y001424D01*
X008188Y001422D01*
X008188Y001416D01*
X008189Y001413D01*
X008189Y001411D01*
X008191Y001410D01*
X008193Y001407D01*
X008197Y001405D01*
X008200Y001405D01*
X008204Y001404D01*
X008205D01*
X008207Y001405D01*
X008210D01*
X008214Y001405D01*
X008218Y001406D01*
X008223Y001407D01*
X008229Y001409D01*
X008236Y001352D01*
X008234D01*
X008233Y001351D01*
X008230Y001351D01*
X008224Y001349D01*
X008217Y001348D01*
X008208Y001347D01*
X008198Y001346D01*
X008188Y001346D01*
X008178Y001345D01*
X008173D01*
X008168Y001346D01*
X008160Y001346D01*
X008153Y001347D01*
X008146Y001348D01*
X008138Y001350D01*
X008132Y001353D01*
X008132Y001353D01*
X008130Y001354D01*
X008127Y001356D01*
X008124Y001359D01*
X008120Y001362D01*
X008117Y001366D01*
X008113Y001371D01*
X008110Y001377D01*
Y001377D01*
X008109Y001380D01*
X008108Y001384D01*
X008107Y001389D01*
X008106Y001397D01*
X008105Y001406D01*
X008104Y001417D01*
X008104Y001430D01*
Y001506D01*
X008073D01*
Y001567D01*
X008104D01*
Y001606D01*
X008187Y001649D01*
Y001567D01*
D02*
G37*
G36*
X008498Y001592D02*
X008415D01*
Y001649D01*
X008498D01*
Y001592D01*
D02*
G37*
G36*
X008501Y001171D02*
X008510Y001171D01*
X008520Y001170D01*
X008530Y001169D01*
X008539Y001167D01*
X008540D01*
X008543Y001166D01*
X008547Y001165D01*
X008552Y001163D01*
X008558Y001161D01*
X008564Y001158D01*
X008571Y001154D01*
X008577Y001150D01*
X008578Y001149D01*
X008579Y001148D01*
X008581Y001146D01*
X008583Y001143D01*
X008586Y001139D01*
X008588Y001135D01*
X008591Y001130D01*
X008593Y001124D01*
X008594Y001123D01*
X008594Y001121D01*
X008596Y001118D01*
X008597Y001113D01*
X008598Y001108D01*
X008599Y001103D01*
X008600Y001097D01*
Y001091D01*
Y000996D01*
Y000995D01*
Y000993D01*
Y000990D01*
Y000987D01*
X008600Y000979D01*
X008601Y000976D01*
X008602Y000972D01*
Y000971D01*
X008602Y000970D01*
X008603Y000969D01*
X008604Y000966D01*
X008605Y000963D01*
X008606Y000959D01*
X008610Y000950D01*
X008532D01*
Y000951D01*
X008532Y000952D01*
X008529Y000955D01*
X008527Y000959D01*
X008526Y000963D01*
Y000964D01*
X008525Y000966D01*
X008524Y000970D01*
X008523Y000976D01*
X008522Y000976D01*
X008520Y000973D01*
X008517Y000971D01*
X008513Y000967D01*
X008508Y000964D01*
X008502Y000960D01*
X008497Y000957D01*
X008491Y000954D01*
X008490Y000953D01*
X008487Y000953D01*
X008482Y000951D01*
X008476Y000949D01*
X008468Y000948D01*
X008460Y000947D01*
X008450Y000946D01*
X008439Y000945D01*
X008436D01*
X008433Y000946D01*
X008430D01*
X008426Y000946D01*
X008417Y000947D01*
X008408Y000949D01*
X008398Y000953D01*
X008388Y000957D01*
X008380Y000963D01*
X008379Y000964D01*
X008377Y000966D01*
X008374Y000970D01*
X008370Y000975D01*
X008366Y000982D01*
X008363Y000989D01*
X008361Y000997D01*
X008360Y001007D01*
Y001008D01*
Y001008D01*
Y001012D01*
X008361Y001016D01*
X008362Y001022D01*
X008363Y001028D01*
X008366Y001035D01*
X008369Y001042D01*
X008374Y001048D01*
X008375Y001048D01*
X008377Y001050D01*
X008381Y001053D01*
X008386Y001056D01*
X008394Y001060D01*
X008403Y001064D01*
X008414Y001068D01*
X008421Y001070D01*
X008428Y001071D01*
X008428D01*
X008430Y001072D01*
X008432Y001072D01*
X008436Y001073D01*
X008439Y001073D01*
X008444Y001074D01*
X008453Y001076D01*
X008463Y001078D01*
X008473Y001080D01*
X008482Y001083D01*
X008486Y001084D01*
X008489Y001084D01*
X008489D01*
X008491Y001085D01*
X008494Y001086D01*
X008498Y001087D01*
X008502Y001089D01*
X008507Y001090D01*
X008519Y001095D01*
Y001095D01*
Y001097D01*
X008518Y001100D01*
Y001103D01*
X008516Y001109D01*
X008514Y001113D01*
X008512Y001115D01*
X008511Y001116D01*
X008511Y001117D01*
X008509Y001118D01*
X008507Y001119D01*
X008504Y001120D01*
X008500Y001121D01*
X008495Y001122D01*
X008486D01*
X008483Y001121D01*
X008478D01*
X008468Y001119D01*
X008463Y001118D01*
X008459Y001115D01*
X008458D01*
X008458Y001114D01*
X008456Y001113D01*
X008455Y001111D01*
X008452Y001108D01*
X008450Y001105D01*
X008448Y001101D01*
X008446Y001096D01*
X008367Y001105D01*
Y001106D01*
X008368Y001108D01*
X008368Y001112D01*
X008370Y001117D01*
X008372Y001121D01*
X008374Y001127D01*
X008377Y001132D01*
X008379Y001137D01*
X008380Y001138D01*
X008381Y001139D01*
X008383Y001142D01*
X008386Y001144D01*
X008389Y001148D01*
X008394Y001151D01*
X008398Y001155D01*
X008404Y001158D01*
X008404Y001159D01*
X008406Y001159D01*
X008409Y001160D01*
X008412Y001162D01*
X008416Y001163D01*
X008422Y001165D01*
X008428Y001167D01*
X008435Y001168D01*
X008436D01*
X008438Y001168D01*
X008443Y001169D01*
X008448Y001170D01*
X008455Y001171D01*
X008462Y001171D01*
X008470Y001172D01*
X008492D01*
X008501Y001171D01*
D02*
G37*
G36*
X005716Y001571D02*
X005721Y001570D01*
X005727Y001569D01*
X005734Y001567D01*
X005741Y001564D01*
X005749Y001560D01*
X005723Y001501D01*
X005723Y001501D01*
X005721Y001502D01*
X005718Y001503D01*
X005715Y001504D01*
X005707Y001506D01*
X005703Y001507D01*
X005697D01*
X005695Y001507D01*
X005691Y001506D01*
X005687Y001504D01*
X005683Y001501D01*
X005678Y001498D01*
X005675Y001494D01*
X005674Y001493D01*
X005672Y001490D01*
X005672Y001488D01*
X005671Y001485D01*
X005670Y001482D01*
X005669Y001478D01*
X005667Y001473D01*
X005666Y001468D01*
X005665Y001462D01*
X005664Y001455D01*
X005663Y001448D01*
X005663Y001441D01*
X005662Y001432D01*
Y001423D01*
Y001350D01*
X005578D01*
Y001567D01*
X005656D01*
Y001531D01*
X005657Y001532D01*
X005658Y001535D01*
X005660Y001539D01*
X005663Y001544D01*
X005671Y001554D01*
X005675Y001559D01*
X005679Y001563D01*
X005679Y001563D01*
X005681Y001565D01*
X005684Y001566D01*
X005687Y001567D01*
X005691Y001569D01*
X005697Y001571D01*
X005702Y001571D01*
X005709Y001572D01*
X005712D01*
X005716Y001571D01*
D02*
G37*
G36*
X007969D02*
X007975Y001571D01*
X007983Y001569D01*
X007992Y001567D01*
X008000Y001563D01*
X008009Y001558D01*
X008017Y001551D01*
X008019Y001550D01*
X008021Y001547D01*
X008023Y001542D01*
X008027Y001535D01*
X008031Y001526D01*
X008034Y001515D01*
X008036Y001502D01*
X008037Y001488D01*
Y001350D01*
X007954D01*
Y001469D01*
Y001470D01*
Y001472D01*
X007953Y001476D01*
X007952Y001480D01*
X007950Y001490D01*
X007949Y001494D01*
X007946Y001498D01*
X007945Y001499D01*
X007944Y001500D01*
X007943Y001501D01*
X007940Y001502D01*
X007937Y001504D01*
X007934Y001506D01*
X007930Y001506D01*
X007925Y001507D01*
X007922D01*
X007919Y001506D01*
X007916Y001505D01*
X007912Y001504D01*
X007908Y001502D01*
X007904Y001499D01*
X007900Y001495D01*
X007899Y001495D01*
X007898Y001493D01*
X007897Y001490D01*
X007896Y001486D01*
X007893Y001480D01*
X007892Y001473D01*
X007891Y001464D01*
X007891Y001454D01*
Y001350D01*
X007808D01*
Y001567D01*
X007885D01*
Y001531D01*
X007885Y001532D01*
X007888Y001535D01*
X007891Y001539D01*
X007896Y001543D01*
X007901Y001549D01*
X007907Y001554D01*
X007913Y001559D01*
X007920Y001562D01*
X007921Y001563D01*
X007923Y001564D01*
X007927Y001565D01*
X007932Y001567D01*
X007938Y001569D01*
X007946Y001570D01*
X007954Y001571D01*
X007963Y001572D01*
X007967D01*
X007969Y001571D01*
D02*
G37*
G36*
X005062Y001171D02*
X005072Y001171D01*
X005082Y001170D01*
X005092Y001169D01*
X005101Y001167D01*
X005102D01*
X005104Y001166D01*
X005109Y001165D01*
X005114Y001163D01*
X005120Y001161D01*
X005126Y001158D01*
X005133Y001154D01*
X005139Y001150D01*
X005139Y001149D01*
X005140Y001148D01*
X005143Y001146D01*
X005145Y001143D01*
X005148Y001139D01*
X005150Y001135D01*
X005153Y001130D01*
X005155Y001124D01*
X005156Y001123D01*
X005156Y001121D01*
X005157Y001118D01*
X005158Y001113D01*
X005160Y001108D01*
X005161Y001103D01*
X005162Y001097D01*
Y001091D01*
Y000996D01*
Y000995D01*
Y000993D01*
Y000990D01*
Y000987D01*
X005162Y000979D01*
X005163Y000976D01*
X005163Y000972D01*
Y000971D01*
X005164Y000970D01*
X005164Y000969D01*
X005166Y000966D01*
X005167Y000963D01*
X005168Y000959D01*
X005172Y000950D01*
X005094D01*
Y000951D01*
X005093Y000952D01*
X005091Y000955D01*
X005089Y000959D01*
X005087Y000963D01*
Y000964D01*
X005087Y000966D01*
X005086Y000970D01*
X005085Y000976D01*
X005084Y000976D01*
X005082Y000973D01*
X005079Y000971D01*
X005074Y000967D01*
X005069Y000964D01*
X005064Y000960D01*
X005059Y000957D01*
X005053Y000954D01*
X005051Y000953D01*
X005049Y000953D01*
X005044Y000951D01*
X005038Y000949D01*
X005030Y000948D01*
X005021Y000947D01*
X005012Y000946D01*
X005001Y000945D01*
X004997D01*
X004995Y000946D01*
X004991D01*
X004988Y000946D01*
X004979Y000947D01*
X004970Y000949D01*
X004960Y000953D01*
X004950Y000957D01*
X004942Y000963D01*
X004941Y000964D01*
X004938Y000966D01*
X004936Y000970D01*
X004932Y000975D01*
X004928Y000982D01*
X004925Y000989D01*
X004923Y000997D01*
X004922Y001007D01*
Y001008D01*
Y001008D01*
Y001012D01*
X004923Y001016D01*
X004924Y001022D01*
X004925Y001028D01*
X004928Y001035D01*
X004931Y001042D01*
X004936Y001048D01*
X004937Y001048D01*
X004939Y001050D01*
X004943Y001053D01*
X004948Y001056D01*
X004956Y001060D01*
X004965Y001064D01*
X004976Y001068D01*
X004983Y001070D01*
X004990Y001071D01*
X004990D01*
X004992Y001072D01*
X004994Y001072D01*
X004997Y001073D01*
X005001Y001073D01*
X005006Y001074D01*
X005015Y001076D01*
X005025Y001078D01*
X005035Y001080D01*
X005044Y001083D01*
X005048Y001084D01*
X005050Y001084D01*
X005051D01*
X005053Y001085D01*
X005056Y001086D01*
X005060Y001087D01*
X005064Y001089D01*
X005069Y001090D01*
X005080Y001095D01*
Y001095D01*
Y001097D01*
X005080Y001100D01*
Y001103D01*
X005078Y001109D01*
X005076Y001113D01*
X005074Y001115D01*
X005073Y001116D01*
X005073Y001117D01*
X005071Y001118D01*
X005068Y001119D01*
X005066Y001120D01*
X005062Y001121D01*
X005057Y001122D01*
X005048D01*
X005044Y001121D01*
X005040D01*
X005030Y001119D01*
X005025Y001118D01*
X005021Y001115D01*
X005020D01*
X005020Y001114D01*
X005018Y001113D01*
X005016Y001111D01*
X005014Y001108D01*
X005012Y001105D01*
X005010Y001101D01*
X005008Y001096D01*
X004929Y001105D01*
Y001106D01*
X004930Y001108D01*
X004930Y001112D01*
X004932Y001117D01*
X004934Y001121D01*
X004936Y001127D01*
X004938Y001132D01*
X004941Y001137D01*
X004942Y001138D01*
X004943Y001139D01*
X004945Y001142D01*
X004948Y001144D01*
X004951Y001148D01*
X004955Y001151D01*
X004960Y001155D01*
X004966Y001158D01*
X004966Y001159D01*
X004968Y001159D01*
X004971Y001160D01*
X004974Y001162D01*
X004978Y001163D01*
X004984Y001165D01*
X004990Y001167D01*
X004997Y001168D01*
X004998D01*
X005000Y001168D01*
X005004Y001169D01*
X005010Y001170D01*
X005016Y001171D01*
X005024Y001171D01*
X005032Y001172D01*
X005054D01*
X005062Y001171D01*
D02*
G37*
G36*
X004461Y000950D02*
X004378D01*
Y001167D01*
X004461D01*
Y000950D01*
D02*
G37*
G36*
X007756Y001139D02*
X007757Y001139D01*
X007759Y001142D01*
X007762Y001145D01*
X007767Y001149D01*
X007772Y001153D01*
X007778Y001157D01*
X007784Y001161D01*
X007790Y001164D01*
X007790Y001165D01*
X007793Y001165D01*
X007796Y001166D01*
X007801Y001168D01*
X007807Y001169D01*
X007814Y001171D01*
X007821Y001171D01*
X007829Y001172D01*
X007833D01*
X007835Y001171D01*
X007842Y001171D01*
X007849Y001169D01*
X007857Y001167D01*
X007867Y001163D01*
X007875Y001158D01*
X007883Y001151D01*
X007884Y001150D01*
X007886Y001147D01*
X007889Y001142D01*
X007893Y001135D01*
X007897Y001126D01*
X007899Y001115D01*
X007902Y001102D01*
X007903Y001088D01*
Y000950D01*
X007819D01*
Y001069D01*
Y001070D01*
Y001072D01*
X007819Y001076D01*
X007818Y001080D01*
X007816Y001090D01*
X007814Y001094D01*
X007811Y001098D01*
X007811Y001099D01*
X007810Y001100D01*
X007808Y001101D01*
X007806Y001102D01*
X007803Y001104D01*
X007799Y001106D01*
X007795Y001106D01*
X007790Y001107D01*
X007787D01*
X007785Y001106D01*
X007781Y001105D01*
X007778Y001104D01*
X007773Y001102D01*
X007769Y001099D01*
X007766Y001095D01*
X007765Y001095D01*
X007764Y001093D01*
X007763Y001090D01*
X007761Y001086D01*
X007759Y001080D01*
X007758Y001073D01*
X007757Y001064D01*
X007756Y001054D01*
Y000950D01*
X007673D01*
Y001249D01*
X007756D01*
Y001139D01*
D02*
G37*
G36*
X007014Y001171D02*
X007023Y001171D01*
X007033Y001170D01*
X007043Y001169D01*
X007052Y001167D01*
X007053D01*
X007056Y001166D01*
X007060Y001165D01*
X007066Y001163D01*
X007072Y001161D01*
X007078Y001158D01*
X007084Y001154D01*
X007090Y001150D01*
X007091Y001149D01*
X007092Y001148D01*
X007094Y001146D01*
X007096Y001143D01*
X007099Y001139D01*
X007102Y001135D01*
X007104Y001130D01*
X007107Y001124D01*
X007107Y001123D01*
X007108Y001121D01*
X007109Y001118D01*
X007110Y001113D01*
X007111Y001108D01*
X007112Y001103D01*
X007113Y001097D01*
Y001091D01*
Y000996D01*
Y000995D01*
Y000993D01*
Y000990D01*
Y000987D01*
X007114Y000979D01*
X007114Y000976D01*
X007115Y000972D01*
Y000971D01*
X007115Y000970D01*
X007116Y000969D01*
X007117Y000966D01*
X007118Y000963D01*
X007119Y000959D01*
X007124Y000950D01*
X007045D01*
Y000951D01*
X007045Y000952D01*
X007043Y000955D01*
X007041Y000959D01*
X007039Y000963D01*
Y000964D01*
X007038Y000966D01*
X007037Y000970D01*
X007036Y000976D01*
X007036Y000976D01*
X007033Y000973D01*
X007030Y000971D01*
X007026Y000967D01*
X007021Y000964D01*
X007015Y000960D01*
X007010Y000957D01*
X007004Y000954D01*
X007003Y000953D01*
X007000Y000953D01*
X006995Y000951D01*
X006989Y000949D01*
X006982Y000948D01*
X006973Y000947D01*
X006963Y000946D01*
X006953Y000945D01*
X006949D01*
X006946Y000946D01*
X006943D01*
X006939Y000946D01*
X006930Y000947D01*
X006921Y000949D01*
X006911Y000953D01*
X006901Y000957D01*
X006893Y000963D01*
X006892Y000964D01*
X006890Y000966D01*
X006887Y000970D01*
X006883Y000975D01*
X006879Y000982D01*
X006877Y000989D01*
X006875Y000997D01*
X006873Y001007D01*
Y001008D01*
Y001008D01*
Y001012D01*
X006874Y001016D01*
X006875Y001022D01*
X006877Y001028D01*
X006879Y001035D01*
X006883Y001042D01*
X006888Y001048D01*
X006888Y001048D01*
X006890Y001050D01*
X006894Y001053D01*
X006900Y001056D01*
X006907Y001060D01*
X006917Y001064D01*
X006927Y001068D01*
X006934Y001070D01*
X006941Y001071D01*
X006942D01*
X006943Y001072D01*
X006946Y001072D01*
X006949Y001073D01*
X006953Y001073D01*
X006957Y001074D01*
X006966Y001076D01*
X006977Y001078D01*
X006986Y001080D01*
X006995Y001083D01*
X006999Y001084D01*
X007002Y001084D01*
X007002D01*
X007004Y001085D01*
X007007Y001086D01*
X007011Y001087D01*
X007015Y001089D01*
X007020Y001090D01*
X007032Y001095D01*
Y001095D01*
Y001097D01*
X007031Y001100D01*
Y001103D01*
X007029Y001109D01*
X007027Y001113D01*
X007025Y001115D01*
X007025Y001116D01*
X007024Y001117D01*
X007023Y001118D01*
X007020Y001119D01*
X007017Y001120D01*
X007013Y001121D01*
X007008Y001122D01*
X007000D01*
X006996Y001121D01*
X006991D01*
X006982Y001119D01*
X006977Y001118D01*
X006972Y001115D01*
X006972D01*
X006971Y001114D01*
X006970Y001113D01*
X006968Y001111D01*
X006966Y001108D01*
X006964Y001105D01*
X006961Y001101D01*
X006960Y001096D01*
X006880Y001105D01*
Y001106D01*
X006881Y001108D01*
X006882Y001112D01*
X006883Y001117D01*
X006885Y001121D01*
X006887Y001127D01*
X006890Y001132D01*
X006893Y001137D01*
X006893Y001138D01*
X006894Y001139D01*
X006896Y001142D01*
X006899Y001144D01*
X006902Y001148D01*
X006907Y001151D01*
X006912Y001155D01*
X006917Y001158D01*
X006918Y001159D01*
X006919Y001159D01*
X006922Y001160D01*
X006925Y001162D01*
X006930Y001163D01*
X006935Y001165D01*
X006941Y001167D01*
X006948Y001168D01*
X006949D01*
X006952Y001168D01*
X006956Y001169D01*
X006961Y001170D01*
X006968Y001171D01*
X006975Y001171D01*
X006983Y001172D01*
X007005D01*
X007014Y001171D01*
D02*
G37*
G36*
X002676Y000950D02*
X002598D01*
Y000985D01*
X002598Y000984D01*
X002596Y000982D01*
X002592Y000977D01*
X002587Y000973D01*
X002582Y000968D01*
X002576Y000963D01*
X002569Y000958D01*
X002563Y000954D01*
X002562Y000953D01*
X002560Y000953D01*
X002556Y000951D01*
X002551Y000949D01*
X002545Y000948D01*
X002537Y000947D01*
X002529Y000946D01*
X002520Y000945D01*
X002516D01*
X002514Y000946D01*
X002508Y000946D01*
X002500Y000948D01*
X002491Y000950D01*
X002483Y000954D01*
X002474Y000959D01*
X002466Y000965D01*
X002465Y000966D01*
X002463Y000969D01*
X002460Y000974D01*
X002456Y000981D01*
X002452Y000990D01*
X002450Y001001D01*
X002448Y001014D01*
X002446Y001029D01*
Y001167D01*
X002530D01*
Y001047D01*
Y001046D01*
Y001044D01*
X002531Y001040D01*
X002531Y001036D01*
X002533Y001026D01*
X002535Y001022D01*
X002537Y001018D01*
X002538Y001018D01*
X002539Y001017D01*
X002540Y001016D01*
X002543Y001014D01*
X002546Y001013D01*
X002549Y001011D01*
X002553Y001011D01*
X002558Y001010D01*
X002561D01*
X002564Y001011D01*
X002567Y001012D01*
X002571Y001013D01*
X002575Y001014D01*
X002579Y001017D01*
X002583Y001021D01*
X002584Y001022D01*
X002585Y001023D01*
X002586Y001026D01*
X002588Y001030D01*
X002590Y001036D01*
X002591Y001043D01*
X002592Y001052D01*
X002593Y001062D01*
Y001167D01*
X002676D01*
Y000950D01*
D02*
G37*
G36*
X009347D02*
X009273D01*
X009183Y001167D01*
X009269D01*
X009311Y001029D01*
X009355Y001167D01*
X009439D01*
X009347Y000950D01*
D02*
G37*
G36*
X003980D02*
X003906D01*
X003816Y001167D01*
X003902D01*
X003944Y001029D01*
X003988Y001167D01*
X004072D01*
X003980Y000950D01*
D02*
G37*
G36*
X004915Y001350D02*
X004841D01*
X004797Y001480D01*
X004755Y001350D01*
X004680D01*
X004600Y001567D01*
X004680D01*
X004715Y001430D01*
X004759Y001567D01*
X004834D01*
X004880Y001430D01*
X004915Y001567D01*
X004995D01*
X004915Y001350D01*
D02*
G37*
G36*
X007424D02*
X007351D01*
X007307Y001480D01*
X007264Y001350D01*
X007190D01*
X007109Y001567D01*
X007190D01*
X007225Y001430D01*
X007269Y001567D01*
X007344D01*
X007390Y001430D01*
X007424Y001567D01*
X007505D01*
X007424Y001350D01*
D02*
G37*
%LPC*%
G36*
X009027Y001903D02*
X009027D01*
X009025Y001902D01*
X009021Y001900D01*
X009016Y001899D01*
X009011Y001897D01*
X009005Y001896D01*
X008991Y001892D01*
X008990Y001891D01*
X008988Y001891D01*
X008983Y001890D01*
X008978Y001888D01*
X008972Y001886D01*
X008967Y001884D01*
X008962Y001881D01*
X008959Y001879D01*
Y001878D01*
X008958Y001878D01*
X008956Y001874D01*
X008954Y001869D01*
X008953Y001867D01*
X008953Y001863D01*
Y001863D01*
Y001862D01*
X008953Y001860D01*
X008954Y001858D01*
X008955Y001852D01*
X008957Y001850D01*
X008959Y001848D01*
X008960D01*
X008960Y001846D01*
X008962Y001846D01*
X008965Y001845D01*
X008967Y001844D01*
X008971Y001843D01*
X008975Y001842D01*
X008979Y001841D01*
X008982D01*
X008984Y001842D01*
X008988Y001843D01*
X008991Y001843D01*
X008996Y001844D01*
X009001Y001846D01*
X009005Y001848D01*
X009006Y001849D01*
X009007Y001849D01*
X009009Y001851D01*
X009012Y001852D01*
X009017Y001857D01*
X009020Y001861D01*
X009022Y001864D01*
Y001864D01*
X009023Y001866D01*
X009024Y001868D01*
X009025Y001871D01*
X009026Y001874D01*
X009026Y001879D01*
X009027Y001884D01*
Y001889D01*
Y001903D01*
D02*
G37*
G36*
X004960D02*
X004960D01*
X004957Y001902D01*
X004954Y001900D01*
X004949Y001899D01*
X004944Y001897D01*
X004938Y001896D01*
X004924Y001892D01*
X004923Y001891D01*
X004920Y001891D01*
X004916Y001890D01*
X004911Y001888D01*
X004905Y001886D01*
X004900Y001884D01*
X004895Y001881D01*
X004892Y001879D01*
Y001878D01*
X004891Y001878D01*
X004889Y001874D01*
X004886Y001869D01*
X004886Y001867D01*
X004885Y001863D01*
Y001863D01*
Y001862D01*
X004886Y001860D01*
X004886Y001858D01*
X004888Y001852D01*
X004890Y001850D01*
X004892Y001848D01*
X004893D01*
X004893Y001846D01*
X004895Y001846D01*
X004897Y001845D01*
X004900Y001844D01*
X004903Y001843D01*
X004908Y001842D01*
X004912Y001841D01*
X004914D01*
X004917Y001842D01*
X004920Y001843D01*
X004924Y001843D01*
X004929Y001844D01*
X004933Y001846D01*
X004938Y001848D01*
X004938Y001849D01*
X004940Y001849D01*
X004942Y001851D01*
X004944Y001852D01*
X004950Y001857D01*
X004953Y001861D01*
X004955Y001864D01*
Y001864D01*
X004956Y001866D01*
X004956Y001868D01*
X004957Y001871D01*
X004959Y001874D01*
X004959Y001879D01*
X004960Y001884D01*
Y001889D01*
Y001903D01*
D02*
G37*
G36*
X005414Y001523D02*
X005410D01*
X005406Y001522D01*
X005402Y001520D01*
X005397Y001519D01*
X005392Y001516D01*
X005387Y001512D01*
X005382Y001507D01*
X005381Y001506D01*
X005381Y001505D01*
X005380Y001502D01*
X005378Y001500D01*
X005376Y001495D01*
X005375Y001490D01*
X005374Y001484D01*
X005373Y001478D01*
X005454D01*
Y001478D01*
Y001479D01*
X005454Y001482D01*
X005453Y001486D01*
X005452Y001491D01*
X005450Y001496D01*
X005448Y001502D01*
X005445Y001507D01*
X005441Y001512D01*
X005441Y001512D01*
X005440Y001513D01*
X005437Y001515D01*
X005434Y001517D01*
X005430Y001519D01*
X005426Y001521D01*
X005420Y001522D01*
X005414Y001523D01*
D02*
G37*
G36*
X005878D02*
X005875D01*
X005871Y001522D01*
X005867Y001520D01*
X005862Y001519D01*
X005856Y001516D01*
X005851Y001512D01*
X005847Y001507D01*
X005846Y001506D01*
X005845Y001505D01*
X005844Y001502D01*
X005843Y001500D01*
X005841Y001495D01*
X005839Y001490D01*
X005838Y001484D01*
X005837Y001478D01*
X005919D01*
Y001478D01*
Y001479D01*
X005919Y001482D01*
X005918Y001486D01*
X005916Y001491D01*
X005915Y001496D01*
X005913Y001502D01*
X005910Y001507D01*
X005906Y001512D01*
X005905Y001512D01*
X005904Y001513D01*
X005902Y001515D01*
X005899Y001517D01*
X005895Y001519D01*
X005890Y001521D01*
X005884Y001522D01*
X005878Y001523D01*
D02*
G37*
G36*
X006551Y001514D02*
X006549D01*
X006545Y001514D01*
X006541Y001513D01*
X006536Y001511D01*
X006531Y001508D01*
X006526Y001505D01*
X006521Y001500D01*
X006521Y001500D01*
X006520Y001497D01*
X006518Y001494D01*
X006516Y001490D01*
X006514Y001484D01*
X006512Y001476D01*
X006510Y001467D01*
X006510Y001458D01*
Y001457D01*
Y001456D01*
Y001455D01*
Y001453D01*
X006510Y001448D01*
X006512Y001441D01*
X006513Y001435D01*
X006515Y001428D01*
X006518Y001421D01*
X006521Y001415D01*
X006522Y001414D01*
X006524Y001413D01*
X006526Y001411D01*
X006530Y001408D01*
X006534Y001406D01*
X006539Y001404D01*
X006545Y001402D01*
X006551Y001401D01*
X006554D01*
X006557Y001402D01*
X006561Y001403D01*
X006566Y001405D01*
X006571Y001407D01*
X006576Y001410D01*
X006580Y001414D01*
X006581Y001415D01*
X006582Y001417D01*
X006584Y001420D01*
X006586Y001425D01*
X006589Y001431D01*
X006591Y001439D01*
X006592Y001448D01*
X006592Y001459D01*
Y001459D01*
Y001460D01*
Y001463D01*
X006592Y001468D01*
X006591Y001474D01*
X006590Y001481D01*
X006587Y001488D01*
X006584Y001495D01*
X006580Y001500D01*
X006580Y001501D01*
X006578Y001502D01*
X006576Y001505D01*
X006573Y001507D01*
X006568Y001510D01*
X006563Y001512D01*
X006557Y001514D01*
X006551Y001514D01*
D02*
G37*
G36*
X007677Y001453D02*
X007676D01*
X007674Y001452D01*
X007670Y001450D01*
X007666Y001449D01*
X007660Y001447D01*
X007654Y001446D01*
X007641Y001442D01*
X007640Y001441D01*
X007637Y001441D01*
X007632Y001440D01*
X007627Y001438D01*
X007622Y001436D01*
X007617Y001434D01*
X007612Y001431D01*
X007608Y001429D01*
Y001428D01*
X007607Y001428D01*
X007605Y001424D01*
X007603Y001419D01*
X007602Y001417D01*
X007602Y001413D01*
Y001413D01*
Y001412D01*
X007602Y001410D01*
X007603Y001408D01*
X007605Y001402D01*
X007606Y001400D01*
X007608Y001398D01*
X007609D01*
X007610Y001396D01*
X007611Y001396D01*
X007614Y001395D01*
X007617Y001394D01*
X007620Y001393D01*
X007624Y001392D01*
X007629Y001391D01*
X007631D01*
X007634Y001392D01*
X007637Y001393D01*
X007641Y001393D01*
X007645Y001394D01*
X007650Y001396D01*
X007654Y001398D01*
X007655Y001399D01*
X007657Y001399D01*
X007658Y001401D01*
X007661Y001402D01*
X007666Y001407D01*
X007669Y001411D01*
X007671Y001414D01*
Y001414D01*
X007672Y001416D01*
X007673Y001418D01*
X007674Y001421D01*
X007675Y001424D01*
X007676Y001429D01*
X007677Y001434D01*
Y001439D01*
Y001453D01*
D02*
G37*
G36*
X006401Y001111D02*
X006398D01*
X006395Y001110D01*
X006391Y001109D01*
X006387Y001107D01*
X006383Y001105D01*
X006378Y001102D01*
X006374Y001098D01*
X006373Y001097D01*
X006372Y001096D01*
X006371Y001093D01*
X006369Y001088D01*
X006367Y001083D01*
X006365Y001076D01*
X006364Y001067D01*
X006363Y001058D01*
Y001057D01*
Y001056D01*
Y001053D01*
X006364Y001049D01*
X006365Y001043D01*
X006366Y001037D01*
X006368Y001031D01*
X006371Y001025D01*
X006374Y001019D01*
X006375Y001019D01*
X006377Y001018D01*
X006379Y001016D01*
X006382Y001013D01*
X006386Y001011D01*
X006391Y001009D01*
X006396Y001008D01*
X006402Y001007D01*
X006404D01*
X006407Y001008D01*
X006410Y001009D01*
X006414Y001010D01*
X006418Y001012D01*
X006422Y001015D01*
X006426Y001019D01*
X006427Y001019D01*
X006428Y001021D01*
X006430Y001024D01*
X006431Y001029D01*
X006433Y001034D01*
X006434Y001041D01*
X006436Y001049D01*
X006436Y001059D01*
Y001060D01*
Y001060D01*
Y001064D01*
X006436Y001068D01*
X006435Y001074D01*
X006433Y001080D01*
X006432Y001086D01*
X006429Y001093D01*
X006426Y001098D01*
X006425Y001099D01*
X006424Y001100D01*
X006422Y001102D01*
X006419Y001105D01*
X006415Y001107D01*
X006411Y001108D01*
X006406Y001110D01*
X006401Y001111D01*
D02*
G37*
G36*
X008772Y001109D02*
X008769D01*
X008766Y001109D01*
X008762Y001108D01*
X008758Y001106D01*
X008753Y001104D01*
X008748Y001101D01*
X008744Y001097D01*
X008744Y001096D01*
X008742Y001095D01*
X008741Y001091D01*
X008739Y001088D01*
X008736Y001082D01*
X008735Y001076D01*
X008734Y001068D01*
X008733Y001059D01*
Y001058D01*
Y001058D01*
Y001054D01*
X008734Y001049D01*
X008734Y001043D01*
X008736Y001037D01*
X008737Y001030D01*
X008740Y001024D01*
X008744Y001018D01*
X008744Y001018D01*
X008746Y001016D01*
X008748Y001014D01*
X008751Y001012D01*
X008755Y001010D01*
X008759Y001008D01*
X008765Y001006D01*
X008770Y001006D01*
X008773D01*
X008776Y001006D01*
X008779Y001007D01*
X008783Y001008D01*
X008787Y001011D01*
X008792Y001014D01*
X008795Y001018D01*
X008796Y001018D01*
X008797Y001020D01*
X008799Y001023D01*
X008801Y001028D01*
X008802Y001034D01*
X008804Y001041D01*
X008805Y001049D01*
X008806Y001059D01*
Y001060D01*
Y001060D01*
Y001064D01*
X008805Y001068D01*
X008805Y001073D01*
X008803Y001080D01*
X008801Y001086D01*
X008799Y001092D01*
X008795Y001097D01*
X008795Y001097D01*
X008794Y001099D01*
X008792Y001101D01*
X008789Y001103D01*
X008786Y001106D01*
X008781Y001107D01*
X008777Y001109D01*
X008772Y001109D01*
D02*
G37*
G36*
X003513Y001171D02*
X003480Y001064D01*
X003546D01*
X003513Y001171D01*
D02*
G37*
G36*
X008068Y001123D02*
X008064D01*
X008060Y001122D01*
X008056Y001120D01*
X008051Y001119D01*
X008046Y001116D01*
X008041Y001112D01*
X008036Y001107D01*
X008035Y001106D01*
X008035Y001105D01*
X008034Y001102D01*
X008032Y001100D01*
X008030Y001095D01*
X008029Y001090D01*
X008028Y001084D01*
X008027Y001078D01*
X008109D01*
Y001078D01*
Y001079D01*
X008108Y001082D01*
X008107Y001086D01*
X008106Y001091D01*
X008104Y001096D01*
X008102Y001102D01*
X008099Y001107D01*
X008095Y001112D01*
X008095Y001112D01*
X008094Y001113D01*
X008091Y001115D01*
X008088Y001117D01*
X008084Y001119D01*
X008080Y001121D01*
X008074Y001122D01*
X008068Y001123D01*
D02*
G37*
G36*
X005698D02*
X005695D01*
X005691Y001122D01*
X005686Y001120D01*
X005682Y001119D01*
X005676Y001116D01*
X005671Y001112D01*
X005666Y001107D01*
X005666Y001106D01*
X005665Y001105D01*
X005664Y001102D01*
X005662Y001100D01*
X005661Y001095D01*
X005659Y001090D01*
X005658Y001084D01*
X005657Y001078D01*
X005739D01*
Y001078D01*
Y001079D01*
X005738Y001082D01*
X005737Y001086D01*
X005736Y001091D01*
X005734Y001096D01*
X005732Y001102D01*
X005730Y001107D01*
X005726Y001112D01*
X005725Y001112D01*
X005724Y001113D01*
X005721Y001115D01*
X005719Y001117D01*
X005714Y001119D01*
X005710Y001121D01*
X005704Y001122D01*
X005698Y001123D01*
D02*
G37*
G36*
X005080Y001053D02*
X005080D01*
X005078Y001052D01*
X005074Y001050D01*
X005069Y001049D01*
X005064Y001047D01*
X005058Y001046D01*
X005044Y001042D01*
X005043Y001041D01*
X005041Y001041D01*
X005036Y001040D01*
X005031Y001038D01*
X005025Y001036D01*
X005020Y001034D01*
X005015Y001031D01*
X005012Y001029D01*
Y001028D01*
X005011Y001028D01*
X005009Y001024D01*
X005007Y001019D01*
X005006Y001017D01*
X005006Y001013D01*
Y001013D01*
Y001012D01*
X005006Y001010D01*
X005007Y001008D01*
X005008Y001002D01*
X005010Y001000D01*
X005012Y000997D01*
X005013D01*
X005013Y000996D01*
X005015Y000996D01*
X005018Y000995D01*
X005020Y000994D01*
X005024Y000993D01*
X005028Y000992D01*
X005032Y000992D01*
X005035D01*
X005037Y000992D01*
X005041Y000993D01*
X005044Y000993D01*
X005049Y000994D01*
X005054Y000996D01*
X005058Y000998D01*
X005059Y000999D01*
X005060Y000999D01*
X005062Y001001D01*
X005065Y001002D01*
X005070Y001007D01*
X005073Y001011D01*
X005075Y001014D01*
Y001014D01*
X005076Y001016D01*
X005077Y001018D01*
X005078Y001021D01*
X005079Y001024D01*
X005079Y001029D01*
X005080Y001034D01*
Y001039D01*
Y001053D01*
D02*
G37*
G36*
X004244D02*
X004243D01*
X004241Y001052D01*
X004237Y001050D01*
X004233Y001049D01*
X004228Y001047D01*
X004222Y001046D01*
X004208Y001042D01*
X004207Y001041D01*
X004204Y001041D01*
X004200Y001040D01*
X004194Y001038D01*
X004189Y001036D01*
X004184Y001034D01*
X004179Y001031D01*
X004176Y001029D01*
Y001028D01*
X004175Y001028D01*
X004172Y001024D01*
X004170Y001019D01*
X004170Y001017D01*
X004169Y001013D01*
Y001013D01*
Y001012D01*
X004170Y001010D01*
X004170Y001008D01*
X004172Y001002D01*
X004173Y001000D01*
X004176Y000997D01*
X004176D01*
X004177Y000996D01*
X004178Y000996D01*
X004181Y000995D01*
X004184Y000994D01*
X004187Y000993D01*
X004191Y000992D01*
X004196Y000992D01*
X004198D01*
X004201Y000992D01*
X004204Y000993D01*
X004208Y000993D01*
X004212Y000994D01*
X004217Y000996D01*
X004222Y000998D01*
X004222Y000999D01*
X004224Y000999D01*
X004225Y001001D01*
X004228Y001002D01*
X004234Y001007D01*
X004236Y001011D01*
X004238Y001014D01*
Y001014D01*
X004240Y001016D01*
X004240Y001018D01*
X004241Y001021D01*
X004242Y001024D01*
X004243Y001029D01*
X004244Y001034D01*
Y001039D01*
Y001053D01*
D02*
G37*
G36*
X007032D02*
X007031D01*
X007029Y001052D01*
X007025Y001050D01*
X007021Y001049D01*
X007015Y001047D01*
X007009Y001046D01*
X006996Y001042D01*
X006995Y001041D01*
X006992Y001041D01*
X006988Y001040D01*
X006982Y001038D01*
X006977Y001036D01*
X006972Y001034D01*
X006967Y001031D01*
X006964Y001029D01*
Y001028D01*
X006962Y001028D01*
X006960Y001024D01*
X006958Y001019D01*
X006958Y001017D01*
X006957Y001013D01*
Y001013D01*
Y001012D01*
X006958Y001010D01*
X006958Y001008D01*
X006960Y001002D01*
X006961Y001000D01*
X006964Y000997D01*
X006964D01*
X006965Y000996D01*
X006966Y000996D01*
X006969Y000995D01*
X006972Y000994D01*
X006975Y000993D01*
X006979Y000992D01*
X006984Y000992D01*
X006986D01*
X006989Y000992D01*
X006992Y000993D01*
X006996Y000993D01*
X007000Y000994D01*
X007005Y000996D01*
X007009Y000998D01*
X007010Y000999D01*
X007012Y000999D01*
X007013Y001001D01*
X007016Y001002D01*
X007021Y001007D01*
X007024Y001011D01*
X007026Y001014D01*
Y001014D01*
X007027Y001016D01*
X007028Y001018D01*
X007029Y001021D01*
X007030Y001024D01*
X007031Y001029D01*
X007032Y001034D01*
Y001039D01*
Y001053D01*
D02*
G37*
G36*
X009043Y001114D02*
X009041D01*
X009037Y001114D01*
X009033Y001113D01*
X009028Y001111D01*
X009023Y001108D01*
X009018Y001105D01*
X009013Y001100D01*
X009013Y001100D01*
X009012Y001097D01*
X009009Y001094D01*
X009008Y001090D01*
X009006Y001084D01*
X009003Y001076D01*
X009002Y001067D01*
X009002Y001058D01*
Y001057D01*
Y001056D01*
Y001055D01*
Y001053D01*
X009002Y001048D01*
X009003Y001041D01*
X009004Y001035D01*
X009007Y001028D01*
X009009Y001021D01*
X009013Y001015D01*
X009014Y001014D01*
X009015Y001013D01*
X009018Y001011D01*
X009021Y001008D01*
X009026Y001006D01*
X009031Y001004D01*
X009037Y001002D01*
X009043Y001001D01*
X009046D01*
X009049Y001002D01*
X009053Y001003D01*
X009058Y001005D01*
X009063Y001007D01*
X009068Y001010D01*
X009072Y001014D01*
X009073Y001015D01*
X009074Y001017D01*
X009076Y001020D01*
X009078Y001025D01*
X009080Y001031D01*
X009083Y001039D01*
X009084Y001048D01*
X009084Y001059D01*
Y001059D01*
Y001060D01*
Y001063D01*
X009084Y001068D01*
X009083Y001074D01*
X009081Y001081D01*
X009079Y001088D01*
X009076Y001095D01*
X009072Y001100D01*
X009072Y001101D01*
X009070Y001102D01*
X009068Y001105D01*
X009065Y001107D01*
X009060Y001110D01*
X009055Y001112D01*
X009049Y001114D01*
X009043Y001114D01*
D02*
G37*
G36*
X008519Y001053D02*
X008518D01*
X008516Y001052D01*
X008512Y001050D01*
X008508Y001049D01*
X008502Y001047D01*
X008496Y001046D01*
X008483Y001042D01*
X008481Y001041D01*
X008479Y001041D01*
X008474Y001040D01*
X008469Y001038D01*
X008463Y001036D01*
X008458Y001034D01*
X008454Y001031D01*
X008450Y001029D01*
Y001028D01*
X008449Y001028D01*
X008447Y001024D01*
X008445Y001019D01*
X008444Y001017D01*
X008444Y001013D01*
Y001013D01*
Y001012D01*
X008444Y001010D01*
X008445Y001008D01*
X008446Y001002D01*
X008448Y001000D01*
X008450Y000997D01*
X008451D01*
X008451Y000996D01*
X008453Y000996D01*
X008456Y000995D01*
X008458Y000994D01*
X008462Y000993D01*
X008466Y000992D01*
X008471Y000992D01*
X008473D01*
X008475Y000992D01*
X008479Y000993D01*
X008483Y000993D01*
X008487Y000994D01*
X008492Y000996D01*
X008496Y000998D01*
X008497Y000999D01*
X008498Y000999D01*
X008500Y001001D01*
X008503Y001002D01*
X008508Y001007D01*
X008511Y001011D01*
X008513Y001014D01*
Y001014D01*
X008514Y001016D01*
X008515Y001018D01*
X008516Y001021D01*
X008517Y001024D01*
X008517Y001029D01*
X008519Y001034D01*
Y001039D01*
Y001053D01*
D02*
G37*
G36*
X008011Y001962D02*
X008008D01*
X008005Y001961D01*
X008001Y001960D01*
X007997Y001959D01*
X007993Y001957D01*
X007989Y001953D01*
X007985Y001950D01*
X007984Y001949D01*
X007983Y001947D01*
X007982Y001945D01*
X007981Y001940D01*
X007979Y001935D01*
X007977Y001929D01*
X007976Y001921D01*
X007976Y001911D01*
Y001910D01*
Y001908D01*
X007976Y001903D01*
X007977Y001898D01*
X007978Y001892D01*
X007980Y001886D01*
X007982Y001881D01*
X007986Y001876D01*
X007986Y001875D01*
X007987Y001874D01*
X007989Y001873D01*
X007993Y001870D01*
X007997Y001868D01*
X008001Y001867D01*
X008006Y001866D01*
X008012Y001865D01*
X008015D01*
X008017Y001866D01*
X008021Y001867D01*
X008025Y001868D01*
X008030Y001870D01*
X008034Y001873D01*
X008038Y001876D01*
X008039Y001877D01*
X008040Y001879D01*
X008041Y001881D01*
X008043Y001886D01*
X008046Y001891D01*
X008047Y001897D01*
X008048Y001904D01*
X008049Y001912D01*
Y001913D01*
Y001914D01*
Y001916D01*
X008048Y001921D01*
X008047Y001926D01*
X008046Y001932D01*
X008044Y001938D01*
X008041Y001944D01*
X008037Y001949D01*
X008037Y001949D01*
X008035Y001951D01*
X008033Y001953D01*
X008030Y001955D01*
X008026Y001957D01*
X008022Y001959D01*
X008016Y001961D01*
X008011Y001962D01*
D02*
G37*
G36*
X005485Y001973D02*
X005482D01*
X005478Y001972D01*
X005474Y001970D01*
X005469Y001969D01*
X005464Y001966D01*
X005459Y001962D01*
X005454Y001957D01*
X005453Y001956D01*
X005453Y001955D01*
X005452Y001952D01*
X005450Y001950D01*
X005448Y001945D01*
X005447Y001940D01*
X005446Y001934D01*
X005445Y001928D01*
X005526D01*
Y001928D01*
Y001929D01*
X005526Y001932D01*
X005525Y001936D01*
X005524Y001941D01*
X005522Y001946D01*
X005520Y001952D01*
X005517Y001957D01*
X005513Y001962D01*
X005513Y001962D01*
X005512Y001963D01*
X005509Y001965D01*
X005506Y001967D01*
X005502Y001969D01*
X005497Y001971D01*
X005491Y001972D01*
X005485Y001973D01*
D02*
G37*
G36*
X004515Y001961D02*
X004512D01*
X004509Y001960D01*
X004505Y001959D01*
X004501Y001957D01*
X004497Y001955D01*
X004492Y001952D01*
X004488Y001948D01*
X004487Y001947D01*
X004486Y001946D01*
X004485Y001943D01*
X004483Y001938D01*
X004481Y001933D01*
X004479Y001926D01*
X004478Y001917D01*
X004478Y001908D01*
Y001907D01*
Y001906D01*
Y001903D01*
X004478Y001899D01*
X004479Y001893D01*
X004480Y001887D01*
X004482Y001881D01*
X004485Y001875D01*
X004488Y001869D01*
X004489Y001869D01*
X004491Y001868D01*
X004493Y001866D01*
X004496Y001863D01*
X004500Y001861D01*
X004505Y001859D01*
X004510Y001858D01*
X004516Y001857D01*
X004518D01*
X004521Y001858D01*
X004525Y001859D01*
X004528Y001860D01*
X004532Y001862D01*
X004537Y001865D01*
X004540Y001869D01*
X004541Y001869D01*
X004542Y001871D01*
X004544Y001874D01*
X004545Y001879D01*
X004547Y001884D01*
X004549Y001891D01*
X004550Y001899D01*
X004550Y001909D01*
Y001910D01*
Y001910D01*
Y001914D01*
X004550Y001918D01*
X004549Y001924D01*
X004547Y001930D01*
X004546Y001937D01*
X004543Y001943D01*
X004540Y001948D01*
X004539Y001949D01*
X004538Y001950D01*
X004536Y001952D01*
X004533Y001955D01*
X004529Y001957D01*
X004525Y001958D01*
X004520Y001960D01*
X004515Y001961D01*
D02*
G37*
G36*
X004090Y001964D02*
X004088D01*
X004084Y001964D01*
X004080Y001963D01*
X004075Y001961D01*
X004070Y001958D01*
X004065Y001955D01*
X004060Y001950D01*
X004060Y001950D01*
X004059Y001947D01*
X004057Y001944D01*
X004055Y001940D01*
X004053Y001934D01*
X004051Y001926D01*
X004049Y001917D01*
X004049Y001908D01*
Y001907D01*
Y001906D01*
Y001905D01*
Y001903D01*
X004049Y001898D01*
X004051Y001891D01*
X004052Y001885D01*
X004054Y001878D01*
X004057Y001871D01*
X004060Y001865D01*
X004061Y001864D01*
X004063Y001863D01*
X004065Y001861D01*
X004069Y001858D01*
X004073Y001856D01*
X004078Y001854D01*
X004084Y001852D01*
X004090Y001851D01*
X004093D01*
X004096Y001852D01*
X004100Y001853D01*
X004105Y001855D01*
X004110Y001857D01*
X004115Y001860D01*
X004119Y001864D01*
X004120Y001865D01*
X004121Y001867D01*
X004123Y001870D01*
X004125Y001875D01*
X004128Y001881D01*
X004130Y001889D01*
X004131Y001898D01*
X004131Y001909D01*
Y001909D01*
Y001910D01*
Y001913D01*
X004131Y001918D01*
X004130Y001924D01*
X004129Y001931D01*
X004126Y001938D01*
X004123Y001945D01*
X004119Y001950D01*
X004119Y001951D01*
X004117Y001952D01*
X004115Y001955D01*
X004112Y001957D01*
X004107Y001960D01*
X004102Y001962D01*
X004096Y001964D01*
X004090Y001964D01*
D02*
G37*
G36*
X006159D02*
X006156D01*
X006152Y001964D01*
X006148Y001963D01*
X006143Y001961D01*
X006138Y001958D01*
X006134Y001955D01*
X006129Y001950D01*
X006128Y001950D01*
X006127Y001947D01*
X006125Y001944D01*
X006123Y001940D01*
X006121Y001934D01*
X006119Y001926D01*
X006118Y001917D01*
X006117Y001908D01*
Y001907D01*
Y001906D01*
Y001905D01*
Y001903D01*
X006118Y001898D01*
X006119Y001891D01*
X006120Y001885D01*
X006122Y001878D01*
X006125Y001871D01*
X006129Y001865D01*
X006129Y001864D01*
X006131Y001863D01*
X006134Y001861D01*
X006137Y001858D01*
X006141Y001856D01*
X006146Y001854D01*
X006152Y001852D01*
X006158Y001851D01*
X006161D01*
X006165Y001852D01*
X006169Y001853D01*
X006173Y001855D01*
X006178Y001857D01*
X006183Y001860D01*
X006188Y001864D01*
X006188Y001865D01*
X006189Y001867D01*
X006191Y001870D01*
X006194Y001875D01*
X006196Y001881D01*
X006198Y001889D01*
X006199Y001898D01*
X006200Y001909D01*
Y001909D01*
Y001910D01*
Y001913D01*
X006199Y001918D01*
X006198Y001924D01*
X006197Y001931D01*
X006195Y001938D01*
X006191Y001945D01*
X006188Y001950D01*
X006187Y001951D01*
X006185Y001952D01*
X006183Y001955D01*
X006180Y001957D01*
X006176Y001960D01*
X006171Y001962D01*
X006165Y001964D01*
X006159Y001964D01*
D02*
G37*
G36*
X002869Y002039D02*
X002843D01*
Y001972D01*
X002870D01*
X002874Y001973D01*
X002880Y001973D01*
X002886Y001974D01*
X002893Y001976D01*
X002898Y001978D01*
X002903Y001981D01*
X002903Y001981D01*
X002905Y001982D01*
X002906Y001985D01*
X002908Y001987D01*
X002911Y001991D01*
X002912Y001995D01*
X002913Y001999D01*
X002914Y002005D01*
Y002005D01*
Y002007D01*
X002913Y002010D01*
X002913Y002013D01*
X002912Y002017D01*
X002909Y002021D01*
X002907Y002025D01*
X002904Y002029D01*
X002903Y002029D01*
X002902Y002030D01*
X002900Y002032D01*
X002896Y002034D01*
X002891Y002035D01*
X002885Y002037D01*
X002878Y002038D01*
X002869Y002039D01*
D02*
G37*
G36*
X009578Y001123D02*
X009575D01*
X009571Y001122D01*
X009567Y001120D01*
X009562Y001119D01*
X009556Y001116D01*
X009552Y001112D01*
X009547Y001107D01*
X009546Y001106D01*
X009546Y001105D01*
X009544Y001102D01*
X009543Y001100D01*
X009541Y001095D01*
X009540Y001090D01*
X009538Y001084D01*
X009537Y001078D01*
X009619D01*
Y001078D01*
Y001079D01*
X009619Y001082D01*
X009618Y001086D01*
X009617Y001091D01*
X009615Y001096D01*
X009613Y001102D01*
X009610Y001107D01*
X009606Y001112D01*
X009606Y001112D01*
X009605Y001113D01*
X009602Y001115D01*
X009599Y001117D01*
X009595Y001119D01*
X009590Y001121D01*
X009584Y001122D01*
X009578Y001123D01*
D02*
G37*
G36*
X002269Y001189D02*
X002243D01*
Y001122D01*
X002270D01*
X002274Y001123D01*
X002280Y001123D01*
X002286Y001124D01*
X002293Y001126D01*
X002298Y001128D01*
X002303Y001131D01*
X002303Y001131D01*
X002305Y001132D01*
X002306Y001135D01*
X002308Y001137D01*
X002311Y001141D01*
X002312Y001145D01*
X002313Y001149D01*
X002314Y001155D01*
Y001155D01*
Y001157D01*
X002313Y001160D01*
X002313Y001163D01*
X002312Y001167D01*
X002309Y001171D01*
X002307Y001175D01*
X002304Y001179D01*
X002303Y001179D01*
X002302Y001180D01*
X002300Y001182D01*
X002296Y001184D01*
X002291Y001185D01*
X002285Y001187D01*
X002278Y001188D01*
X002269Y001189D01*
D02*
G37*
G36*
X006856Y001973D02*
X006853D01*
X006849Y001972D01*
X006845Y001970D01*
X006840Y001969D01*
X006835Y001966D01*
X006830Y001962D01*
X006825Y001957D01*
X006824Y001956D01*
X006824Y001955D01*
X006823Y001952D01*
X006821Y001950D01*
X006819Y001945D01*
X006818Y001940D01*
X006817Y001934D01*
X006816Y001928D01*
X006897D01*
Y001928D01*
Y001929D01*
X006897Y001932D01*
X006896Y001936D01*
X006895Y001941D01*
X006893Y001946D01*
X006891Y001952D01*
X006888Y001957D01*
X006884Y001962D01*
X006884Y001962D01*
X006883Y001963D01*
X006880Y001965D01*
X006877Y001967D01*
X006873Y001969D01*
X006868Y001971D01*
X006862Y001972D01*
X006856Y001973D01*
D02*
G37*
G36*
X008437D02*
X008433D01*
X008429Y001972D01*
X008425Y001970D01*
X008420Y001969D01*
X008415Y001966D01*
X008410Y001962D01*
X008405Y001957D01*
X008404Y001956D01*
X008404Y001955D01*
X008403Y001952D01*
X008401Y001950D01*
X008399Y001945D01*
X008398Y001940D01*
X008397Y001934D01*
X008396Y001928D01*
X008478D01*
Y001928D01*
Y001929D01*
X008477Y001932D01*
X008476Y001936D01*
X008475Y001941D01*
X008473Y001946D01*
X008471Y001952D01*
X008468Y001957D01*
X008464Y001962D01*
X008464Y001962D01*
X008463Y001963D01*
X008460Y001965D01*
X008457Y001967D01*
X008453Y001969D01*
X008449Y001971D01*
X008443Y001972D01*
X008437Y001973D01*
D02*
G37*
%LPD*%
D24*
X006300Y002616D02*
Y003207D01*
X007008Y002616D02*
Y003207D01*
D25*
X001566Y001844D02*
X001844Y001566D01*
X001956Y002234D02*
X002234Y001956D01*
X007124Y003453D02*
Y003847D01*
X007676Y003453D02*
Y003847D01*
X008976Y002903D02*
Y003297D01*
X008424Y002903D02*
Y003297D01*
X007774Y002903D02*
Y003297D01*
X008326Y002903D02*
Y003297D01*
X003076Y003353D02*
Y003747D01*
X002524Y003353D02*
Y003747D01*
X003353Y004374D02*
X003747D01*
X003353Y004926D02*
X003747D01*
D26*
X004141Y005405D02*
Y005779D01*
X002959Y005405D02*
Y005779D01*
X003826Y005405D02*
X004141D01*
X002959D02*
X003274D01*
X003432Y005995D02*
X003668D01*
X010500Y002850D02*
Y004850D01*
Y002850D02*
X011500D01*
Y004850D01*
X010500D02*
X011500D01*
X001100Y002850D02*
Y004850D01*
X000100D02*
X001100D01*
X000100Y002850D02*
Y004850D01*
Y002850D02*
X001100D01*
X004306Y003040D02*
X005094D01*
X004306Y004260D02*
X005094D01*
X004306Y003040D02*
Y004260D01*
X005094Y003040D02*
Y004260D01*
X004550Y005156D02*
X004288D01*
Y005222D01*
X004550Y005484D01*
Y005550D01*
X004288D01*
X006522Y004112D02*
X006456Y004047D01*
Y003916D01*
X006522Y003850D01*
X006784D01*
X006850Y003916D01*
Y004047D01*
X006784Y004112D01*
X006850Y004244D02*
Y004375D01*
Y004309D01*
X006456D01*
X006522Y004244D01*
X002750Y004300D02*
X002356D01*
Y004497D01*
X002422Y004562D01*
X002553D01*
X002619Y004497D01*
Y004300D01*
Y004431D02*
X002750Y004562D01*
Y004694D02*
Y004825D01*
Y004759D01*
X002356D01*
X002422Y004694D01*
X004562Y004828D02*
X004497Y004894D01*
X004366D01*
X004300Y004828D01*
Y004566D01*
X004366Y004500D01*
X004497D01*
X004562Y004566D01*
X004956Y004500D02*
X004694D01*
X004956Y004762D01*
Y004828D01*
X004890Y004894D01*
X004759D01*
X004694Y004828D01*
X009200Y005494D02*
Y005100D01*
X009462D01*
X009856Y005494D02*
X009594D01*
Y005100D01*
X009856D01*
X009594Y005297D02*
X009725D01*
X009987Y005494D02*
Y005100D01*
X010184D01*
X010250Y005166D01*
Y005428D01*
X010184Y005494D01*
X009987D01*
X010381Y005100D02*
X010512D01*
X010446D01*
Y005494D01*
X010381Y005428D01*
X002300Y002150D02*
X002022Y002428D01*
X002161Y002567D01*
X002254D01*
X002346Y002475D01*
Y002382D01*
X002207Y002243D01*
X002300Y002336D02*
X002486D01*
Y002892D02*
X002300Y002707D01*
X002439Y002567D01*
X002486Y002707D01*
X002532Y002753D01*
X002625D01*
X002717Y002660D01*
Y002567D01*
X002625Y002475D01*
X002532D01*
X001000Y005444D02*
Y005050D01*
X001262D01*
X001656Y005444D02*
X001394D01*
Y005050D01*
X001656D01*
X001394Y005247D02*
X001525D01*
X001787Y005444D02*
Y005050D01*
X001984D01*
X002050Y005116D01*
Y005378D01*
X001984Y005444D01*
X001787D01*
X002443Y005050D02*
X002181D01*
X002443Y005312D01*
Y005378D01*
X002378Y005444D01*
X002246D01*
X002181Y005378D01*
X008250Y003800D02*
X007856D01*
Y003997D01*
X007922Y004062D01*
X008053D01*
X008119Y003997D01*
Y003800D01*
Y003931D02*
X008250Y004062D01*
Y004456D02*
Y004194D01*
X007988Y004456D01*
X007922D01*
X007856Y004390D01*
Y004259D01*
X007922Y004194D01*
X005350Y004744D02*
Y004416D01*
X005416Y004350D01*
X005547D01*
X005612Y004416D01*
Y004744D01*
X007200Y002950D02*
X007594D01*
Y002753D01*
X007528Y002688D01*
X007397D01*
X007331Y002753D01*
Y002950D01*
Y002819D02*
X007200Y002688D01*
Y002360D02*
X007594D01*
X007397Y002556D01*
Y002294D01*
X008900Y003800D02*
X008506D01*
Y003997D01*
X008572Y004062D01*
X008703D01*
X008769Y003997D01*
Y003800D01*
Y003931D02*
X008900Y004062D01*
X008572Y004194D02*
X008506Y004259D01*
Y004390D01*
X008572Y004456D01*
X008638D01*
X008703Y004390D01*
Y004325D01*
Y004390D01*
X008769Y004456D01*
X008834D01*
X008900Y004390D01*
Y004259D01*
X008834Y004194D01*
D27*
X005350Y002900D02*
Y002800D01*
X005250D01*
Y002900D01*
X005350D01*
M02*
