%FSAX24Y24*%
%MOIN*%
G70*
G01*
G75*
G04 Layer_Physical_Order=1*
G04 Layer_Color=255*
%ADD10R,0.0500X0.0600*%
G04:AMPARAMS|DCode=11|XSize=39.4mil|YSize=43.3mil|CornerRadius=0mil|HoleSize=0mil|Usage=FLASHONLY|Rotation=225.000|XOffset=0mil|YOffset=0mil|HoleType=Round|Shape=Rectangle|*
%AMROTATEDRECTD11*
4,1,4,-0.0014,0.0292,0.0292,-0.0014,0.0014,-0.0292,-0.0292,0.0014,-0.0014,0.0292,0.0*
%
%ADD11ROTATEDRECTD11*%

%ADD12R,0.0394X0.0433*%
%ADD13R,0.0433X0.0394*%
%ADD14R,0.0310X0.0370*%
%ADD15R,0.0571X0.0177*%
%ADD16C,0.0197*%
%ADD17C,0.0118*%
%ADD18C,0.0900*%
%ADD19C,0.0591*%
%ADD20R,0.0591X0.0591*%
%ADD21C,0.0394*%
G36*
X003316Y005043D02*
X003784D01*
Y005059D01*
X004443D01*
X004559Y004943D01*
Y004331D01*
X004570Y004277D01*
X004601Y004232D01*
X004876Y003957D01*
X004852Y003912D01*
X004822Y003918D01*
X004198D01*
Y004201D01*
X003974D01*
Y004374D01*
X004180D01*
Y004926D01*
X003589D01*
Y004374D01*
X003693D01*
Y004201D01*
X003470D01*
Y003945D01*
Y003918D01*
X003076D01*
Y004180D01*
X002524D01*
Y003589D01*
X003075D01*
X003094Y003543D01*
X003062Y003511D01*
X002524D01*
Y002941D01*
X002210D01*
X002182Y002982D01*
X002215Y003062D01*
X002233Y003200D01*
X002215Y003338D01*
X002162Y003467D01*
X002077Y003577D01*
X001967Y003662D01*
X001838Y003715D01*
X001700Y003733D01*
X001562Y003715D01*
X001433Y003662D01*
X001323Y003577D01*
X001238Y003467D01*
X001185Y003338D01*
X001167Y003200D01*
X001185Y003062D01*
X001238Y002933D01*
X001323Y002823D01*
X001433Y002738D01*
X001562Y002685D01*
X001700Y002667D01*
X001838Y002685D01*
X001964Y002737D01*
X002001Y002701D01*
X002046Y002670D01*
X002100Y002659D01*
X003000D01*
X003054Y002670D01*
X003099Y002701D01*
X003498Y003099D01*
X004198D01*
Y003355D01*
Y003611D01*
Y003637D01*
X004764D01*
X004979Y003423D01*
X005024Y003392D01*
X005078Y003382D01*
X005181D01*
Y003316D01*
X005952D01*
Y003382D01*
X006321D01*
Y003021D01*
X006979D01*
Y003210D01*
X007124D01*
Y003020D01*
X007381D01*
X007651Y002751D01*
X007696Y002720D01*
X007750Y002709D01*
X007774D01*
Y002470D01*
X008326D01*
Y003061D01*
X007774D01*
X007774Y003061D01*
Y003061D01*
X007749Y003050D01*
X007676Y003123D01*
Y003611D01*
X007124D01*
Y003490D01*
X006979D01*
Y003779D01*
D01*
Y003779D01*
X007010Y003810D01*
X007124D01*
Y003689D01*
X007674D01*
X007684Y003682D01*
X007738Y003672D01*
X007774D01*
Y003139D01*
X008326D01*
Y003259D01*
X008424D01*
Y003139D01*
X008976D01*
Y003259D01*
X009337D01*
X009370Y003222D01*
X009367Y003200D01*
X009385Y003062D01*
X009403Y003018D01*
X009364Y002987D01*
X009319Y003017D01*
X009250Y003031D01*
X008976D01*
Y003061D01*
X008424D01*
Y002470D01*
X008976D01*
Y002669D01*
X009175D01*
X009472Y002372D01*
X009531Y002333D01*
X009600Y002319D01*
X010250D01*
X010319Y002333D01*
X010378Y002372D01*
X010981Y002976D01*
X011374D01*
D01*
X011374D01*
X011400Y002950D01*
Y002900D01*
X008750Y000250D01*
X002850D01*
X000350Y002750D01*
Y003014D01*
X000377Y003027D01*
X000419Y003001D01*
Y003000D01*
X000433Y002931D01*
X000472Y002872D01*
X001283Y002061D01*
X001342Y002022D01*
X001400Y002011D01*
X001677Y001733D01*
X002067Y002123D01*
X001649Y002540D01*
X001482Y002373D01*
X000840Y003015D01*
X000843Y003065D01*
X000867Y003083D01*
X000927Y003161D01*
X000964Y003252D01*
X000977Y003350D01*
X000964Y003448D01*
X000927Y003539D01*
X000867Y003617D01*
X000789Y003677D01*
X000698Y003714D01*
X000600Y003727D01*
X000502Y003714D01*
X000411Y003677D01*
X000395Y003664D01*
X000350Y003686D01*
Y003976D01*
X000974D01*
Y004724D01*
X000974Y004724D01*
X000974D01*
X000974Y004725D01*
X001508Y005260D01*
X003316D01*
Y005043D01*
D02*
G37*
G36*
X007832Y006571D02*
X007522D01*
Y006476D01*
X007809D01*
Y006354D01*
X007522D01*
Y006236D01*
X007841D01*
Y006100D01*
X007336D01*
Y006699D01*
X007832D01*
Y006571D01*
D02*
G37*
G36*
X006982Y006698D02*
X006989D01*
X007008Y006696D01*
X007030Y006694D01*
X007052Y006689D01*
X007074Y006684D01*
X007093Y006676D01*
X007094D01*
X007095Y006675D01*
X007102Y006672D01*
X007111Y006667D01*
X007123Y006660D01*
X007136Y006651D01*
X007150Y006640D01*
X007163Y006627D01*
X007176Y006613D01*
X007177Y006610D01*
X007182Y006605D01*
X007187Y006597D01*
X007195Y006585D01*
X007203Y006571D01*
X007210Y006555D01*
X007217Y006536D01*
X007223Y006516D01*
Y006515D01*
X007224Y006514D01*
Y006511D01*
X007225Y006507D01*
X007228Y006496D01*
X007231Y006481D01*
X007234Y006464D01*
X007236Y006444D01*
X007238Y006424D01*
X007239Y006401D01*
Y006399D01*
Y006396D01*
Y006392D01*
Y006385D01*
X007238Y006377D01*
Y006368D01*
X007235Y006346D01*
X007233Y006323D01*
X007229Y006298D01*
X007223Y006274D01*
X007216Y006252D01*
Y006251D01*
X007215Y006250D01*
X007211Y006243D01*
X007207Y006233D01*
X007200Y006221D01*
X007192Y006207D01*
X007181Y006193D01*
X007169Y006178D01*
X007154Y006163D01*
X007152Y006162D01*
X007148Y006158D01*
X007140Y006151D01*
X007130Y006144D01*
X007117Y006136D01*
X007104Y006128D01*
X007089Y006121D01*
X007072Y006115D01*
X007071D01*
X007070Y006114D01*
X007067D01*
X007063Y006113D01*
X007051Y006111D01*
X007035Y006108D01*
X007019Y006104D01*
X006999Y006102D01*
X006981Y006101D01*
X006961Y006100D01*
X006687D01*
Y006699D01*
X006974D01*
X006982Y006698D01*
D02*
G37*
G36*
X004030Y007600D02*
Y006850D01*
X004030Y006850D01*
X004039Y006804D01*
X004065Y006765D01*
X005765Y005065D01*
X005804Y005039D01*
X005850Y005030D01*
X008500D01*
X008500Y005030D01*
X008546Y005039D01*
X008585Y005065D01*
X008632Y005111D01*
X008661D01*
Y005141D01*
X008735Y005215D01*
X008761Y005254D01*
X008770Y005300D01*
X008770Y005300D01*
Y007264D01*
X008817Y007283D01*
X011400Y004700D01*
Y004490D01*
X011351Y004480D01*
X011327Y004539D01*
X011267Y004617D01*
X011189Y004677D01*
X011098Y004714D01*
X011000Y004727D01*
X010902Y004714D01*
X010811Y004677D01*
X010733Y004617D01*
X010673Y004539D01*
X010636Y004448D01*
X010623Y004350D01*
X010636Y004252D01*
X010656Y004204D01*
X010404Y003953D01*
X010263D01*
X010247Y004000D01*
X010277Y004023D01*
X010362Y004133D01*
X010415Y004262D01*
X010433Y004400D01*
X010415Y004538D01*
X010362Y004667D01*
X010277Y004777D01*
X010167Y004862D01*
X010038Y004915D01*
X009900Y004933D01*
X009762Y004915D01*
X009633Y004862D01*
X009523Y004777D01*
X009438Y004667D01*
X009385Y004538D01*
X009367Y004400D01*
X009383Y004278D01*
X009350Y004241D01*
X008008D01*
X007699Y004549D01*
X007654Y004580D01*
X007600Y004590D01*
X007200D01*
X007146Y004580D01*
X007101Y004549D01*
X006892Y004340D01*
X006250D01*
X006196Y004330D01*
X006151Y004299D01*
X006026Y004174D01*
X005930D01*
Y004201D01*
X005307D01*
X005037Y004471D01*
Y005103D01*
X005027Y005157D01*
X004996Y005203D01*
X004699Y005499D01*
X004654Y005530D01*
X004600Y005540D01*
X004208D01*
X003986Y005763D01*
X004005Y005809D01*
X004179D01*
Y006044D01*
X003669D01*
Y005840D01*
X003410D01*
Y006357D01*
X002942D01*
Y005840D01*
X002658D01*
X002604Y005894D01*
X002618Y005928D01*
X002628Y006000D01*
X002618Y006072D01*
X002591Y006139D01*
X002547Y006197D01*
X002489Y006241D01*
X002422Y006269D01*
X002350Y006278D01*
X002278Y006269D01*
X002211Y006241D01*
X002153Y006197D01*
X002109Y006139D01*
X002081Y006072D01*
X002072Y006000D01*
X002081Y005928D01*
X002109Y005861D01*
X002153Y005803D01*
X002211Y005759D01*
X002278Y005731D01*
X002350Y005722D01*
X002376Y005725D01*
X002501Y005601D01*
X002519Y005588D01*
X002505Y005540D01*
X001450D01*
X001396Y005530D01*
X001351Y005499D01*
X000575Y004724D01*
X000350D01*
Y004850D01*
X003100Y007600D01*
X004030D01*
X004030Y007600D01*
D02*
G37*
G36*
X006552Y006100D02*
X006366D01*
Y006699D01*
X006552D01*
Y006100D01*
D02*
G37*
G36*
X008280Y006698D02*
X008300Y006697D01*
X008321Y006696D01*
X008343Y006692D01*
X008363Y006689D01*
X008382Y006684D01*
X008384Y006683D01*
X008390Y006680D01*
X008398Y006677D01*
X008408Y006672D01*
X008420Y006664D01*
X008432Y006654D01*
X008444Y006643D01*
X008455Y006629D01*
X008456Y006627D01*
X008459Y006622D01*
X008464Y006614D01*
X008469Y006602D01*
X008475Y006587D01*
X008479Y006571D01*
X008482Y006553D01*
X008484Y006532D01*
Y006530D01*
Y006523D01*
X008482Y006514D01*
X008481Y006502D01*
X008478Y006489D01*
X008475Y006475D01*
X008469Y006460D01*
X008462Y006445D01*
X008461Y006444D01*
X008458Y006440D01*
X008453Y006433D01*
X008446Y006425D01*
X008438Y006416D01*
X008428Y006406D01*
X008416Y006396D01*
X008403Y006387D01*
X008402Y006386D01*
X008398Y006385D01*
X008393Y006382D01*
X008386Y006379D01*
X008376Y006375D01*
X008365Y006371D01*
X008352Y006368D01*
X008338Y006363D01*
X008339D01*
X008344Y006361D01*
X008349Y006359D01*
X008357Y006357D01*
X008372Y006349D01*
X008380Y006346D01*
X008386Y006342D01*
X008388Y006340D01*
X008391Y006338D01*
X008394Y006335D01*
X008398Y006331D01*
X008403Y006325D01*
X008409Y006319D01*
X008416Y006310D01*
X008417Y006309D01*
X008419Y006305D01*
X008422Y006301D01*
X008427Y006297D01*
X008435Y006284D01*
X008439Y006278D01*
X008442Y006273D01*
X008533Y006100D01*
X008323D01*
X008223Y006283D01*
X008222Y006284D01*
X008220Y006288D01*
X008217Y006295D01*
X008212Y006301D01*
X008202Y006316D01*
X008195Y006323D01*
X008190Y006328D01*
X008188Y006330D01*
X008186Y006331D01*
X008182Y006333D01*
X008176Y006336D01*
X008170Y006338D01*
X008162Y006340D01*
X008153Y006342D01*
X008144Y006343D01*
X008128D01*
Y006100D01*
X007943D01*
Y006699D01*
X008273D01*
X008280Y006698D01*
D02*
G37*
G36*
X007857Y005250D02*
X007689D01*
Y005648D01*
X007687Y005647D01*
X007682Y005642D01*
X007674Y005637D01*
X007664Y005629D01*
X007652Y005622D01*
X007638Y005613D01*
X007623Y005604D01*
X007609Y005596D01*
X007607Y005595D01*
X007603Y005593D01*
X007594Y005590D01*
X007583Y005586D01*
X007569Y005580D01*
X007553Y005574D01*
X007535Y005568D01*
X007514Y005562D01*
Y005697D01*
X007515D01*
X007517Y005698D01*
X007522Y005700D01*
X007528Y005701D01*
X007535Y005705D01*
X007544Y005708D01*
X007562Y005716D01*
X007583Y005725D01*
X007605Y005736D01*
X007627Y005748D01*
X007645Y005763D01*
X007646D01*
X007647Y005765D01*
X007653Y005769D01*
X007662Y005778D01*
X007673Y005790D01*
X007685Y005803D01*
X007697Y005819D01*
X007709Y005838D01*
X007720Y005859D01*
X007857D01*
Y005250D01*
D02*
G37*
G36*
X008321Y005858D02*
X008336Y005857D01*
X008355Y005854D01*
X008373Y005851D01*
X008392Y005847D01*
X008408Y005841D01*
X008410Y005840D01*
X008415Y005838D01*
X008422Y005835D01*
X008432Y005829D01*
X008443Y005823D01*
X008455Y005814D01*
X008466Y005804D01*
X008477Y005793D01*
X008478Y005792D01*
X008481Y005788D01*
X008487Y005780D01*
X008492Y005771D01*
X008500Y005759D01*
X008506Y005746D01*
X008513Y005730D01*
X008520Y005712D01*
X008355Y005693D01*
Y005694D01*
X008353Y005698D01*
X008351Y005705D01*
X008349Y005711D01*
X008341Y005728D01*
X008337Y005734D01*
X008332Y005741D01*
X008331Y005742D01*
X008329Y005743D01*
X008326Y005745D01*
X008322Y005748D01*
X008310Y005754D01*
X008302Y005755D01*
X008294Y005756D01*
X008292D01*
X008288Y005755D01*
X008280Y005754D01*
X008271Y005751D01*
X008261Y005746D01*
X008251Y005739D01*
X008240Y005729D01*
X008231Y005715D01*
X008230Y005713D01*
X008229Y005708D01*
X008226Y005700D01*
X008223Y005695D01*
X008222Y005688D01*
X008220Y005680D01*
X008218Y005671D01*
X008216Y005661D01*
X008214Y005649D01*
X008212Y005636D01*
X008210Y005622D01*
X008208Y005606D01*
X008207Y005589D01*
X008208Y005590D01*
X008212Y005594D01*
X008218Y005600D01*
X008226Y005606D01*
X008235Y005613D01*
X008245Y005621D01*
X008256Y005628D01*
X008268Y005634D01*
X008269Y005635D01*
X008274Y005636D01*
X008280Y005638D01*
X008289Y005641D01*
X008300Y005645D01*
X008312Y005647D01*
X008326Y005648D01*
X008340Y005649D01*
X008348D01*
X008353Y005648D01*
X008361Y005647D01*
X008369Y005646D01*
X008387Y005641D01*
X008409Y005635D01*
X008432Y005625D01*
X008444Y005618D01*
X008455Y005611D01*
X008466Y005601D01*
X008477Y005591D01*
X008478Y005590D01*
X008479Y005589D01*
X008482Y005586D01*
X008486Y005581D01*
X008490Y005576D01*
X008494Y005568D01*
X008500Y005560D01*
X008505Y005552D01*
X008515Y005531D01*
X008524Y005506D01*
X008531Y005478D01*
X008532Y005463D01*
X008533Y005447D01*
Y005446D01*
Y005445D01*
Y005441D01*
Y005437D01*
X008532Y005426D01*
X008529Y005411D01*
X008526Y005394D01*
X008521Y005376D01*
X008514Y005357D01*
X008504Y005339D01*
X008503Y005336D01*
X008499Y005331D01*
X008492Y005322D01*
X008484Y005311D01*
X008473Y005299D01*
X008459Y005286D01*
X008443Y005275D01*
X008426Y005264D01*
X008423Y005263D01*
X008417Y005261D01*
X008406Y005257D01*
X008392Y005252D01*
X008374Y005248D01*
X008352Y005243D01*
X008328Y005241D01*
X008302Y005240D01*
X008287D01*
X008279Y005241D01*
X008270Y005242D01*
X008251Y005245D01*
X008228Y005248D01*
X008204Y005253D01*
X008180Y005261D01*
X008158Y005271D01*
X008157D01*
X008156Y005272D01*
X008149Y005276D01*
X008139Y005284D01*
X008126Y005295D01*
X008113Y005308D01*
X008098Y005324D01*
X008084Y005345D01*
X008070Y005368D01*
Y005369D01*
X008069Y005371D01*
X008067Y005375D01*
X008066Y005380D01*
X008063Y005387D01*
X008061Y005395D01*
X008057Y005404D01*
X008055Y005415D01*
X008052Y005427D01*
X008049Y005441D01*
X008046Y005455D01*
X008044Y005472D01*
X008042Y005488D01*
X008040Y005507D01*
X008039Y005525D01*
Y005546D01*
Y005548D01*
Y005554D01*
Y005562D01*
X008040Y005572D01*
X008041Y005586D01*
X008042Y005601D01*
X008044Y005618D01*
X008047Y005637D01*
X008055Y005675D01*
X008061Y005695D01*
X008067Y005715D01*
X008075Y005733D01*
X008085Y005752D01*
X008094Y005768D01*
X008106Y005783D01*
X008108Y005784D01*
X008110Y005787D01*
X008113Y005790D01*
X008118Y005795D01*
X008126Y005801D01*
X008135Y005807D01*
X008145Y005814D01*
X008156Y005822D01*
X008169Y005828D01*
X008183Y005835D01*
X008198Y005841D01*
X008215Y005847D01*
X008233Y005852D01*
X008253Y005856D01*
X008274Y005858D01*
X008296Y005859D01*
X008308D01*
X008321Y005858D01*
D02*
G37*
G36*
X006625D02*
X006634D01*
X006654Y005857D01*
X006676Y005853D01*
X006699Y005850D01*
X006721Y005845D01*
X006740Y005838D01*
X006741D01*
X006742Y005837D01*
X006748Y005835D01*
X006758Y005829D01*
X006769Y005823D01*
X006781Y005814D01*
X006794Y005804D01*
X006807Y005791D01*
X006818Y005777D01*
X006819Y005775D01*
X006822Y005769D01*
X006827Y005762D01*
X006832Y005749D01*
X006837Y005736D01*
X006842Y005720D01*
X006845Y005702D01*
X006846Y005684D01*
Y005683D01*
Y005682D01*
Y005678D01*
Y005675D01*
X006844Y005664D01*
X006842Y005650D01*
X006839Y005635D01*
X006832Y005616D01*
X006824Y005598D01*
X006813Y005579D01*
X006812Y005577D01*
X006807Y005570D01*
X006799Y005560D01*
X006787Y005547D01*
X006771Y005531D01*
X006761Y005522D01*
X006751Y005512D01*
X006739Y005502D01*
X006726Y005492D01*
X006712Y005481D01*
X006696Y005470D01*
X006694Y005469D01*
X006689Y005464D01*
X006680Y005458D01*
X006669Y005450D01*
X006658Y005442D01*
X006646Y005435D01*
X006636Y005427D01*
X006629Y005421D01*
X006628Y005419D01*
X006625Y005418D01*
X006622Y005415D01*
X006618Y005412D01*
X006606Y005400D01*
X006589Y005386D01*
X006851D01*
Y005250D01*
X006350D01*
Y005251D01*
Y005253D01*
X006351Y005258D01*
X006352Y005262D01*
X006353Y005269D01*
X006354Y005276D01*
X006360Y005295D01*
X006366Y005316D01*
X006375Y005339D01*
X006387Y005364D01*
X006401Y005388D01*
X006402Y005389D01*
X006404Y005391D01*
X006406Y005394D01*
X006410Y005400D01*
X006416Y005405D01*
X006421Y005413D01*
X006430Y005422D01*
X006439Y005431D01*
X006448Y005442D01*
X006460Y005454D01*
X006474Y005466D01*
X006489Y005481D01*
X006505Y005495D01*
X006524Y005510D01*
X006543Y005525D01*
X006565Y005542D01*
X006566Y005543D01*
X006569Y005544D01*
X006572Y005547D01*
X006577Y005551D01*
X006589Y005560D01*
X006605Y005572D01*
X006620Y005587D01*
X006636Y005600D01*
X006649Y005613D01*
X006655Y005619D01*
X006659Y005625D01*
X006660Y005626D01*
X006663Y005629D01*
X006666Y005635D01*
X006670Y005642D01*
X006674Y005650D01*
X006677Y005660D01*
X006679Y005669D01*
X006680Y005678D01*
Y005680D01*
Y005683D01*
X006679Y005688D01*
X006678Y005695D01*
X006675Y005702D01*
X006671Y005710D01*
X006666Y005718D01*
X006659Y005725D01*
X006658Y005727D01*
X006656Y005729D01*
X006652Y005732D01*
X006645Y005735D01*
X006637Y005739D01*
X006629Y005742D01*
X006619Y005744D01*
X006608Y005745D01*
X006602D01*
X006597Y005744D01*
X006589Y005743D01*
X006582Y005740D01*
X006573Y005736D01*
X006564Y005731D01*
X006555Y005724D01*
X006554Y005723D01*
X006552Y005721D01*
X006549Y005716D01*
X006545Y005708D01*
X006540Y005698D01*
X006536Y005686D01*
X006533Y005672D01*
X006529Y005654D01*
X006362Y005668D01*
Y005669D01*
Y005671D01*
X006363Y005674D01*
X006364Y005680D01*
X006366Y005692D01*
X006370Y005708D01*
X006375Y005725D01*
X006381Y005743D01*
X006388Y005760D01*
X006397Y005777D01*
X006398Y005779D01*
X006401Y005783D01*
X006408Y005790D01*
X006417Y005799D01*
X006427Y005809D01*
X006440Y005818D01*
X006454Y005828D01*
X006471Y005837D01*
X006472D01*
X006474Y005838D01*
X006480Y005840D01*
X006491Y005843D01*
X006506Y005848D01*
X006525Y005852D01*
X006548Y005856D01*
X006574Y005858D01*
X006604Y005859D01*
X006618D01*
X006625Y005858D01*
D02*
G37*
G36*
X005413Y006708D02*
X005423D01*
X005434Y006707D01*
X005446Y006706D01*
X005459Y006703D01*
X005488Y006698D01*
X005517Y006690D01*
X005544Y006679D01*
X005558Y006673D01*
X005570Y006665D01*
X005571D01*
X005572Y006663D01*
X005579Y006657D01*
X005589Y006647D01*
X005601Y006632D01*
X005608Y006624D01*
X005613Y006614D01*
X005620Y006602D01*
X005625Y006590D01*
X005631Y006577D01*
X005635Y006562D01*
X005638Y006546D01*
X005642Y006530D01*
X005467Y006520D01*
Y006522D01*
X005466Y006526D01*
X005464Y006534D01*
X005460Y006543D01*
X005456Y006551D01*
X005452Y006561D01*
X005445Y006571D01*
X005437Y006579D01*
X005436Y006580D01*
X005433Y006582D01*
X005429Y006584D01*
X005422Y006589D01*
X005413Y006592D01*
X005402Y006594D01*
X005390Y006596D01*
X005376Y006597D01*
X005371D01*
X005365Y006596D01*
X005358Y006595D01*
X005341Y006592D01*
X005334Y006587D01*
X005327Y006583D01*
X005326Y006582D01*
X005325Y006581D01*
X005319Y006574D01*
X005314Y006563D01*
X005313Y006557D01*
X005312Y006550D01*
Y006549D01*
Y006548D01*
X005314Y006542D01*
X005317Y006533D01*
X005320Y006528D01*
X005325Y006524D01*
X005326D01*
X005328Y006522D01*
X005331Y006520D01*
X005338Y006516D01*
X005346Y006513D01*
X005356Y006510D01*
X005370Y006506D01*
X005386Y006502D01*
X005387D01*
X005391Y006501D01*
X005398Y006500D01*
X005406Y006498D01*
X005415Y006496D01*
X005428Y006492D01*
X005441Y006489D01*
X005454Y006486D01*
X005482Y006478D01*
X005512Y006468D01*
X005538Y006459D01*
X005550Y006454D01*
X005561Y006449D01*
X005562D01*
X005563Y006448D01*
X005570Y006444D01*
X005578Y006439D01*
X005590Y006431D01*
X005602Y006421D01*
X005616Y006410D01*
X005628Y006397D01*
X005637Y006383D01*
X005638Y006381D01*
X005641Y006377D01*
X005645Y006368D01*
X005649Y006357D01*
X005654Y006344D01*
X005658Y006330D01*
X005660Y006312D01*
X005661Y006295D01*
Y006293D01*
Y006292D01*
Y006289D01*
Y006285D01*
X005659Y006274D01*
X005657Y006260D01*
X005654Y006243D01*
X005647Y006225D01*
X005640Y006206D01*
X005629Y006187D01*
X005628Y006185D01*
X005623Y006180D01*
X005616Y006171D01*
X005606Y006160D01*
X005593Y006148D01*
X005577Y006136D01*
X005560Y006125D01*
X005539Y006114D01*
X005538D01*
X005537Y006113D01*
X005534Y006112D01*
X005529Y006111D01*
X005524Y006109D01*
X005516Y006107D01*
X005508Y006104D01*
X005500Y006102D01*
X005479Y006098D01*
X005454Y006093D01*
X005426Y006091D01*
X005395Y006090D01*
X005381D01*
X005370Y006091D01*
X005358Y006092D01*
X005343Y006093D01*
X005328Y006095D01*
X005311Y006098D01*
X005276Y006104D01*
X005241Y006114D01*
X005224Y006121D01*
X005209Y006130D01*
X005195Y006138D01*
X005183Y006148D01*
X005182Y006149D01*
X005180Y006151D01*
X005177Y006155D01*
X005174Y006159D01*
X005170Y006164D01*
X005164Y006171D01*
X005159Y006180D01*
X005153Y006189D01*
X005141Y006210D01*
X005130Y006237D01*
X005123Y006265D01*
X005119Y006281D01*
X005117Y006298D01*
X005293Y006310D01*
Y006308D01*
X005294Y006302D01*
X005295Y006295D01*
X005299Y006286D01*
X005305Y006264D01*
X005311Y006253D01*
X005316Y006244D01*
X005317Y006243D01*
X005321Y006239D01*
X005328Y006233D01*
X005337Y006227D01*
X005349Y006219D01*
X005363Y006214D01*
X005379Y006209D01*
X005398Y006208D01*
X005405D01*
X005411Y006209D01*
X005421Y006210D01*
X005431Y006213D01*
X005441Y006216D01*
X005450Y006220D01*
X005459Y006226D01*
X005460Y006227D01*
X005462Y006229D01*
X005466Y006233D01*
X005470Y006238D01*
X005475Y006244D01*
X005478Y006252D01*
X005480Y006261D01*
X005481Y006269D01*
Y006271D01*
Y006274D01*
X005480Y006278D01*
X005479Y006284D01*
X005476Y006290D01*
X005472Y006297D01*
X005467Y006304D01*
X005460Y006311D01*
X005459Y006312D01*
X005456Y006314D01*
X005449Y006318D01*
X005441Y006322D01*
X005428Y006327D01*
X005411Y006334D01*
X005401Y006337D01*
X005390Y006339D01*
X005378Y006343D01*
X005365Y006346D01*
X005364D01*
X005360Y006347D01*
X005353Y006349D01*
X005346Y006350D01*
X005336Y006354D01*
X005324Y006357D01*
X005312Y006360D01*
X005299Y006365D01*
X005269Y006375D01*
X005241Y006387D01*
X005214Y006402D01*
X005202Y006409D01*
X005191Y006418D01*
Y006419D01*
X005189Y006420D01*
X005184Y006426D01*
X005175Y006436D01*
X005166Y006450D01*
X005156Y006466D01*
X005148Y006486D01*
X005142Y006508D01*
X005141Y006520D01*
X005140Y006533D01*
Y006534D01*
Y006535D01*
Y006540D01*
X005141Y006550D01*
X005143Y006561D01*
X005147Y006574D01*
X005151Y006590D01*
X005158Y006605D01*
X005166Y006620D01*
X005167Y006622D01*
X005172Y006627D01*
X005178Y006634D01*
X005187Y006644D01*
X005198Y006654D01*
X005212Y006665D01*
X005229Y006675D01*
X005247Y006685D01*
X005248D01*
X005249Y006686D01*
X005253Y006687D01*
X005257Y006688D01*
X005262Y006690D01*
X005269Y006692D01*
X005277Y006695D01*
X005285Y006697D01*
X005295Y006699D01*
X005307Y006701D01*
X005332Y006706D01*
X005362Y006708D01*
X005395Y006709D01*
X005406D01*
X005413Y006708D01*
D02*
G37*
G36*
X007191Y005858D02*
X007205Y005857D01*
X007220Y005856D01*
X007236Y005852D01*
X007253Y005849D01*
X007268Y005843D01*
X007270Y005842D01*
X007275Y005841D01*
X007282Y005837D01*
X007291Y005833D01*
X007301Y005827D01*
X007312Y005821D01*
X007322Y005813D01*
X007332Y005804D01*
X007333Y005803D01*
X007336Y005800D01*
X007340Y005795D01*
X007346Y005789D01*
X007352Y005782D01*
X007359Y005774D01*
X007371Y005754D01*
X007372Y005753D01*
X007373Y005749D01*
X007376Y005744D01*
X007380Y005736D01*
X007383Y005728D01*
X007386Y005717D01*
X007391Y005706D01*
X007394Y005693D01*
Y005692D01*
X007395Y005689D01*
X007396Y005686D01*
X007397Y005681D01*
X007398Y005675D01*
X007399Y005668D01*
X007403Y005650D01*
X007406Y005629D01*
X007409Y005606D01*
X007410Y005580D01*
X007411Y005554D01*
Y005552D01*
Y005546D01*
Y005539D01*
X007410Y005528D01*
X007409Y005513D01*
X007408Y005498D01*
X007407Y005482D01*
X007405Y005463D01*
X007398Y005424D01*
X007388Y005384D01*
X007382Y005366D01*
X007374Y005347D01*
X007365Y005331D01*
X007356Y005316D01*
X007354Y005314D01*
X007353Y005312D01*
X007350Y005309D01*
X007345Y005304D01*
X007338Y005298D01*
X007330Y005292D01*
X007322Y005285D01*
X007311Y005278D01*
X007299Y005271D01*
X007285Y005264D01*
X007269Y005258D01*
X007252Y005252D01*
X007233Y005247D01*
X007212Y005243D01*
X007189Y005241D01*
X007165Y005240D01*
X007152D01*
X007146Y005241D01*
X007139D01*
X007122Y005243D01*
X007102Y005246D01*
X007081Y005250D01*
X007060Y005257D01*
X007042Y005264D01*
X007040Y005265D01*
X007034Y005269D01*
X007025Y005274D01*
X007016Y005282D01*
X007003Y005292D01*
X006991Y005304D01*
X006977Y005318D01*
X006965Y005334D01*
X006964Y005335D01*
X006962Y005341D01*
X006958Y005347D01*
X006953Y005358D01*
X006948Y005370D01*
X006942Y005386D01*
X006937Y005404D01*
X006933Y005424D01*
Y005425D01*
Y005426D01*
X006931Y005429D01*
X006930Y005434D01*
X006929Y005446D01*
X006927Y005462D01*
X006925Y005481D01*
X006923Y005502D01*
X006922Y005527D01*
X006921Y005552D01*
Y005554D01*
Y005559D01*
Y005568D01*
X006922Y005579D01*
X006923Y005593D01*
X006924Y005610D01*
X006926Y005627D01*
X006928Y005646D01*
X006936Y005685D01*
X006947Y005724D01*
X006953Y005743D01*
X006962Y005760D01*
X006971Y005776D01*
X006982Y005790D01*
X006983Y005791D01*
X006985Y005793D01*
X006988Y005796D01*
X006994Y005801D01*
X007000Y005806D01*
X007008Y005812D01*
X007018Y005818D01*
X007029Y005825D01*
X007041Y005830D01*
X007055Y005837D01*
X007070Y005842D01*
X007087Y005848D01*
X007105Y005852D01*
X007125Y005856D01*
X007147Y005858D01*
X007170Y005859D01*
X007180D01*
X007191Y005858D01*
D02*
G37*
G36*
X006077Y006698D02*
X006085D01*
X006095Y006697D01*
X006117Y006694D01*
X006141Y006687D01*
X006166Y006678D01*
X006190Y006667D01*
X006201Y006660D01*
X006211Y006651D01*
X006212D01*
X006213Y006649D01*
X006216Y006645D01*
X006219Y006642D01*
X006228Y006631D01*
X006236Y006616D01*
X006245Y006596D01*
X006254Y006573D01*
X006259Y006546D01*
X006261Y006532D01*
Y006515D01*
Y006514D01*
Y006511D01*
Y006507D01*
X006260Y006500D01*
Y006492D01*
X006258Y006484D01*
X006255Y006464D01*
X006248Y006441D01*
X006239Y006417D01*
X006232Y006405D01*
X006225Y006394D01*
X006217Y006383D01*
X006207Y006373D01*
X006206D01*
X006205Y006371D01*
X006201Y006369D01*
X006197Y006366D01*
X006190Y006361D01*
X006184Y006357D01*
X006175Y006352D01*
X006165Y006348D01*
X006154Y006344D01*
X006142Y006339D01*
X006128Y006335D01*
X006113Y006331D01*
X006096Y006327D01*
X006079Y006325D01*
X006060Y006324D01*
X006040Y006323D01*
X005939D01*
Y006100D01*
X005753D01*
Y006699D01*
X006070D01*
X006077Y006698D01*
D02*
G37*
G36*
X007822Y006900D02*
X007647D01*
X007422Y007230D01*
Y006900D01*
X007248D01*
Y007499D01*
X007420D01*
X007647Y007167D01*
Y007499D01*
X007822D01*
Y006900D01*
D02*
G37*
G36*
X005514D02*
X005319D01*
X005290Y006998D01*
X005080D01*
X005050Y006900D01*
X004861D01*
X005085Y007499D01*
X005289D01*
X005514Y006900D01*
D02*
G37*
G36*
X004631Y007498D02*
X004638D01*
X004646Y007497D01*
X004666Y007494D01*
X004688Y007488D01*
X004709Y007480D01*
X004730Y007469D01*
X004750Y007455D01*
X004751D01*
X004752Y007453D01*
X004757Y007448D01*
X004765Y007439D01*
X004774Y007426D01*
X004782Y007410D01*
X004789Y007393D01*
X004795Y007372D01*
X004797Y007361D01*
Y007349D01*
Y007348D01*
Y007347D01*
Y007340D01*
X004795Y007331D01*
X004792Y007319D01*
X004788Y007304D01*
X004783Y007289D01*
X004774Y007274D01*
X004763Y007258D01*
X004762Y007257D01*
X004759Y007254D01*
X004754Y007250D01*
X004747Y007244D01*
X004738Y007238D01*
X004727Y007231D01*
X004714Y007225D01*
X004698Y007218D01*
X004700D01*
X004702Y007217D01*
X004705D01*
X004709Y007215D01*
X004720Y007211D01*
X004735Y007206D01*
X004750Y007198D01*
X004766Y007189D01*
X004780Y007178D01*
X004794Y007165D01*
X004795Y007162D01*
X004798Y007158D01*
X004803Y007149D01*
X004809Y007138D01*
X004814Y007125D01*
X004820Y007109D01*
X004823Y007090D01*
X004824Y007069D01*
Y007067D01*
Y007062D01*
X004823Y007053D01*
X004822Y007042D01*
X004819Y007029D01*
X004815Y007015D01*
X004810Y007001D01*
X004802Y006986D01*
X004801Y006985D01*
X004798Y006980D01*
X004794Y006973D01*
X004787Y006966D01*
X004778Y006956D01*
X004767Y006946D01*
X004755Y006936D01*
X004742Y006927D01*
X004741D01*
X004738Y006925D01*
X004732Y006923D01*
X004725Y006920D01*
X004715Y006916D01*
X004703Y006913D01*
X004689Y006911D01*
X004672Y006908D01*
X004670D01*
X004667Y006907D01*
X004662D01*
X004651Y006905D01*
X004638Y006904D01*
X004624Y006902D01*
X004611Y006901D01*
X004599Y006900D01*
X004270D01*
Y007499D01*
X004625D01*
X004631Y007498D01*
D02*
G37*
G36*
X007115Y006900D02*
X006929D01*
Y007499D01*
X007115D01*
Y006900D01*
D02*
G37*
G36*
X008279Y007508D02*
X008301Y007507D01*
X008325Y007504D01*
X008350Y007501D01*
X008373Y007497D01*
X008384Y007494D01*
X008394Y007490D01*
X008395D01*
X008396Y007489D01*
X008403Y007487D01*
X008411Y007483D01*
X008422Y007477D01*
X008435Y007469D01*
X008450Y007460D01*
X008463Y007448D01*
X008476Y007434D01*
X008477Y007432D01*
X008481Y007428D01*
X008487Y007419D01*
X008494Y007408D01*
X008502Y007395D01*
X008511Y007379D01*
X008519Y007360D01*
X008525Y007339D01*
X008347Y007308D01*
Y007309D01*
X008345Y007313D01*
X008341Y007320D01*
X008338Y007327D01*
X008333Y007335D01*
X008326Y007344D01*
X008317Y007351D01*
X008309Y007359D01*
X008308Y007360D01*
X008304Y007362D01*
X008298Y007365D01*
X008290Y007369D01*
X008280Y007372D01*
X008269Y007374D01*
X008256Y007377D01*
X008241Y007378D01*
X008235D01*
X008231Y007377D01*
X008220Y007375D01*
X008206Y007372D01*
X008191Y007368D01*
X008174Y007360D01*
X008158Y007349D01*
X008144Y007335D01*
X008143Y007333D01*
X008138Y007327D01*
X008133Y007316D01*
X008126Y007302D01*
X008118Y007284D01*
X008116Y007273D01*
X008113Y007261D01*
X008111Y007248D01*
X008109Y007233D01*
X008108Y007218D01*
Y007202D01*
Y007201D01*
Y007197D01*
Y007193D01*
X008109Y007186D01*
Y007178D01*
X008110Y007169D01*
X008112Y007148D01*
X008116Y007125D01*
X008123Y007102D01*
X008132Y007080D01*
X008137Y007072D01*
X008144Y007063D01*
X008146Y007061D01*
X008150Y007056D01*
X008159Y007050D01*
X008171Y007042D01*
X008185Y007034D01*
X008203Y007028D01*
X008223Y007024D01*
X008246Y007021D01*
X008257D01*
X008265Y007022D01*
X008275Y007024D01*
X008285Y007025D01*
X008305Y007030D01*
X008306D01*
X008311Y007032D01*
X008316Y007034D01*
X008324Y007038D01*
X008334Y007041D01*
X008345Y007046D01*
X008358Y007053D01*
X008371Y007061D01*
Y007118D01*
X008246D01*
Y007242D01*
X008533D01*
Y006986D01*
X008532Y006985D01*
X008529Y006984D01*
X008525Y006981D01*
X008519Y006978D01*
X008512Y006973D01*
X008503Y006968D01*
X008484Y006956D01*
X008461Y006944D01*
X008435Y006931D01*
X008410Y006919D01*
X008386Y006910D01*
X008385D01*
X008383Y006909D01*
X008380Y006908D01*
X008375Y006907D01*
X008369Y006905D01*
X008362Y006903D01*
X008353Y006902D01*
X008345Y006900D01*
X008323Y006897D01*
X008297Y006893D01*
X008268Y006891D01*
X008237Y006890D01*
X008227D01*
X008219Y006891D01*
X008209D01*
X008199Y006892D01*
X008187Y006893D01*
X008174Y006895D01*
X008147Y006899D01*
X008117Y006905D01*
X008089Y006914D01*
X008062Y006926D01*
X008061D01*
X008058Y006928D01*
X008055Y006931D01*
X008051Y006933D01*
X008039Y006942D01*
X008023Y006954D01*
X008007Y006968D01*
X007990Y006986D01*
X007973Y007008D01*
X007958Y007033D01*
Y007034D01*
X007957Y007037D01*
X007955Y007041D01*
X007952Y007046D01*
X007949Y007053D01*
X007947Y007061D01*
X007944Y007071D01*
X007940Y007081D01*
X007936Y007092D01*
X007933Y007105D01*
X007927Y007134D01*
X007923Y007166D01*
X007922Y007199D01*
Y007201D01*
Y007204D01*
Y007209D01*
X007923Y007216D01*
Y007225D01*
X007924Y007234D01*
X007925Y007245D01*
X007927Y007257D01*
X007932Y007284D01*
X007939Y007312D01*
X007949Y007340D01*
X007962Y007369D01*
Y007370D01*
X007964Y007372D01*
X007967Y007375D01*
X007970Y007381D01*
X007979Y007394D01*
X007992Y007410D01*
X008009Y007428D01*
X008029Y007447D01*
X008053Y007464D01*
X008080Y007479D01*
X008081D01*
X008084Y007480D01*
X008087Y007483D01*
X008091Y007484D01*
X008098Y007486D01*
X008105Y007489D01*
X008114Y007491D01*
X008124Y007495D01*
X008135Y007497D01*
X008148Y007499D01*
X008161Y007502D01*
X008175Y007504D01*
X008192Y007507D01*
X008208Y007508D01*
X008245Y007509D01*
X008270D01*
X008279Y007508D01*
D02*
G37*
G36*
X006631Y007273D02*
X006860Y006900D01*
X006632D01*
X006505Y007145D01*
X006410Y007045D01*
Y006900D01*
X006225D01*
Y007499D01*
X006410D01*
Y007272D01*
X006604Y007499D01*
X006851D01*
X006631Y007273D01*
D02*
G37*
G36*
X005913Y007498D02*
X005932Y007497D01*
X005953Y007496D01*
X005975Y007492D01*
X005996Y007489D01*
X006014Y007484D01*
X006017Y007483D01*
X006022Y007480D01*
X006031Y007477D01*
X006041Y007472D01*
X006053Y007464D01*
X006065Y007454D01*
X006077Y007443D01*
X006088Y007429D01*
X006089Y007427D01*
X006092Y007422D01*
X006096Y007414D01*
X006102Y007402D01*
X006107Y007387D01*
X006112Y007371D01*
X006115Y007352D01*
X006116Y007332D01*
Y007330D01*
Y007323D01*
X006115Y007314D01*
X006114Y007302D01*
X006111Y007289D01*
X006107Y007275D01*
X006102Y007260D01*
X006094Y007245D01*
X006093Y007244D01*
X006091Y007240D01*
X006085Y007233D01*
X006079Y007225D01*
X006070Y007216D01*
X006060Y007206D01*
X006048Y007196D01*
X006035Y007187D01*
X006034Y007186D01*
X006031Y007185D01*
X006025Y007182D01*
X006019Y007179D01*
X006009Y007175D01*
X005998Y007171D01*
X005985Y007168D01*
X005971Y007163D01*
X005972D01*
X005976Y007161D01*
X005982Y007159D01*
X005989Y007157D01*
X006005Y007149D01*
X006012Y007146D01*
X006019Y007142D01*
X006021Y007140D01*
X006023Y007138D01*
X006026Y007135D01*
X006031Y007131D01*
X006035Y007125D01*
X006042Y007119D01*
X006048Y007110D01*
X006049Y007109D01*
X006052Y007105D01*
X006055Y007101D01*
X006059Y007097D01*
X006068Y007084D01*
X006071Y007078D01*
X006075Y007073D01*
X006165Y006900D01*
X005955D01*
X005856Y007083D01*
X005855Y007084D01*
X005853Y007088D01*
X005849Y007095D01*
X005845Y007101D01*
X005834Y007116D01*
X005828Y007123D01*
X005822Y007128D01*
X005821Y007130D01*
X005819Y007131D01*
X005814Y007133D01*
X005809Y007136D01*
X005802Y007138D01*
X005795Y007140D01*
X005786Y007142D01*
X005776Y007143D01*
X005761D01*
Y006900D01*
X005575D01*
Y007499D01*
X005905D01*
X005913Y007498D01*
D02*
G37*
%LPC*%
G36*
X008294Y005546D02*
X008289D01*
X008282Y005545D01*
X008274Y005543D01*
X008265Y005540D01*
X008255Y005535D01*
X008245Y005529D01*
X008235Y005520D01*
X008234Y005519D01*
X008232Y005516D01*
X008228Y005509D01*
X008224Y005501D01*
X008220Y005492D01*
X008216Y005478D01*
X008214Y005464D01*
X008212Y005447D01*
Y005445D01*
Y005439D01*
X008214Y005430D01*
X008216Y005419D01*
X008218Y005407D01*
X008222Y005394D01*
X008229Y005382D01*
X008237Y005371D01*
X008238Y005370D01*
X008241Y005367D01*
X008246Y005363D01*
X008254Y005358D01*
X008263Y005353D01*
X008273Y005348D01*
X008285Y005345D01*
X008298Y005344D01*
X008303D01*
X008310Y005345D01*
X008317Y005347D01*
X008325Y005349D01*
X008335Y005354D01*
X008344Y005360D01*
X008352Y005368D01*
X008353Y005369D01*
X008356Y005372D01*
X008360Y005379D01*
X008364Y005387D01*
X008368Y005398D01*
X008372Y005410D01*
X008374Y005425D01*
X008375Y005442D01*
Y005443D01*
Y005445D01*
Y005451D01*
X008374Y005460D01*
X008372Y005471D01*
X008370Y005483D01*
X008365Y005496D01*
X008359Y005508D01*
X008351Y005519D01*
X008350Y005520D01*
X008347Y005523D01*
X008343Y005528D01*
X008336Y005533D01*
X008327Y005537D01*
X008317Y005542D01*
X008306Y005545D01*
X008294Y005546D01*
D02*
G37*
G36*
X003693Y000550D02*
X003450D01*
Y000307D01*
X003477Y000311D01*
X003550Y000341D01*
X003612Y000388D01*
X003659Y000450D01*
X003689Y000523D01*
X003693Y000550D01*
D02*
G37*
G36*
X008100Y000600D02*
X007857D01*
X007861Y000573D01*
X007891Y000500D01*
X007938Y000438D01*
X008000Y000391D01*
X008073Y000361D01*
X008100Y000357D01*
Y000600D01*
D02*
G37*
G36*
X007164Y005748D02*
X007162D01*
X007158Y005747D01*
X007150Y005746D01*
X007141Y005743D01*
X007131Y005739D01*
X007122Y005731D01*
X007112Y005720D01*
X007104Y005706D01*
X007103Y005704D01*
X007102Y005701D01*
X007101Y005697D01*
X007100Y005693D01*
X007099Y005687D01*
X007097Y005680D01*
X007095Y005671D01*
X007093Y005661D01*
X007091Y005650D01*
X007090Y005637D01*
X007089Y005624D01*
X007088Y005607D01*
X007087Y005591D01*
X007086Y005572D01*
Y005552D01*
Y005551D01*
Y005546D01*
Y005541D01*
Y005533D01*
X007087Y005524D01*
Y005513D01*
X007088Y005489D01*
X007090Y005463D01*
X007094Y005437D01*
X007097Y005425D01*
X007099Y005414D01*
X007102Y005404D01*
X007105Y005395D01*
X007106Y005393D01*
X007110Y005389D01*
X007114Y005382D01*
X007121Y005375D01*
X007129Y005367D01*
X007139Y005360D01*
X007151Y005356D01*
X007164Y005354D01*
X007169D01*
X007174Y005355D01*
X007180Y005356D01*
X007187Y005358D01*
X007194Y005361D01*
X007201Y005366D01*
X007209Y005371D01*
X007210Y005372D01*
X007212Y005375D01*
X007216Y005379D01*
X007220Y005384D01*
X007224Y005393D01*
X007229Y005402D01*
X007233Y005414D01*
X007236Y005427D01*
Y005429D01*
X007238Y005435D01*
X007240Y005443D01*
X007242Y005457D01*
X007243Y005473D01*
X007245Y005494D01*
X007246Y005518D01*
Y005546D01*
Y005547D01*
Y005552D01*
Y005557D01*
Y005566D01*
X007245Y005575D01*
Y005587D01*
X007244Y005611D01*
X007241Y005638D01*
X007238Y005664D01*
X007235Y005676D01*
X007232Y005688D01*
X007229Y005698D01*
X007225Y005707D01*
X007224Y005709D01*
X007221Y005713D01*
X007217Y005720D01*
X007210Y005728D01*
X007201Y005735D01*
X007191Y005742D01*
X007178Y005746D01*
X007164Y005748D01*
D02*
G37*
G36*
X003350Y000550D02*
X003107D01*
X003111Y000523D01*
X003141Y000450D01*
X003188Y000388D01*
X003250Y000341D01*
X003323Y000311D01*
X003350Y000307D01*
Y000550D01*
D02*
G37*
G36*
X005185Y007343D02*
X005119Y007128D01*
X005250D01*
X005185Y007343D01*
D02*
G37*
G36*
X005842Y007378D02*
X005761D01*
Y007256D01*
X005845D01*
X005849Y007257D01*
X005856Y007258D01*
X005865Y007260D01*
X005876Y007262D01*
X005888Y007264D01*
X005889D01*
X005891Y007265D01*
X005894Y007266D01*
X005899Y007267D01*
X005908Y007273D01*
X005914Y007277D01*
X005918Y007283D01*
X005919Y007284D01*
X005920Y007286D01*
X005923Y007288D01*
X005925Y007292D01*
X005928Y007303D01*
X005930Y007310D01*
Y007318D01*
Y007319D01*
Y007322D01*
X005929Y007327D01*
X005928Y007334D01*
X005926Y007340D01*
X005923Y007348D01*
X005918Y007355D01*
X005912Y007361D01*
X005911Y007362D01*
X005908Y007363D01*
X005903Y007367D01*
X005896Y007370D01*
X005887Y007372D01*
X005875Y007375D01*
X005859Y007377D01*
X005842Y007378D01*
D02*
G37*
G36*
X004539D02*
X004457D01*
Y007264D01*
X004544D01*
X004552Y007265D01*
X004562Y007266D01*
X004582Y007271D01*
X004590Y007274D01*
X004598Y007278D01*
X004599Y007279D01*
X004601Y007281D01*
X004603Y007285D01*
X004607Y007289D01*
X004610Y007296D01*
X004613Y007303D01*
X004614Y007312D01*
X004615Y007322D01*
Y007323D01*
Y007326D01*
X004614Y007331D01*
X004613Y007337D01*
X004611Y007344D01*
X004608Y007350D01*
X004603Y007357D01*
X004598Y007362D01*
X004597Y007363D01*
X004595Y007365D01*
X004590Y007367D01*
X004584Y007370D01*
X004576Y007373D01*
X004566Y007375D01*
X004553Y007377D01*
X004539Y007378D01*
D02*
G37*
G36*
X006917Y006563D02*
X006871D01*
Y006237D01*
X006926D01*
X006936Y006238D01*
X006949D01*
X006962Y006240D01*
X006976Y006242D01*
X006988Y006244D01*
X006999Y006249D01*
X007000Y006250D01*
X007004Y006251D01*
X007008Y006254D01*
X007013Y006260D01*
X007020Y006265D01*
X007027Y006273D01*
X007033Y006283D01*
X007039Y006293D01*
X007040Y006295D01*
X007041Y006300D01*
X007043Y006308D01*
X007046Y006319D01*
X007048Y006333D01*
X007051Y006351D01*
X007052Y006372D01*
X007053Y006397D01*
Y006398D01*
Y006402D01*
Y006406D01*
Y006413D01*
X007052Y006420D01*
Y006429D01*
X007048Y006450D01*
X007045Y006471D01*
X007040Y006492D01*
X007032Y006512D01*
X007027Y006520D01*
X007021Y006527D01*
X007020Y006528D01*
X007015Y006533D01*
X007007Y006538D01*
X006996Y006546D01*
X006982Y006553D01*
X006964Y006558D01*
X006942Y006562D01*
X006917Y006563D01*
D02*
G37*
G36*
X004550Y007150D02*
X004457D01*
Y007029D01*
X004559D01*
X004567Y007030D01*
X004577Y007031D01*
X004589Y007033D01*
X004600Y007036D01*
X004610Y007040D01*
X004619Y007045D01*
X004620Y007046D01*
X004622Y007049D01*
X004625Y007052D01*
X004629Y007057D01*
X004632Y007064D01*
X004635Y007073D01*
X004637Y007081D01*
X004638Y007091D01*
Y007092D01*
Y007096D01*
X004637Y007100D01*
X004636Y007107D01*
X004634Y007113D01*
X004630Y007121D01*
X004625Y007127D01*
X004619Y007134D01*
X004618Y007135D01*
X004615Y007136D01*
X004610Y007139D01*
X004602Y007143D01*
X004594Y007145D01*
X004582Y007148D01*
X004567Y007149D01*
X004550Y007150D01*
D02*
G37*
G36*
X008209Y006578D02*
X008128D01*
Y006456D01*
X008212D01*
X008217Y006457D01*
X008223Y006459D01*
X008232Y006460D01*
X008243Y006462D01*
X008255Y006464D01*
X008256D01*
X008258Y006465D01*
X008262Y006466D01*
X008266Y006467D01*
X008276Y006473D01*
X008281Y006477D01*
X008286Y006483D01*
X008287Y006484D01*
X008288Y006486D01*
X008290Y006488D01*
X008292Y006492D01*
X008296Y006503D01*
X008298Y006510D01*
Y006518D01*
Y006519D01*
Y006522D01*
X008297Y006527D01*
X008296Y006534D01*
X008293Y006540D01*
X008290Y006548D01*
X008286Y006555D01*
X008279Y006561D01*
X008278Y006562D01*
X008276Y006563D01*
X008270Y006567D01*
X008264Y006570D01*
X008254Y006572D01*
X008242Y006575D01*
X008227Y006577D01*
X008209Y006578D01*
D02*
G37*
G36*
X005992D02*
X005939D01*
Y006444D01*
X005993D01*
X006002Y006445D01*
X006013Y006446D01*
X006025Y006449D01*
X006039Y006452D01*
X006049Y006456D01*
X006059Y006462D01*
X006060Y006463D01*
X006063Y006465D01*
X006066Y006469D01*
X006070Y006475D01*
X006075Y006481D01*
X006078Y006490D01*
X006080Y006499D01*
X006081Y006510D01*
Y006511D01*
Y006514D01*
X006080Y006520D01*
X006079Y006526D01*
X006077Y006534D01*
X006072Y006543D01*
X006068Y006550D01*
X006061Y006558D01*
X006060Y006559D01*
X006058Y006561D01*
X006053Y006565D01*
X006046Y006568D01*
X006036Y006571D01*
X006024Y006574D01*
X006009Y006577D01*
X005992Y006578D01*
D02*
G37*
G36*
X008443Y000600D02*
X008200D01*
Y000357D01*
X008227Y000361D01*
X008300Y000391D01*
X008362Y000438D01*
X008409Y000500D01*
X008439Y000573D01*
X008443Y000600D01*
D02*
G37*
G36*
X009250Y006000D02*
X009007D01*
X009011Y005973D01*
X009041Y005900D01*
X009088Y005838D01*
X009150Y005791D01*
X009223Y005761D01*
X009250Y005757D01*
Y006000D01*
D02*
G37*
G36*
X009593D02*
X009350D01*
Y005757D01*
X009377Y005761D01*
X009450Y005791D01*
X009512Y005838D01*
X009559Y005900D01*
X009589Y005973D01*
X009593Y006000D01*
D02*
G37*
G36*
X009250Y006343D02*
X009223Y006339D01*
X009150Y006309D01*
X009088Y006262D01*
X009041Y006200D01*
X009011Y006127D01*
X009007Y006100D01*
X009250D01*
Y006343D01*
D02*
G37*
G36*
X003532Y004947D02*
X003265D01*
Y004700D01*
X003532D01*
Y004947D01*
D02*
G37*
G36*
X003165Y004600D02*
X002899D01*
Y004353D01*
X003165D01*
Y004600D01*
D02*
G37*
G36*
X003532D02*
X003265D01*
Y004353D01*
X003532D01*
Y004600D01*
D02*
G37*
G36*
X003165Y004947D02*
X002899D01*
Y004700D01*
X003165D01*
Y004947D01*
D02*
G37*
G36*
X003293Y006700D02*
X003050D01*
Y006457D01*
X003077Y006461D01*
X003150Y006491D01*
X003212Y006538D01*
X003259Y006600D01*
X003289Y006673D01*
X003293Y006700D01*
D02*
G37*
G36*
X002950Y007043D02*
X002923Y007039D01*
X002850Y007009D01*
X002788Y006962D01*
X002741Y006900D01*
X002711Y006827D01*
X002707Y006800D01*
X002950D01*
Y007043D01*
D02*
G37*
G36*
X003050D02*
Y006800D01*
X003293D01*
X003289Y006827D01*
X003259Y006900D01*
X003212Y006962D01*
X003150Y007009D01*
X003077Y007039D01*
X003050Y007043D01*
D02*
G37*
G36*
X002950Y006700D02*
X002707D01*
X002711Y006673D01*
X002741Y006600D01*
X002788Y006538D01*
X002850Y006491D01*
X002923Y006461D01*
X002950Y006457D01*
Y006700D01*
D02*
G37*
G36*
X009350Y006343D02*
Y006100D01*
X009593D01*
X009589Y006127D01*
X009559Y006200D01*
X009512Y006262D01*
X009450Y006309D01*
X009377Y006339D01*
X009350Y006343D01*
D02*
G37*
G36*
X003874Y006379D02*
X003669D01*
Y006144D01*
X003874D01*
Y006379D01*
D02*
G37*
G36*
X004179D02*
X003974D01*
Y006144D01*
X004179D01*
Y006379D01*
D02*
G37*
G36*
X001700Y004933D02*
X001562Y004915D01*
X001433Y004862D01*
X001323Y004777D01*
X001238Y004667D01*
X001185Y004538D01*
X001167Y004400D01*
X001185Y004262D01*
X001238Y004133D01*
X001323Y004023D01*
X001433Y003938D01*
X001562Y003885D01*
X001700Y003867D01*
X001838Y003885D01*
X001967Y003938D01*
X002077Y004023D01*
X002162Y004133D01*
X002215Y004262D01*
X002233Y004400D01*
X002215Y004538D01*
X002162Y004667D01*
X002077Y004777D01*
X001967Y004862D01*
X001838Y004915D01*
X001700Y004933D01*
D02*
G37*
G36*
X002137Y001593D02*
X001962Y001418D01*
X002151Y001230D01*
X002325Y001404D01*
X002137Y001593D01*
D02*
G37*
G36*
X002382Y001838D02*
X002207Y001663D01*
X002396Y001475D01*
X002570Y001649D01*
X002382Y001838D01*
D02*
G37*
G36*
X001877Y001852D02*
X001703Y001677D01*
X001891Y001489D01*
X002066Y001663D01*
X001877Y001852D01*
D02*
G37*
G36*
X008200Y000943D02*
Y000700D01*
X008443D01*
X008439Y000727D01*
X008409Y000800D01*
X008362Y000862D01*
X008300Y000909D01*
X008227Y000939D01*
X008200Y000943D01*
D02*
G37*
G36*
X003350Y000893D02*
X003323Y000889D01*
X003250Y000859D01*
X003188Y000812D01*
X003141Y000750D01*
X003111Y000677D01*
X003107Y000650D01*
X003350D01*
Y000893D01*
D02*
G37*
G36*
X003450D02*
Y000650D01*
X003693D01*
X003689Y000677D01*
X003659Y000750D01*
X003612Y000812D01*
X003550Y000859D01*
X003477Y000889D01*
X003450Y000893D01*
D02*
G37*
G36*
X008100Y000943D02*
X008073Y000939D01*
X008000Y000909D01*
X007938Y000862D01*
X007891Y000800D01*
X007861Y000727D01*
X007857Y000700D01*
X008100D01*
Y000943D01*
D02*
G37*
G36*
X007000Y002900D02*
X006700D01*
Y002550D01*
X007000D01*
Y002900D01*
D02*
G37*
G36*
X005516Y003216D02*
X005181D01*
Y003078D01*
X005516D01*
Y003216D01*
D02*
G37*
G36*
X005952D02*
X005616D01*
Y003078D01*
X005952D01*
Y003216D01*
D02*
G37*
G36*
X006600Y002900D02*
X006300D01*
Y002550D01*
X006600D01*
Y002900D01*
D02*
G37*
G36*
X002123Y002097D02*
X001948Y001923D01*
X002137Y001734D01*
X002311Y001909D01*
X002123Y002097D01*
D02*
G37*
G36*
X006600Y002450D02*
X006300D01*
Y002100D01*
X006600D01*
Y002450D01*
D02*
G37*
G36*
X007000D02*
X006700D01*
Y002100D01*
X007000D01*
Y002450D01*
D02*
G37*
%LPD*%
D10*
X006650Y003400D02*
D03*
Y002500D02*
D03*
D11*
X002137Y001663D02*
D03*
X001663Y002137D02*
D03*
D12*
X007400Y003315D02*
D03*
Y003985D02*
D03*
X008700Y003435D02*
D03*
Y002765D02*
D03*
X008050Y002765D02*
D03*
Y003435D02*
D03*
X002800Y003885D02*
D03*
Y003215D02*
D03*
D13*
X003885Y004650D02*
D03*
X003215D02*
D03*
D14*
X003924Y006094D02*
D03*
X003176D02*
D03*
X003550Y005306D02*
D03*
D15*
X003834Y003266D02*
D03*
Y003522D02*
D03*
Y003778D02*
D03*
Y004034D02*
D03*
X005566Y003266D02*
D03*
Y003522D02*
D03*
Y003778D02*
D03*
Y004034D02*
D03*
D16*
X001411Y002189D02*
X001611D01*
X000600Y003000D02*
X001411Y002189D01*
X000600Y003000D02*
Y003350D01*
X009600Y002500D02*
X010250D01*
X009250Y002850D02*
X009600Y002500D01*
X008700Y002850D02*
X009250D01*
X010250Y002500D02*
X011000Y003250D01*
Y003350D01*
D17*
X006950Y004200D02*
X007200Y004450D01*
X006250Y004200D02*
X006950D01*
X006084Y004034D02*
X006250Y004200D01*
X005566Y004034D02*
X006084D01*
X006350Y003950D02*
X007600D01*
X006178Y003778D02*
X006350Y003950D01*
X005566Y003778D02*
X006178D01*
X003656Y005200D02*
X004501D01*
X003456Y005400D02*
X003656Y005200D01*
X001450Y005400D02*
X003456D01*
X004150D02*
X004600D01*
X003850Y005700D02*
X004150Y005400D01*
X002600Y005700D02*
X003850D01*
X002350Y005950D02*
X002600Y005700D01*
X004600Y005400D02*
X004897Y005103D01*
X004501Y005200D02*
X004700Y005001D01*
X007738Y003812D02*
X010462D01*
X007600Y003950D02*
X007738Y003812D01*
X000600Y004550D02*
X001450Y005400D01*
X000600Y004350D02*
Y004550D01*
X003272Y003522D02*
X003834D01*
X002900Y003150D02*
X003272Y003522D01*
X002800Y003150D02*
X002900D01*
X005078Y003522D02*
X005566D01*
X004822Y003778D02*
X005078Y003522D01*
X003834Y003778D02*
X004822D01*
X003834Y004034D02*
Y004650D01*
X004897Y004413D02*
Y005103D01*
X004700Y004331D02*
Y005001D01*
X003466Y003266D02*
X003834D01*
X003000Y002800D02*
X003466Y003266D01*
X002100Y002800D02*
X003000D01*
X001700Y003200D02*
X002100Y002800D01*
X009700Y003400D02*
X009900Y003200D01*
X008050Y003400D02*
X009700D01*
X009600Y004100D02*
X009900Y004400D01*
X007950Y004100D02*
X009600D01*
X007600Y004450D02*
X007950Y004100D01*
X007200Y004450D02*
X007600D01*
X005566Y003522D02*
X006478D01*
X006650Y003350D01*
X002878Y003778D02*
X003834D01*
X005537Y003807D02*
X005566Y003778D01*
X005224Y003807D02*
X005537D01*
X004700Y004331D02*
X005224Y003807D01*
X006650Y003350D02*
X007350D01*
X007400Y003400D01*
Y003200D02*
Y003400D01*
Y003200D02*
X007750Y002850D01*
X008050D01*
X010462Y003812D02*
X011000Y004350D01*
X005276Y004034D02*
X005566D01*
X004897Y004413D02*
X005276Y004034D01*
X002350Y005950D02*
Y006000D01*
D18*
X009900Y003200D02*
D03*
X001700Y004400D02*
D03*
X009900D02*
D03*
X001700Y003200D02*
D03*
D19*
X011000Y004350D02*
D03*
X000600Y003350D02*
D03*
D20*
X011000D02*
D03*
X000600Y004350D02*
D03*
D21*
X009300Y006050D02*
D03*
X003000Y006750D02*
D03*
X003400Y000600D02*
D03*
X008150Y000650D02*
D03*
X002350Y006000D02*
D03*
M02*
